<svg xmlns="http://www.w3.org/2000/svg" xmlns:xlink="http://www.w3.org/1999/xlink" width="170" zoomAndPan="magnify" viewBox="0 0 127.5 44.999999" height="60" preserveAspectRatio="xMidYMid meet" version="1.0"><defs><g/><clipPath id="3b1fb9125f"><path d="M 0 0.796875 L 44.824219 0.796875 L 44.824219 44.128906 L 0 44.128906 Z M 0 0.796875 " clip-rule="nonzero"/></clipPath></defs><path fill="#004aad" d="M 3.101562 3.898438 L 4.652344 3.898438 L 4.652344 5.449219 L 3.101562 5.449219 Z M 3.101562 3.898438 " fill-opacity="1" fill-rule="nonzero"/><path fill="#004aad" d="M 6.203125 3.898438 L 7.75 3.898438 L 7.75 5.449219 L 6.203125 5.449219 Z M 6.203125 3.898438 " fill-opacity="1" fill-rule="nonzero"/><path fill="#004aad" d="M 9.300781 3.898438 L 10.851562 3.898438 L 10.851562 5.449219 L 9.300781 5.449219 Z M 9.300781 3.898438 " fill-opacity="1" fill-rule="nonzero"/><g clip-path="url(#3b1fb9125f)"><path fill="#004aad" d="M 41.851562 0.796875 L 3.101562 0.796875 C 2.691406 0.796875 2.296875 0.878906 1.914062 1.035156 C 1.535156 1.191406 1.199219 1.417969 0.910156 1.707031 C 0.621094 1.996094 0.394531 2.332031 0.238281 2.710938 C 0.0820312 3.09375 0 3.488281 0 3.898438 L 0 34.898438 C 0 35.308594 0.0820312 35.703125 0.238281 36.085938 C 0.394531 36.464844 0.621094 36.796875 0.910156 37.089844 C 1.199219 37.378906 1.535156 37.605469 1.914062 37.761719 C 2.296875 37.917969 2.691406 37.996094 3.101562 38 L 16.765625 38 L 16.34375 42.648438 L 13.953125 42.648438 L 13.953125 44.199219 L 31 44.199219 L 31 42.648438 L 28.609375 42.648438 L 28.1875 38 L 41.851562 38 C 42.261719 37.996094 42.65625 37.917969 43.039062 37.761719 C 43.417969 37.605469 43.75 37.378906 44.042969 37.089844 C 44.332031 36.796875 44.558594 36.464844 44.714844 36.085938 C 44.871094 35.703125 44.949219 35.308594 44.953125 34.898438 L 44.953125 3.898438 C 44.949219 3.488281 44.871094 3.09375 44.714844 2.710938 C 44.558594 2.332031 44.332031 1.996094 44.042969 1.707031 C 43.75 1.417969 43.417969 1.191406 43.039062 1.035156 C 42.65625 0.878906 42.261719 0.796875 41.851562 0.796875 Z M 3.101562 2.347656 L 41.851562 2.347656 C 42.058594 2.347656 42.253906 2.386719 42.445312 2.464844 C 42.632812 2.546875 42.800781 2.65625 42.945312 2.804688 C 43.09375 2.949219 43.203125 3.117188 43.28125 3.304688 C 43.363281 3.496094 43.402344 3.691406 43.402344 3.898438 L 43.402344 7 L 1.550781 7 L 1.550781 3.898438 C 1.550781 3.691406 1.589844 3.496094 1.667969 3.304688 C 1.75 3.117188 1.859375 2.949219 2.003906 2.804688 C 2.152344 2.65625 2.320312 2.546875 2.507812 2.464844 C 2.699219 2.386719 2.894531 2.347656 3.101562 2.347656 Z M 43.402344 8.546875 L 43.402344 30.25 L 1.550781 30.25 L 1.550781 8.546875 Z M 27.050781 42.648438 L 17.898438 42.648438 L 18.324219 38 L 26.628906 38 Z M 41.851562 36.449219 L 3.101562 36.449219 C 2.894531 36.449219 2.699219 36.410156 2.507812 36.328125 C 2.320312 36.25 2.152344 36.140625 2.003906 35.992188 C 1.859375 35.847656 1.75 35.679688 1.667969 35.492188 C 1.589844 35.300781 1.550781 35.105469 1.550781 34.898438 L 1.550781 31.796875 L 43.402344 31.796875 L 43.402344 34.898438 C 43.402344 35.105469 43.363281 35.300781 43.28125 35.492188 C 43.203125 35.679688 43.09375 35.847656 42.945312 35.992188 C 42.800781 36.140625 42.632812 36.25 42.445312 36.328125 C 42.253906 36.410156 42.058594 36.449219 41.851562 36.449219 Z M 41.851562 36.449219 " fill-opacity="1" fill-rule="nonzero"/></g><path fill="#004aad" d="M 21.703125 33.347656 L 23.25 33.347656 L 23.25 34.898438 L 21.703125 34.898438 Z M 21.703125 33.347656 " fill-opacity="1" fill-rule="nonzero"/><path fill="#004aad" d="M 3.875 17.074219 L 5.425781 17.074219 L 5.425781 18.625 L 3.875 18.625 Z M 3.875 17.074219 " fill-opacity="1" fill-rule="nonzero"/><path fill="#004aad" d="M 6.976562 17.074219 L 18.601562 17.074219 L 18.601562 18.625 L 6.976562 18.625 Z M 6.976562 17.074219 " fill-opacity="1" fill-rule="nonzero"/><path fill="#004aad" d="M 3.875 20.171875 L 5.425781 20.171875 L 5.425781 21.722656 L 3.875 21.722656 Z M 3.875 20.171875 " fill-opacity="1" fill-rule="nonzero"/><path fill="#004aad" d="M 6.976562 20.171875 L 27.125 20.171875 L 27.125 21.722656 L 6.976562 21.722656 Z M 6.976562 20.171875 " fill-opacity="1" fill-rule="nonzero"/><path fill="#004aad" d="M 3.875 23.273438 L 5.425781 23.273438 L 5.425781 24.824219 L 3.875 24.824219 Z M 3.875 23.273438 " fill-opacity="1" fill-rule="nonzero"/><path fill="#004aad" d="M 6.976562 23.273438 L 21.703125 23.273438 L 21.703125 24.824219 L 6.976562 24.824219 Z M 6.976562 23.273438 " fill-opacity="1" fill-rule="nonzero"/><path fill="#004aad" d="M 3.875 26.375 L 5.425781 26.375 L 5.425781 27.921875 L 3.875 27.921875 Z M 3.875 26.375 " fill-opacity="1" fill-rule="nonzero"/><path fill="#004aad" d="M 6.976562 26.375 L 29.453125 26.375 L 29.453125 27.921875 L 6.976562 27.921875 Z M 6.976562 26.375 " fill-opacity="1" fill-rule="nonzero"/><path fill="#004aad" d="M 4.101562 13.746094 L 5.652344 15.296875 L 6.75 14.199219 L 5.746094 13.199219 L 6.75 12.195312 L 5.652344 11.101562 L 4.101562 12.648438 C 3.953125 12.800781 3.875 12.984375 3.875 13.199219 C 3.875 13.414062 3.953125 13.59375 4.101562 13.746094 Z M 4.101562 13.746094 " fill-opacity="1" fill-rule="nonzero"/><path fill="#004aad" d="M 11.851562 14.199219 L 12.949219 15.296875 L 14.5 13.746094 C 14.652344 13.59375 14.726562 13.414062 14.726562 13.199219 C 14.726562 12.984375 14.652344 12.800781 14.5 12.648438 L 12.949219 11.101562 L 11.851562 12.195312 L 12.855469 13.199219 Z M 11.851562 14.199219 " fill-opacity="1" fill-rule="nonzero"/><path fill="#004aad" d="M 7.789062 15.277344 L 9.339844 10.628906 L 10.8125 11.117188 L 9.261719 15.769531 Z M 7.789062 15.277344 " fill-opacity="1" fill-rule="nonzero"/><path fill="#004aad" d="M 28.675781 20.171875 L 33.328125 20.171875 L 33.328125 21.722656 L 28.675781 21.722656 Z M 28.675781 20.171875 " fill-opacity="1" fill-rule="nonzero"/><path fill="#004aad" d="M 31 26.375 L 32.550781 26.375 L 32.550781 27.921875 L 31 27.921875 Z M 31 26.375 " fill-opacity="1" fill-rule="nonzero"/><path fill="#004aad" d="M 34.101562 26.375 L 35.652344 26.375 L 35.652344 27.921875 L 34.101562 27.921875 Z M 34.101562 26.375 " fill-opacity="1" fill-rule="nonzero"/><path fill="#004aad" d="M 20.152344 17.074219 L 21.703125 17.074219 L 21.703125 18.625 L 20.152344 18.625 Z M 20.152344 17.074219 " fill-opacity="1" fill-rule="nonzero"/><g fill="#004aad" fill-opacity="1"><g transform="translate(47.812312, 16.23773)"><g><path d="M 3.640625 -10.1875 L 3.640625 -7.140625 L 7.734375 -7.140625 L 7.734375 -5.203125 L 3.640625 -5.203125 L 3.640625 -1.984375 L 8.265625 -1.984375 L 8.265625 0 L 1.203125 0 L 1.203125 -12.171875 L 8.265625 -12.171875 L 8.265625 -10.1875 Z M 3.640625 -10.1875 "/></g></g></g><g fill="#004aad" fill-opacity="1"><g transform="translate(57.083855, 16.23773)"><g><path d="M 3.4375 -2 L 7.734375 -2 L 7.734375 0 L 0.65625 0 L 0.65625 -1.96875 L 4.875 -7.640625 L 0.671875 -7.640625 L 0.671875 -9.65625 L 7.6875 -9.65625 L 7.6875 -7.6875 Z M 3.4375 -2 "/></g></g></g><g fill="#004aad" fill-opacity="1"><g transform="translate(65.501437, 16.23773)"><g><path d="M 10.171875 -5.03125 C 10.171875 -4.6875 10.148438 -4.375 10.109375 -4.09375 L 3.046875 -4.09375 C 3.109375 -3.394531 3.351562 -2.847656 3.78125 -2.453125 C 4.207031 -2.054688 4.734375 -1.859375 5.359375 -1.859375 C 6.265625 -1.859375 6.910156 -2.25 7.296875 -3.03125 L 9.9375 -3.03125 C 9.65625 -2.101562 9.117188 -1.335938 8.328125 -0.734375 C 7.535156 -0.140625 6.566406 0.15625 5.421875 0.15625 C 4.492188 0.15625 3.660156 -0.046875 2.921875 -0.453125 C 2.179688 -0.867188 1.601562 -1.453125 1.1875 -2.203125 C 0.78125 -2.960938 0.578125 -3.835938 0.578125 -4.828125 C 0.578125 -5.828125 0.78125 -6.703125 1.1875 -7.453125 C 1.59375 -8.210938 2.160156 -8.796875 2.890625 -9.203125 C 3.617188 -9.609375 4.460938 -9.8125 5.421875 -9.8125 C 6.335938 -9.8125 7.15625 -9.613281 7.875 -9.21875 C 8.601562 -8.820312 9.164062 -8.257812 9.5625 -7.53125 C 9.96875 -6.8125 10.171875 -5.976562 10.171875 -5.03125 Z M 7.640625 -5.734375 C 7.628906 -6.359375 7.40625 -6.859375 6.96875 -7.234375 C 6.53125 -7.617188 5.988281 -7.8125 5.34375 -7.8125 C 4.738281 -7.8125 4.226562 -7.625 3.8125 -7.25 C 3.40625 -6.882812 3.15625 -6.378906 3.0625 -5.734375 Z M 7.640625 -5.734375 "/></g></g></g><g fill="#004aad" fill-opacity="1"><g transform="translate(76.254331, 16.23773)"><g><path d="M 0.578125 -4.84375 C 0.578125 -5.8125 0.773438 -6.664062 1.171875 -7.40625 C 1.578125 -8.15625 2.117188 -8.738281 2.796875 -9.15625 C 3.484375 -9.582031 4.238281 -9.796875 5.0625 -9.796875 C 5.75 -9.796875 6.359375 -9.660156 6.890625 -9.390625 C 7.421875 -9.128906 7.847656 -8.796875 8.171875 -8.390625 L 8.171875 -9.65625 L 10.625 -9.65625 L 10.625 4.59375 L 8.171875 4.59375 L 8.171875 -1.328125 C 7.847656 -0.910156 7.410156 -0.5625 6.859375 -0.28125 C 6.316406 0 5.703125 0.140625 5.015625 0.140625 C 4.203125 0.140625 3.457031 -0.0664062 2.78125 -0.484375 C 2.101562 -0.910156 1.566406 -1.5 1.171875 -2.25 C 0.773438 -3.007812 0.578125 -3.875 0.578125 -4.84375 Z M 8.171875 -4.828125 C 8.171875 -5.421875 8.046875 -5.929688 7.796875 -6.359375 C 7.554688 -6.785156 7.238281 -7.109375 6.84375 -7.328125 C 6.457031 -7.554688 6.046875 -7.671875 5.609375 -7.671875 C 5.179688 -7.671875 4.769531 -7.554688 4.375 -7.328125 C 3.988281 -7.109375 3.671875 -6.785156 3.421875 -6.359375 C 3.179688 -5.941406 3.0625 -5.4375 3.0625 -4.84375 C 3.0625 -4.25 3.179688 -3.734375 3.421875 -3.296875 C 3.671875 -2.859375 3.988281 -2.53125 4.375 -2.3125 C 4.769531 -2.09375 5.179688 -1.984375 5.609375 -1.984375 C 6.046875 -1.984375 6.457031 -2.09375 6.84375 -2.3125 C 7.238281 -2.53125 7.554688 -2.851562 7.796875 -3.28125 C 8.046875 -3.71875 8.171875 -4.234375 8.171875 -4.828125 Z M 8.171875 -4.828125 "/></g></g></g><g fill="#004aad" fill-opacity="1"><g transform="translate(88.07031, 16.23773)"><g><path d="M 10.3125 -9.65625 L 10.3125 0 L 7.859375 0 L 7.859375 -1.21875 C 7.546875 -0.800781 7.132812 -0.472656 6.625 -0.234375 C 6.125 0.00390625 5.578125 0.125 4.984375 0.125 C 4.222656 0.125 3.550781 -0.0351562 2.96875 -0.359375 C 2.394531 -0.679688 1.941406 -1.148438 1.609375 -1.765625 C 1.273438 -2.390625 1.109375 -3.128906 1.109375 -3.984375 L 1.109375 -9.65625 L 3.546875 -9.65625 L 3.546875 -4.34375 C 3.546875 -3.570312 3.738281 -2.976562 4.125 -2.5625 C 4.507812 -2.15625 5.035156 -1.953125 5.703125 -1.953125 C 6.367188 -1.953125 6.894531 -2.15625 7.28125 -2.5625 C 7.664062 -2.976562 7.859375 -3.570312 7.859375 -4.34375 L 7.859375 -9.65625 Z M 10.3125 -9.65625 "/></g></g></g><g fill="#004aad" fill-opacity="1"><g transform="translate(99.590018, 16.23773)"><g><path d="M 2.4375 -10.796875 C 2.007812 -10.796875 1.648438 -10.929688 1.359375 -11.203125 C 1.078125 -11.484375 0.9375 -11.828125 0.9375 -12.234375 C 0.9375 -12.640625 1.078125 -12.976562 1.359375 -13.25 C 1.648438 -13.519531 2.007812 -13.65625 2.4375 -13.65625 C 2.863281 -13.65625 3.21875 -13.519531 3.5 -13.25 C 3.789062 -12.976562 3.9375 -12.640625 3.9375 -12.234375 C 3.9375 -11.828125 3.789062 -11.484375 3.5 -11.203125 C 3.21875 -10.929688 2.863281 -10.796875 2.4375 -10.796875 Z M 3.640625 -9.65625 L 3.640625 0 L 1.203125 0 L 1.203125 -9.65625 Z M 3.640625 -9.65625 "/></g></g></g><g fill="#004aad" fill-opacity="1"><g transform="translate(104.434918, 16.23773)"><g><path d="M 10.171875 -5.03125 C 10.171875 -4.6875 10.148438 -4.375 10.109375 -4.09375 L 3.046875 -4.09375 C 3.109375 -3.394531 3.351562 -2.847656 3.78125 -2.453125 C 4.207031 -2.054688 4.734375 -1.859375 5.359375 -1.859375 C 6.265625 -1.859375 6.910156 -2.25 7.296875 -3.03125 L 9.9375 -3.03125 C 9.65625 -2.101562 9.117188 -1.335938 8.328125 -0.734375 C 7.535156 -0.140625 6.566406 0.15625 5.421875 0.15625 C 4.492188 0.15625 3.660156 -0.046875 2.921875 -0.453125 C 2.179688 -0.867188 1.601562 -1.453125 1.1875 -2.203125 C 0.78125 -2.960938 0.578125 -3.835938 0.578125 -4.828125 C 0.578125 -5.828125 0.78125 -6.703125 1.1875 -7.453125 C 1.59375 -8.210938 2.160156 -8.796875 2.890625 -9.203125 C 3.617188 -9.609375 4.460938 -9.8125 5.421875 -9.8125 C 6.335938 -9.8125 7.15625 -9.613281 7.875 -9.21875 C 8.601562 -8.820312 9.164062 -8.257812 9.5625 -7.53125 C 9.96875 -6.8125 10.171875 -5.976562 10.171875 -5.03125 Z M 7.640625 -5.734375 C 7.628906 -6.359375 7.40625 -6.859375 6.96875 -7.234375 C 6.53125 -7.617188 5.988281 -7.8125 5.34375 -7.8125 C 4.738281 -7.8125 4.226562 -7.625 3.8125 -7.25 C 3.40625 -6.882812 3.15625 -6.378906 3.0625 -5.734375 Z M 7.640625 -5.734375 "/></g></g></g><g fill="#004aad" fill-opacity="1"><g transform="translate(115.187812, 16.23773)"><g><path d="M 3.640625 -12.890625 L 3.640625 0 L 1.203125 0 L 1.203125 -12.890625 Z M 3.640625 -12.890625 "/></g></g></g><g fill="#545454" fill-opacity="1"><g transform="translate(47.812312, 42.56111)"><g><path d="M 2.109375 -4.84375 C 2.617188 -4.84375 3.066406 -4.742188 3.453125 -4.546875 C 3.847656 -4.347656 4.148438 -4.0625 4.359375 -3.6875 C 4.566406 -3.320312 4.671875 -2.894531 4.671875 -2.40625 C 4.671875 -1.914062 4.566406 -1.488281 4.359375 -1.125 C 4.148438 -0.757812 3.847656 -0.476562 3.453125 -0.28125 C 3.066406 -0.09375 2.617188 0 2.109375 0 L 0.515625 0 L 0.515625 -4.84375 Z M 2.109375 -0.640625 C 2.671875 -0.640625 3.101562 -0.789062 3.40625 -1.09375 C 3.707031 -1.40625 3.859375 -1.84375 3.859375 -2.40625 C 3.859375 -2.96875 3.707031 -3.40625 3.40625 -3.71875 C 3.101562 -4.03125 2.671875 -4.1875 2.109375 -4.1875 L 1.3125 -4.1875 L 1.3125 -0.640625 Z M 2.109375 -0.640625 "/></g></g></g><g fill="#545454" fill-opacity="1"><g transform="translate(53.027873, 42.56111)"><g><path d="M 1.3125 -4.203125 L 1.3125 -2.78125 L 2.984375 -2.78125 L 2.984375 -2.125 L 1.3125 -2.125 L 1.3125 -0.640625 L 3.203125 -0.640625 L 3.203125 0 L 0.515625 0 L 0.515625 -4.84375 L 3.203125 -4.84375 L 3.203125 -4.203125 Z M 1.3125 -4.203125 "/></g></g></g><g fill="#545454" fill-opacity="1"><g transform="translate(56.953487, 42.56111)"><g><path d="M 2.125 0.046875 C 1.789062 0.046875 1.492188 -0.0078125 1.234375 -0.125 C 0.972656 -0.238281 0.769531 -0.398438 0.625 -0.609375 C 0.476562 -0.816406 0.40625 -1.0625 0.40625 -1.34375 L 1.25 -1.34375 C 1.269531 -1.132812 1.351562 -0.960938 1.5 -0.828125 C 1.644531 -0.691406 1.851562 -0.625 2.125 -0.625 C 2.394531 -0.625 2.601562 -0.6875 2.75 -0.8125 C 2.90625 -0.945312 2.984375 -1.117188 2.984375 -1.328125 C 2.984375 -1.492188 2.9375 -1.625 2.84375 -1.71875 C 2.75 -1.820312 2.628906 -1.898438 2.484375 -1.953125 C 2.347656 -2.015625 2.15625 -2.078125 1.90625 -2.140625 C 1.582031 -2.222656 1.320312 -2.304688 1.125 -2.390625 C 0.9375 -2.484375 0.769531 -2.617188 0.625 -2.796875 C 0.488281 -2.984375 0.421875 -3.226562 0.421875 -3.53125 C 0.421875 -3.800781 0.488281 -4.039062 0.625 -4.25 C 0.769531 -4.46875 0.96875 -4.628906 1.21875 -4.734375 C 1.46875 -4.847656 1.753906 -4.90625 2.078125 -4.90625 C 2.546875 -4.90625 2.929688 -4.785156 3.234375 -4.546875 C 3.535156 -4.316406 3.703125 -4 3.734375 -3.59375 L 2.859375 -3.59375 C 2.847656 -3.769531 2.765625 -3.921875 2.609375 -4.046875 C 2.453125 -4.171875 2.25 -4.234375 2 -4.234375 C 1.769531 -4.234375 1.582031 -4.171875 1.4375 -4.046875 C 1.289062 -3.929688 1.21875 -3.765625 1.21875 -3.546875 C 1.21875 -3.398438 1.265625 -3.28125 1.359375 -3.1875 C 1.453125 -3.09375 1.566406 -3.015625 1.703125 -2.953125 C 1.847656 -2.898438 2.039062 -2.84375 2.28125 -2.78125 C 2.601562 -2.6875 2.863281 -2.597656 3.0625 -2.515625 C 3.257812 -2.429688 3.429688 -2.296875 3.578125 -2.109375 C 3.722656 -1.921875 3.796875 -1.675781 3.796875 -1.375 C 3.796875 -1.125 3.726562 -0.890625 3.59375 -0.671875 C 3.457031 -0.453125 3.265625 -0.273438 3.015625 -0.140625 C 2.765625 -0.015625 2.46875 0.046875 2.125 0.046875 Z M 2.125 0.046875 "/></g></g></g><g fill="#545454" fill-opacity="1"><g transform="translate(61.436916, 42.56111)"><g><path d="M 3.4375 -0.984375 L 1.421875 -0.984375 L 1.0625 0 L 0.234375 0 L 1.96875 -4.84375 L 2.890625 -4.84375 L 4.625 0 L 3.796875 0 Z M 3.21875 -1.640625 L 2.4375 -3.890625 L 1.640625 -1.640625 Z M 3.21875 -1.640625 "/></g></g></g><g fill="#545454" fill-opacity="1"><g transform="translate(66.568808, 42.56111)"><g><path d="M 3.03125 0 L 1.921875 -1.9375 L 1.3125 -1.9375 L 1.3125 0 L 0.515625 0 L 0.515625 -4.84375 L 2.1875 -4.84375 C 2.5625 -4.84375 2.878906 -4.773438 3.140625 -4.640625 C 3.398438 -4.515625 3.59375 -4.34375 3.71875 -4.125 C 3.84375 -3.90625 3.90625 -3.660156 3.90625 -3.390625 C 3.90625 -3.078125 3.8125 -2.789062 3.625 -2.53125 C 3.445312 -2.269531 3.164062 -2.09375 2.78125 -2 L 3.984375 0 Z M 1.3125 -2.578125 L 2.1875 -2.578125 C 2.488281 -2.578125 2.710938 -2.648438 2.859375 -2.796875 C 3.015625 -2.941406 3.09375 -3.140625 3.09375 -3.390625 C 3.09375 -3.640625 3.015625 -3.832031 2.859375 -3.96875 C 2.710938 -4.113281 2.488281 -4.1875 2.1875 -4.1875 L 1.3125 -4.1875 Z M 1.3125 -2.578125 "/></g></g></g><g fill="#545454" fill-opacity="1"><g transform="translate(71.247479, 42.56111)"><g><path d="M 3.03125 0 L 1.921875 -1.9375 L 1.3125 -1.9375 L 1.3125 0 L 0.515625 0 L 0.515625 -4.84375 L 2.1875 -4.84375 C 2.5625 -4.84375 2.878906 -4.773438 3.140625 -4.640625 C 3.398438 -4.515625 3.59375 -4.34375 3.71875 -4.125 C 3.84375 -3.90625 3.90625 -3.660156 3.90625 -3.390625 C 3.90625 -3.078125 3.8125 -2.789062 3.625 -2.53125 C 3.445312 -2.269531 3.164062 -2.09375 2.78125 -2 L 3.984375 0 Z M 1.3125 -2.578125 L 2.1875 -2.578125 C 2.488281 -2.578125 2.710938 -2.648438 2.859375 -2.796875 C 3.015625 -2.941406 3.09375 -3.140625 3.09375 -3.390625 C 3.09375 -3.640625 3.015625 -3.832031 2.859375 -3.96875 C 2.710938 -4.113281 2.488281 -4.1875 2.1875 -4.1875 L 1.3125 -4.1875 Z M 1.3125 -2.578125 "/></g></g></g><g fill="#545454" fill-opacity="1"><g transform="translate(75.926151, 42.56111)"><g><path d="M 2.734375 0.046875 C 2.285156 0.046875 1.867188 -0.0546875 1.484375 -0.265625 C 1.109375 -0.472656 0.8125 -0.765625 0.59375 -1.140625 C 0.375 -1.523438 0.265625 -1.957031 0.265625 -2.4375 C 0.265625 -2.90625 0.375 -3.328125 0.59375 -3.703125 C 0.8125 -4.078125 1.109375 -4.367188 1.484375 -4.578125 C 1.867188 -4.796875 2.285156 -4.90625 2.734375 -4.90625 C 3.191406 -4.90625 3.609375 -4.796875 3.984375 -4.578125 C 4.359375 -4.367188 4.65625 -4.078125 4.875 -3.703125 C 5.09375 -3.328125 5.203125 -2.90625 5.203125 -2.4375 C 5.203125 -1.957031 5.09375 -1.523438 4.875 -1.140625 C 4.65625 -0.765625 4.359375 -0.472656 3.984375 -0.265625 C 3.609375 -0.0546875 3.191406 0.046875 2.734375 0.046875 Z M 2.734375 -0.640625 C 3.054688 -0.640625 3.34375 -0.710938 3.59375 -0.859375 C 3.84375 -1.003906 4.035156 -1.210938 4.171875 -1.484375 C 4.316406 -1.753906 4.390625 -2.070312 4.390625 -2.4375 C 4.390625 -2.789062 4.316406 -3.101562 4.171875 -3.375 C 4.035156 -3.644531 3.84375 -3.847656 3.59375 -3.984375 C 3.34375 -4.128906 3.054688 -4.203125 2.734375 -4.203125 C 2.410156 -4.203125 2.125 -4.128906 1.875 -3.984375 C 1.625 -3.847656 1.425781 -3.644531 1.28125 -3.375 C 1.144531 -3.101562 1.078125 -2.789062 1.078125 -2.4375 C 1.078125 -2.070312 1.144531 -1.753906 1.28125 -1.484375 C 1.425781 -1.210938 1.625 -1.003906 1.875 -0.859375 C 2.125 -0.710938 2.410156 -0.640625 2.734375 -0.640625 Z M 2.734375 -0.640625 "/></g></g></g><g fill="#545454" fill-opacity="1"><g transform="translate(81.664666, 42.56111)"><g><path d="M 1.3125 -0.640625 L 2.953125 -0.640625 L 2.953125 0 L 0.515625 0 L 0.515625 -4.84375 L 1.3125 -4.84375 Z M 1.3125 -0.640625 "/></g></g></g><g fill="#545454" fill-opacity="1"><g transform="translate(85.032468, 42.56111)"><g><path d="M 1.3125 -0.640625 L 2.953125 -0.640625 L 2.953125 0 L 0.515625 0 L 0.515625 -4.84375 L 1.3125 -4.84375 Z M 1.3125 -0.640625 "/></g></g></g><g fill="#545454" fill-opacity="1"><g transform="translate(88.400269, 42.56111)"><g><path d="M 3.4375 -0.984375 L 1.421875 -0.984375 L 1.0625 0 L 0.234375 0 L 1.96875 -4.84375 L 2.890625 -4.84375 L 4.625 0 L 3.796875 0 Z M 3.21875 -1.640625 L 2.4375 -3.890625 L 1.640625 -1.640625 Z M 3.21875 -1.640625 "/></g></g></g><g fill="#545454" fill-opacity="1"><g transform="translate(93.532161, 42.56111)"><g><path d="M 2.109375 -4.84375 C 2.617188 -4.84375 3.066406 -4.742188 3.453125 -4.546875 C 3.847656 -4.347656 4.148438 -4.0625 4.359375 -3.6875 C 4.566406 -3.320312 4.671875 -2.894531 4.671875 -2.40625 C 4.671875 -1.914062 4.566406 -1.488281 4.359375 -1.125 C 4.148438 -0.757812 3.847656 -0.476562 3.453125 -0.28125 C 3.066406 -0.09375 2.617188 0 2.109375 0 L 0.515625 0 L 0.515625 -4.84375 Z M 2.109375 -0.640625 C 2.671875 -0.640625 3.101562 -0.789062 3.40625 -1.09375 C 3.707031 -1.40625 3.859375 -1.84375 3.859375 -2.40625 C 3.859375 -2.96875 3.707031 -3.40625 3.40625 -3.71875 C 3.101562 -4.03125 2.671875 -4.1875 2.109375 -4.1875 L 1.3125 -4.1875 L 1.3125 -0.640625 Z M 2.109375 -0.640625 "/></g></g></g><g fill="#545454" fill-opacity="1"><g transform="translate(98.747723, 42.56111)"><g><path d="M 2.734375 0.046875 C 2.285156 0.046875 1.867188 -0.0546875 1.484375 -0.265625 C 1.109375 -0.472656 0.8125 -0.765625 0.59375 -1.140625 C 0.375 -1.523438 0.265625 -1.957031 0.265625 -2.4375 C 0.265625 -2.90625 0.375 -3.328125 0.59375 -3.703125 C 0.8125 -4.078125 1.109375 -4.367188 1.484375 -4.578125 C 1.867188 -4.796875 2.285156 -4.90625 2.734375 -4.90625 C 3.191406 -4.90625 3.609375 -4.796875 3.984375 -4.578125 C 4.359375 -4.367188 4.65625 -4.078125 4.875 -3.703125 C 5.09375 -3.328125 5.203125 -2.90625 5.203125 -2.4375 C 5.203125 -1.957031 5.09375 -1.523438 4.875 -1.140625 C 4.65625 -0.765625 4.359375 -0.472656 3.984375 -0.265625 C 3.609375 -0.0546875 3.191406 0.046875 2.734375 0.046875 Z M 2.734375 -0.640625 C 3.054688 -0.640625 3.34375 -0.710938 3.59375 -0.859375 C 3.84375 -1.003906 4.035156 -1.210938 4.171875 -1.484375 C 4.316406 -1.753906 4.390625 -2.070312 4.390625 -2.4375 C 4.390625 -2.789062 4.316406 -3.101562 4.171875 -3.375 C 4.035156 -3.644531 3.84375 -3.847656 3.59375 -3.984375 C 3.34375 -4.128906 3.054688 -4.203125 2.734375 -4.203125 C 2.410156 -4.203125 2.125 -4.128906 1.875 -3.984375 C 1.625 -3.847656 1.425781 -3.644531 1.28125 -3.375 C 1.144531 -3.101562 1.078125 -2.789062 1.078125 -2.4375 C 1.078125 -2.070312 1.144531 -1.753906 1.28125 -1.484375 C 1.425781 -1.210938 1.625 -1.003906 1.875 -0.859375 C 2.125 -0.710938 2.410156 -0.640625 2.734375 -0.640625 Z M 2.734375 -0.640625 "/></g></g></g><g fill="#545454" fill-opacity="1"><g transform="translate(104.486238, 42.56111)"><g><path d="M 3.03125 0 L 1.921875 -1.9375 L 1.3125 -1.9375 L 1.3125 0 L 0.515625 0 L 0.515625 -4.84375 L 2.1875 -4.84375 C 2.5625 -4.84375 2.878906 -4.773438 3.140625 -4.640625 C 3.398438 -4.515625 3.59375 -4.34375 3.71875 -4.125 C 3.84375 -3.90625 3.90625 -3.660156 3.90625 -3.390625 C 3.90625 -3.078125 3.8125 -2.789062 3.625 -2.53125 C 3.445312 -2.269531 3.164062 -2.09375 2.78125 -2 L 3.984375 0 Z M 1.3125 -2.578125 L 2.1875 -2.578125 C 2.488281 -2.578125 2.710938 -2.648438 2.859375 -2.796875 C 3.015625 -2.941406 3.09375 -3.140625 3.09375 -3.390625 C 3.09375 -3.640625 3.015625 -3.832031 2.859375 -3.96875 C 2.710938 -4.113281 2.488281 -4.1875 2.1875 -4.1875 L 1.3125 -4.1875 Z M 1.3125 -2.578125 "/></g></g></g><g fill="#545454" fill-opacity="1"><g transform="translate(109.16491, 42.56111)"><g/></g></g><g fill="#004aad" fill-opacity="1"><g transform="translate(111.255989, 42.56111)"><g><path d="M 6.828125 -4.84375 L 5.390625 0 L 4.5 0 L 3.484375 -3.671875 L 2.390625 0 L 1.5 0 L 0.125 -4.84375 L 0.96875 -4.84375 L 1.984375 -0.90625 L 3.0625 -4.84375 L 3.953125 -4.84375 L 4.96875 -0.921875 L 5.984375 -4.84375 Z M 6.828125 -4.84375 "/></g></g></g><g fill="#004aad" fill-opacity="1"><g transform="translate(118.493628, 42.56111)"><g><path d="M 1.3125 -4.203125 L 1.3125 -2.78125 L 2.984375 -2.78125 L 2.984375 -2.125 L 1.3125 -2.125 L 1.3125 -0.640625 L 3.203125 -0.640625 L 3.203125 0 L 0.515625 0 L 0.515625 -4.84375 L 3.203125 -4.84375 L 3.203125 -4.203125 Z M 1.3125 -4.203125 "/></g></g></g><g fill="#004aad" fill-opacity="1"><g transform="translate(122.419243, 42.56111)"><g><path d="M 3.109375 -2.484375 C 3.367188 -2.441406 3.585938 -2.304688 3.765625 -2.078125 C 3.953125 -1.847656 4.046875 -1.585938 4.046875 -1.296875 C 4.046875 -1.054688 3.984375 -0.835938 3.859375 -0.640625 C 3.734375 -0.441406 3.546875 -0.285156 3.296875 -0.171875 C 3.054688 -0.0546875 2.773438 0 2.453125 0 L 0.515625 0 L 0.515625 -4.84375 L 2.375 -4.84375 C 2.695312 -4.84375 2.976562 -4.785156 3.21875 -4.671875 C 3.457031 -4.566406 3.632812 -4.414062 3.75 -4.21875 C 3.875 -4.03125 3.9375 -3.820312 3.9375 -3.59375 C 3.9375 -3.3125 3.859375 -3.078125 3.703125 -2.890625 C 3.554688 -2.710938 3.359375 -2.578125 3.109375 -2.484375 Z M 1.3125 -2.8125 L 2.296875 -2.8125 C 2.554688 -2.8125 2.757812 -2.867188 2.90625 -2.984375 C 3.050781 -3.097656 3.125 -3.269531 3.125 -3.5 C 3.125 -3.71875 3.050781 -3.882812 2.90625 -4 C 2.757812 -4.125 2.554688 -4.1875 2.296875 -4.1875 L 1.3125 -4.1875 Z M 2.390625 -0.640625 C 2.660156 -0.640625 2.867188 -0.703125 3.015625 -0.828125 C 3.171875 -0.960938 3.25 -1.148438 3.25 -1.390625 C 3.25 -1.617188 3.164062 -1.800781 3 -1.9375 C 2.84375 -2.082031 2.628906 -2.15625 2.359375 -2.15625 L 1.3125 -2.15625 L 1.3125 -0.640625 Z M 2.390625 -0.640625 "/></g></g></g><g fill="#004aad" fill-opacity="1"><g transform="translate(47.812312, 33.153617)"><g><path d="M 14.453125 -12.15625 L 14.453125 0 L 12.015625 0 L 12.015625 -7.90625 L 8.765625 0 L 6.921875 0 L 3.640625 -7.90625 L 3.640625 0 L 1.203125 0 L 1.203125 -12.15625 L 3.96875 -12.15625 L 7.84375 -3.125 L 11.703125 -12.15625 Z M 14.453125 -12.15625 "/></g></g></g><g fill="#004aad" fill-opacity="1"><g transform="translate(63.479813, 33.153617)"><g><path d="M 5.484375 0.15625 C 4.554688 0.15625 3.71875 -0.046875 2.96875 -0.453125 C 2.226562 -0.867188 1.644531 -1.453125 1.21875 -2.203125 C 0.800781 -2.960938 0.59375 -3.835938 0.59375 -4.828125 C 0.59375 -5.816406 0.8125 -6.6875 1.25 -7.4375 C 1.6875 -8.195312 2.28125 -8.78125 3.03125 -9.1875 C 3.78125 -9.601562 4.625 -9.8125 5.5625 -9.8125 C 6.488281 -9.8125 7.328125 -9.601562 8.078125 -9.1875 C 8.835938 -8.78125 9.429688 -8.195312 9.859375 -7.4375 C 10.296875 -6.6875 10.515625 -5.816406 10.515625 -4.828125 C 10.515625 -3.835938 10.289062 -2.960938 9.84375 -2.203125 C 9.40625 -1.453125 8.804688 -0.867188 8.046875 -0.453125 C 7.285156 -0.046875 6.429688 0.15625 5.484375 0.15625 Z M 5.484375 -1.96875 C 5.929688 -1.96875 6.347656 -2.070312 6.734375 -2.28125 C 7.117188 -2.5 7.425781 -2.820312 7.65625 -3.25 C 7.894531 -3.6875 8.015625 -4.210938 8.015625 -4.828125 C 8.015625 -5.742188 7.769531 -6.445312 7.28125 -6.9375 C 6.800781 -7.4375 6.210938 -7.6875 5.515625 -7.6875 C 4.828125 -7.6875 4.242188 -7.4375 3.765625 -6.9375 C 3.296875 -6.445312 3.0625 -5.742188 3.0625 -4.828125 C 3.0625 -3.910156 3.289062 -3.203125 3.75 -2.703125 C 4.207031 -2.210938 4.785156 -1.96875 5.484375 -1.96875 Z M 5.484375 -1.96875 "/></g></g></g><g fill="#004aad" fill-opacity="1"><g transform="translate(74.598684, 33.153617)"><g><path d="M 3.640625 -8.15625 C 3.953125 -8.664062 4.359375 -9.066406 4.859375 -9.359375 C 5.367188 -9.648438 5.953125 -9.796875 6.609375 -9.796875 L 6.609375 -7.234375 L 5.953125 -7.234375 C 5.191406 -7.234375 4.613281 -7.050781 4.21875 -6.6875 C 3.832031 -6.332031 3.640625 -5.707031 3.640625 -4.8125 L 3.640625 0 L 1.203125 0 L 1.203125 -9.65625 L 3.640625 -9.65625 Z M 3.640625 -8.15625 "/></g></g></g><g fill="#004aad" fill-opacity="1"><g transform="translate(81.639482, 33.153617)"><g><path d="M 10.171875 -5.03125 C 10.171875 -4.6875 10.148438 -4.375 10.109375 -4.09375 L 3.046875 -4.09375 C 3.109375 -3.394531 3.351562 -2.847656 3.78125 -2.453125 C 4.207031 -2.054688 4.734375 -1.859375 5.359375 -1.859375 C 6.265625 -1.859375 6.910156 -2.25 7.296875 -3.03125 L 9.9375 -3.03125 C 9.65625 -2.101562 9.117188 -1.335938 8.328125 -0.734375 C 7.535156 -0.140625 6.566406 0.15625 5.421875 0.15625 C 4.492188 0.15625 3.660156 -0.046875 2.921875 -0.453125 C 2.179688 -0.867188 1.601562 -1.453125 1.1875 -2.203125 C 0.78125 -2.960938 0.578125 -3.835938 0.578125 -4.828125 C 0.578125 -5.828125 0.78125 -6.703125 1.1875 -7.453125 C 1.59375 -8.210938 2.160156 -8.796875 2.890625 -9.203125 C 3.617188 -9.609375 4.460938 -9.8125 5.421875 -9.8125 C 6.335938 -9.8125 7.15625 -9.613281 7.875 -9.21875 C 8.601562 -8.820312 9.164062 -8.257812 9.5625 -7.53125 C 9.96875 -6.8125 10.171875 -5.976562 10.171875 -5.03125 Z M 7.640625 -5.734375 C 7.628906 -6.359375 7.40625 -6.859375 6.96875 -7.234375 C 6.53125 -7.617188 5.988281 -7.8125 5.34375 -7.8125 C 4.738281 -7.8125 4.226562 -7.625 3.8125 -7.25 C 3.40625 -6.882812 3.15625 -6.378906 3.0625 -5.734375 Z M 7.640625 -5.734375 "/></g></g></g><g fill="#004aad" fill-opacity="1"><g transform="translate(92.392377, 33.153617)"><g><path d="M 6.546875 -9.796875 C 7.703125 -9.796875 8.632812 -9.429688 9.34375 -8.703125 C 10.050781 -7.972656 10.40625 -6.957031 10.40625 -5.65625 L 10.40625 0 L 7.96875 0 L 7.96875 -5.328125 C 7.96875 -6.097656 7.773438 -6.6875 7.390625 -7.09375 C 7.003906 -7.507812 6.476562 -7.71875 5.8125 -7.71875 C 5.144531 -7.71875 4.613281 -7.507812 4.21875 -7.09375 C 3.832031 -6.6875 3.640625 -6.097656 3.640625 -5.328125 L 3.640625 0 L 1.203125 0 L 1.203125 -9.65625 L 3.640625 -9.65625 L 3.640625 -8.453125 C 3.960938 -8.867188 4.375 -9.195312 4.875 -9.4375 C 5.382812 -9.675781 5.941406 -9.796875 6.546875 -9.796875 Z M 6.546875 -9.796875 "/></g></g></g><g fill="#004aad" fill-opacity="1"><g transform="translate(103.912085, 33.153617)"><g><path d="M 5.484375 0.15625 C 4.554688 0.15625 3.71875 -0.046875 2.96875 -0.453125 C 2.226562 -0.867188 1.644531 -1.453125 1.21875 -2.203125 C 0.800781 -2.960938 0.59375 -3.835938 0.59375 -4.828125 C 0.59375 -5.816406 0.8125 -6.6875 1.25 -7.4375 C 1.6875 -8.195312 2.28125 -8.78125 3.03125 -9.1875 C 3.78125 -9.601562 4.625 -9.8125 5.5625 -9.8125 C 6.488281 -9.8125 7.328125 -9.601562 8.078125 -9.1875 C 8.835938 -8.78125 9.429688 -8.195312 9.859375 -7.4375 C 10.296875 -6.6875 10.515625 -5.816406 10.515625 -4.828125 C 10.515625 -3.835938 10.289062 -2.960938 9.84375 -2.203125 C 9.40625 -1.453125 8.804688 -0.867188 8.046875 -0.453125 C 7.285156 -0.046875 6.429688 0.15625 5.484375 0.15625 Z M 5.484375 -1.96875 C 5.929688 -1.96875 6.347656 -2.070312 6.734375 -2.28125 C 7.117188 -2.5 7.425781 -2.820312 7.65625 -3.25 C 7.894531 -3.6875 8.015625 -4.210938 8.015625 -4.828125 C 8.015625 -5.742188 7.769531 -6.445312 7.28125 -6.9375 C 6.800781 -7.4375 6.210938 -7.6875 5.515625 -7.6875 C 4.828125 -7.6875 4.242188 -7.4375 3.765625 -6.9375 C 3.296875 -6.445312 3.0625 -5.742188 3.0625 -4.828125 C 3.0625 -3.910156 3.289062 -3.203125 3.75 -2.703125 C 4.207031 -2.210938 4.785156 -1.96875 5.484375 -1.96875 Z M 5.484375 -1.96875 "/></g></g></g></svg>