<svg xmlns="http://www.w3.org/2000/svg" xmlns:xlink="http://www.w3.org/1999/xlink" width="180" zoomAndPan="magnify" viewBox="0 0 135 44.999999" height="60" preserveAspectRatio="xMidYMid meet" version="1.0"><defs><g/><clipPath id="4a431bedd9"><path d="M 0.75 2.792969 L 42.75 2.792969 L 42.75 43.292969 L 0.75 43.292969 Z M 0.75 2.792969 " clip-rule="nonzero"/></clipPath></defs><path fill="#004aad" d="M 3.667969 5.714844 L 5.128906 5.714844 L 5.128906 7.171875 L 3.667969 7.171875 Z M 3.667969 5.714844 " fill-opacity="1" fill-rule="nonzero"/><path fill="#004aad" d="M 6.585938 5.714844 L 8.046875 5.714844 L 8.046875 7.171875 L 6.585938 7.171875 Z M 6.585938 5.714844 " fill-opacity="1" fill-rule="nonzero"/><path fill="#004aad" d="M 9.503906 5.714844 L 10.964844 5.714844 L 10.964844 7.171875 L 9.503906 7.171875 Z M 9.503906 5.714844 " fill-opacity="1" fill-rule="nonzero"/><g clip-path="url(#4a431bedd9)"><path fill="#004aad" d="M 40.148438 2.796875 L 3.667969 2.796875 C 3.28125 2.796875 2.910156 2.871094 2.550781 3.019531 C 2.195312 3.167969 1.878906 3.378906 1.605469 3.652344 C 1.332031 3.925781 1.121094 4.242188 0.972656 4.597656 C 0.824219 4.957031 0.75 5.328125 0.75 5.714844 L 0.75 34.898438 C 0.75 35.285156 0.824219 35.65625 0.972656 36.015625 C 1.121094 36.371094 1.332031 36.6875 1.605469 36.960938 C 1.878906 37.234375 2.195312 37.445312 2.550781 37.59375 C 2.910156 37.742188 3.28125 37.816406 3.667969 37.816406 L 16.53125 37.816406 L 16.132812 42.195312 L 13.882812 42.195312 L 13.882812 43.652344 L 29.933594 43.652344 L 29.933594 42.195312 L 27.683594 42.195312 L 27.285156 37.816406 L 40.148438 37.816406 C 40.535156 37.816406 40.90625 37.742188 41.265625 37.59375 C 41.621094 37.445312 41.9375 37.234375 42.210938 36.960938 C 42.484375 36.6875 42.695312 36.371094 42.84375 36.015625 C 42.992188 35.65625 43.066406 35.285156 43.066406 34.898438 L 43.066406 5.714844 C 43.066406 5.328125 42.992188 4.957031 42.84375 4.597656 C 42.695312 4.242188 42.484375 3.925781 42.210938 3.652344 C 41.9375 3.378906 41.621094 3.167969 41.265625 3.019531 C 40.90625 2.871094 40.535156 2.796875 40.148438 2.796875 Z M 3.667969 4.253906 L 40.148438 4.253906 C 40.339844 4.253906 40.527344 4.292969 40.707031 4.367188 C 40.886719 4.441406 41.042969 4.546875 41.179688 4.683594 C 41.316406 4.820312 41.421875 4.976562 41.496094 5.15625 C 41.570312 5.335938 41.605469 5.519531 41.605469 5.714844 L 41.605469 8.632812 L 2.210938 8.632812 L 2.210938 5.714844 C 2.210938 5.519531 2.246094 5.335938 2.320312 5.15625 C 2.394531 4.976562 2.5 4.820312 2.636719 4.683594 C 2.773438 4.546875 2.929688 4.441406 3.109375 4.367188 C 3.289062 4.292969 3.476562 4.253906 3.667969 4.253906 Z M 41.605469 10.089844 L 41.605469 30.519531 L 2.210938 30.519531 L 2.210938 10.089844 Z M 26.214844 42.195312 L 17.601562 42.195312 L 17.996094 37.816406 L 25.820312 37.816406 Z M 40.148438 36.355469 L 3.667969 36.355469 C 3.476562 36.355469 3.289062 36.320312 3.109375 36.246094 C 2.929688 36.171875 2.773438 36.066406 2.636719 35.929688 C 2.5 35.792969 2.394531 35.632812 2.320312 35.457031 C 2.246094 35.277344 2.210938 35.089844 2.210938 34.898438 L 2.210938 31.980469 L 41.605469 31.980469 L 41.605469 34.898438 C 41.605469 35.089844 41.570312 35.277344 41.496094 35.457031 C 41.421875 35.632812 41.316406 35.792969 41.179688 35.929688 C 41.042969 36.066406 40.886719 36.171875 40.707031 36.246094 C 40.527344 36.320312 40.339844 36.355469 40.148438 36.355469 Z M 40.148438 36.355469 " fill-opacity="1" fill-rule="nonzero"/></g><path fill="#004aad" d="M 21.179688 33.4375 L 22.636719 33.4375 L 22.636719 34.898438 L 21.179688 34.898438 Z M 21.179688 33.4375 " fill-opacity="1" fill-rule="nonzero"/><path fill="#004aad" d="M 4.398438 18.117188 L 5.855469 18.117188 L 5.855469 19.578125 L 4.398438 19.578125 Z M 4.398438 18.117188 " fill-opacity="1" fill-rule="nonzero"/><path fill="#004aad" d="M 7.316406 18.117188 L 18.261719 18.117188 L 18.261719 19.578125 L 7.316406 19.578125 Z M 7.316406 18.117188 " fill-opacity="1" fill-rule="nonzero"/><path fill="#004aad" d="M 4.398438 21.035156 L 5.855469 21.035156 L 5.855469 22.496094 L 4.398438 22.496094 Z M 4.398438 21.035156 " fill-opacity="1" fill-rule="nonzero"/><path fill="#004aad" d="M 7.316406 21.035156 L 26.285156 21.035156 L 26.285156 22.496094 L 7.316406 22.496094 Z M 7.316406 21.035156 " fill-opacity="1" fill-rule="nonzero"/><path fill="#004aad" d="M 4.398438 23.953125 L 5.855469 23.953125 L 5.855469 25.414062 L 4.398438 25.414062 Z M 4.398438 23.953125 " fill-opacity="1" fill-rule="nonzero"/><path fill="#004aad" d="M 7.316406 23.953125 L 21.179688 23.953125 L 21.179688 25.414062 L 7.316406 25.414062 Z M 7.316406 23.953125 " fill-opacity="1" fill-rule="nonzero"/><path fill="#004aad" d="M 4.398438 26.871094 L 5.855469 26.871094 L 5.855469 28.332031 L 4.398438 28.332031 Z M 4.398438 26.871094 " fill-opacity="1" fill-rule="nonzero"/><path fill="#004aad" d="M 7.316406 26.871094 L 28.472656 26.871094 L 28.472656 28.332031 L 7.316406 28.332031 Z M 7.316406 26.871094 " fill-opacity="1" fill-rule="nonzero"/><path fill="#004aad" d="M 4.613281 14.984375 L 6.070312 16.445312 L 7.101562 15.414062 L 6.160156 14.46875 L 7.101562 13.527344 L 6.070312 12.492188 L 4.613281 13.953125 C 4.46875 14.097656 4.398438 14.269531 4.398438 14.46875 C 4.398438 14.671875 4.46875 14.84375 4.613281 14.984375 Z M 4.613281 14.984375 " fill-opacity="1" fill-rule="nonzero"/><path fill="#004aad" d="M 11.90625 15.414062 L 12.9375 16.445312 L 14.398438 14.984375 C 14.542969 14.84375 14.613281 14.671875 14.613281 14.46875 C 14.613281 14.269531 14.542969 14.097656 14.398438 13.953125 L 12.9375 12.492188 L 11.90625 13.527344 L 12.851562 14.46875 Z M 11.90625 15.414062 " fill-opacity="1" fill-rule="nonzero"/><path fill="#004aad" d="M 8.082031 16.425781 L 9.542969 12.050781 L 10.925781 12.511719 L 9.46875 16.886719 Z M 8.082031 16.425781 " fill-opacity="1" fill-rule="nonzero"/><path fill="#004aad" d="M 27.746094 21.035156 L 32.121094 21.035156 L 32.121094 22.496094 L 27.746094 22.496094 Z M 27.746094 21.035156 " fill-opacity="1" fill-rule="nonzero"/><path fill="#004aad" d="M 29.933594 26.871094 L 31.394531 26.871094 L 31.394531 28.332031 L 29.933594 28.332031 Z M 29.933594 26.871094 " fill-opacity="1" fill-rule="nonzero"/><path fill="#004aad" d="M 32.851562 26.871094 L 34.3125 26.871094 L 34.3125 28.332031 L 32.851562 28.332031 Z M 32.851562 26.871094 " fill-opacity="1" fill-rule="nonzero"/><path fill="#004aad" d="M 19.71875 18.117188 L 21.179688 18.117188 L 21.179688 19.578125 L 19.71875 19.578125 Z M 19.71875 18.117188 " fill-opacity="1" fill-rule="nonzero"/><g fill="#004aad" fill-opacity="1"><g transform="translate(45.364031, 16.775439)"><g><path d="M 8.265625 -12.59375 C 8.609375 -12.59375 8.859375 -12.503906 9.015625 -12.328125 C 9.179688 -12.148438 9.265625 -11.921875 9.265625 -11.640625 C 9.265625 -11.367188 9.179688 -11.144531 9.015625 -10.96875 C 8.859375 -10.789062 8.609375 -10.703125 8.265625 -10.703125 L 3.328125 -10.703125 L 3.328125 -7.25 L 7.984375 -7.25 C 8.335938 -7.25 8.59375 -7.160156 8.75 -6.984375 C 8.914062 -6.804688 9 -6.578125 9 -6.296875 C 9 -6.023438 8.914062 -5.800781 8.75 -5.625 C 8.59375 -5.445312 8.335938 -5.359375 7.984375 -5.359375 L 3.328125 -5.359375 L 3.328125 -1.890625 L 8.4375 -1.890625 C 8.789062 -1.890625 9.046875 -1.796875 9.203125 -1.609375 C 9.367188 -1.429688 9.453125 -1.207031 9.453125 -0.9375 C 9.453125 -0.65625 9.367188 -0.425781 9.203125 -0.25 C 9.046875 -0.0820312 8.789062 0 8.4375 0 L 2.75 0 C 2.175781 0 1.769531 -0.113281 1.53125 -0.34375 C 1.289062 -0.582031 1.171875 -1.015625 1.171875 -1.640625 L 1.171875 -10.96875 C 1.171875 -11.582031 1.289062 -12.003906 1.53125 -12.234375 C 1.769531 -12.472656 2.175781 -12.59375 2.75 -12.59375 Z M 8.265625 -12.59375 "/></g></g></g><g fill="#004aad" fill-opacity="1"><g transform="translate(55.437497, 16.775439)"><g><path d="M 4.625 -7.015625 L 1.546875 -7.015625 C 1.203125 -7.015625 0.941406 -7.109375 0.765625 -7.296875 C 0.597656 -7.492188 0.515625 -7.734375 0.515625 -8.015625 C 0.515625 -8.285156 0.597656 -8.515625 0.765625 -8.703125 C 0.941406 -8.898438 1.203125 -9 1.546875 -9 L 7.078125 -9 C 7.617188 -9 7.890625 -8.769531 7.890625 -8.3125 C 7.890625 -8.15625 7.851562 -8.007812 7.78125 -7.875 C 7.71875 -7.75 7.609375 -7.578125 7.453125 -7.359375 L 3.78125 -1.984375 L 7.203125 -1.984375 C 7.546875 -1.984375 7.800781 -1.882812 7.96875 -1.6875 C 8.132812 -1.5 8.21875 -1.265625 8.21875 -0.984375 C 8.21875 -0.710938 8.132812 -0.476562 7.96875 -0.28125 C 7.800781 -0.09375 7.546875 0 7.203125 0 L 1.34375 0 C 0.8125 0 0.546875 -0.226562 0.546875 -0.6875 C 0.546875 -0.84375 0.578125 -0.984375 0.640625 -1.109375 C 0.703125 -1.242188 0.8125 -1.421875 0.96875 -1.640625 Z M 4.625 -7.015625 "/></g></g></g><g fill="#004aad" fill-opacity="1"><g transform="translate(64.017922, 16.775439)"><g><path d="M 5.703125 -1.703125 C 6.054688 -1.703125 6.359375 -1.734375 6.609375 -1.796875 C 6.867188 -1.859375 7.097656 -1.925781 7.296875 -2 C 7.492188 -2.070312 7.671875 -2.132812 7.828125 -2.1875 C 7.992188 -2.25 8.148438 -2.28125 8.296875 -2.28125 C 8.515625 -2.28125 8.695312 -2.210938 8.84375 -2.078125 C 9 -1.941406 9.078125 -1.753906 9.078125 -1.515625 C 9.078125 -1.179688 8.945312 -0.898438 8.6875 -0.671875 C 8.4375 -0.453125 8.128906 -0.28125 7.765625 -0.15625 C 7.410156 -0.03125 7.039062 0.0546875 6.65625 0.109375 C 6.269531 0.160156 5.953125 0.1875 5.703125 0.1875 C 5.003906 0.1875 4.359375 0.09375 3.765625 -0.09375 C 3.179688 -0.289062 2.675781 -0.582031 2.25 -0.96875 C 1.832031 -1.363281 1.503906 -1.851562 1.265625 -2.4375 C 1.023438 -3.03125 0.90625 -3.71875 0.90625 -4.5 C 0.90625 -5.207031 0.992188 -5.84375 1.171875 -6.40625 C 1.347656 -6.976562 1.617188 -7.472656 1.984375 -7.890625 C 2.347656 -8.304688 2.800781 -8.625 3.34375 -8.84375 C 3.882812 -9.070312 4.515625 -9.1875 5.234375 -9.1875 C 5.921875 -9.1875 6.519531 -9.078125 7.03125 -8.859375 C 7.539062 -8.648438 7.960938 -8.359375 8.296875 -7.984375 C 8.628906 -7.617188 8.878906 -7.1875 9.046875 -6.6875 C 9.222656 -6.195312 9.3125 -5.671875 9.3125 -5.109375 C 9.3125 -4.640625 9.1875 -4.28125 8.9375 -4.03125 C 8.6875 -3.789062 8.265625 -3.671875 7.671875 -3.671875 L 3.109375 -3.671875 C 3.242188 -2.972656 3.53125 -2.46875 3.96875 -2.15625 C 4.40625 -1.851562 4.984375 -1.703125 5.703125 -1.703125 Z M 5.234375 -7.296875 C 4.660156 -7.296875 4.203125 -7.140625 3.859375 -6.828125 C 3.523438 -6.523438 3.296875 -6.101562 3.171875 -5.5625 L 7.125 -5.5625 C 7.082031 -6.132812 6.894531 -6.566406 6.5625 -6.859375 C 6.238281 -7.148438 5.796875 -7.296875 5.234375 -7.296875 Z M 5.234375 -7.296875 "/></g></g></g><g fill="#004aad" fill-opacity="1"><g transform="translate(74.217296, 16.775439)"><g><path d="M 6.984375 -8.171875 C 6.984375 -8.492188 7.082031 -8.742188 7.28125 -8.921875 C 7.488281 -9.097656 7.75 -9.1875 8.0625 -9.1875 C 8.375 -9.1875 8.628906 -9.09375 8.828125 -8.90625 C 9.035156 -8.726562 9.140625 -8.453125 9.140625 -8.078125 L 9.140625 2.6875 C 9.140625 3.050781 9.035156 3.320312 8.828125 3.5 C 8.628906 3.6875 8.375 3.78125 8.0625 3.78125 C 7.75 3.78125 7.488281 3.6875 7.28125 3.5 C 7.082031 3.320312 6.984375 3.050781 6.984375 2.6875 L 6.984375 -1.078125 C 6.859375 -0.929688 6.710938 -0.78125 6.546875 -0.625 C 6.378906 -0.476562 6.1875 -0.34375 5.96875 -0.21875 C 5.757812 -0.101562 5.519531 -0.0078125 5.25 0.0625 C 4.988281 0.144531 4.703125 0.1875 4.390625 0.1875 C 3.898438 0.1875 3.441406 0.0976562 3.015625 -0.078125 C 2.585938 -0.265625 2.21875 -0.539062 1.90625 -0.90625 C 1.59375 -1.28125 1.347656 -1.753906 1.171875 -2.328125 C 0.992188 -2.898438 0.90625 -3.570312 0.90625 -4.34375 C 0.90625 -5.15625 0.992188 -5.863281 1.171875 -6.46875 C 1.359375 -7.070312 1.617188 -7.578125 1.953125 -7.984375 C 2.285156 -8.390625 2.6875 -8.691406 3.15625 -8.890625 C 3.625 -9.085938 4.140625 -9.1875 4.703125 -9.1875 C 5.117188 -9.1875 5.523438 -9.097656 5.921875 -8.921875 C 6.316406 -8.753906 6.671875 -8.503906 6.984375 -8.171875 Z M 6.984375 -5.609375 C 6.984375 -5.867188 6.925781 -6.097656 6.8125 -6.296875 C 6.695312 -6.503906 6.546875 -6.679688 6.359375 -6.828125 C 6.171875 -6.984375 5.960938 -7.097656 5.734375 -7.171875 C 5.515625 -7.253906 5.285156 -7.296875 5.046875 -7.296875 C 4.429688 -7.296875 3.945312 -7.035156 3.59375 -6.515625 C 3.238281 -5.992188 3.0625 -5.269531 3.0625 -4.34375 C 3.0625 -3.4375 3.226562 -2.769531 3.5625 -2.34375 C 3.894531 -1.914062 4.332031 -1.703125 4.875 -1.703125 C 5.476562 -1.703125 5.976562 -1.976562 6.375 -2.53125 C 6.78125 -3.082031 6.984375 -3.90625 6.984375 -5 Z M 6.984375 -5.609375 "/></g></g></g><g fill="#004aad" fill-opacity="1"><g transform="translate(84.5246, 16.775439)"><g><path d="M 6.640625 -1.109375 C 6.378906 -0.691406 6.035156 -0.367188 5.609375 -0.140625 C 5.191406 0.078125 4.71875 0.1875 4.1875 0.1875 C 3.257812 0.1875 2.523438 -0.0703125 1.984375 -0.59375 C 1.441406 -1.125 1.171875 -1.988281 1.171875 -3.1875 L 1.171875 -8.078125 C 1.171875 -8.453125 1.269531 -8.726562 1.46875 -8.90625 C 1.675781 -9.09375 1.9375 -9.1875 2.25 -9.1875 C 2.5625 -9.1875 2.816406 -9.09375 3.015625 -8.90625 C 3.222656 -8.726562 3.328125 -8.453125 3.328125 -8.078125 L 3.328125 -3.28125 C 3.328125 -2.738281 3.453125 -2.335938 3.703125 -2.078125 C 3.960938 -1.828125 4.300781 -1.703125 4.71875 -1.703125 C 5.289062 -1.703125 5.753906 -1.953125 6.109375 -2.453125 C 6.460938 -2.953125 6.640625 -3.664062 6.640625 -4.59375 L 6.640625 -8.078125 C 6.640625 -8.453125 6.738281 -8.726562 6.9375 -8.90625 C 7.144531 -9.09375 7.40625 -9.1875 7.71875 -9.1875 C 8.03125 -9.1875 8.285156 -9.09375 8.484375 -8.90625 C 8.691406 -8.726562 8.796875 -8.453125 8.796875 -8.078125 L 8.796875 -3.203125 C 8.796875 -2.796875 8.804688 -2.460938 8.828125 -2.203125 C 8.847656 -1.941406 8.875 -1.722656 8.90625 -1.546875 C 8.9375 -1.378906 8.957031 -1.234375 8.96875 -1.109375 C 8.988281 -0.984375 9 -0.847656 9 -0.703125 C 9 -0.460938 8.910156 -0.253906 8.734375 -0.078125 C 8.566406 0.0976562 8.304688 0.1875 7.953125 0.1875 C 7.566406 0.1875 7.269531 0.09375 7.0625 -0.09375 C 6.863281 -0.28125 6.722656 -0.617188 6.640625 -1.109375 Z M 6.640625 -1.109375 "/></g></g></g><g fill="#004aad" fill-opacity="1"><g transform="translate(94.490126, 16.775439)"><g><path d="M 1.34375 -11.515625 C 1.34375 -11.867188 1.46875 -12.164062 1.71875 -12.40625 C 1.96875 -12.65625 2.265625 -12.78125 2.609375 -12.78125 C 2.953125 -12.78125 3.25 -12.65625 3.5 -12.40625 C 3.75 -12.164062 3.875 -11.867188 3.875 -11.515625 C 3.875 -11.171875 3.75 -10.875 3.5 -10.625 C 3.25 -10.382812 2.953125 -10.265625 2.609375 -10.265625 C 2.265625 -10.265625 1.96875 -10.382812 1.71875 -10.625 C 1.46875 -10.875 1.34375 -11.171875 1.34375 -11.515625 Z M 2.140625 -9 C 2.453125 -9 2.707031 -8.976562 2.90625 -8.9375 C 3.113281 -8.894531 3.273438 -8.816406 3.390625 -8.703125 C 3.503906 -8.597656 3.582031 -8.453125 3.625 -8.265625 C 3.664062 -8.078125 3.6875 -7.84375 3.6875 -7.5625 L 3.6875 -0.921875 C 3.6875 -0.546875 3.582031 -0.265625 3.375 -0.078125 C 3.175781 0.0976562 2.921875 0.1875 2.609375 0.1875 C 2.296875 0.1875 2.035156 0.0976562 1.828125 -0.078125 C 1.628906 -0.265625 1.53125 -0.546875 1.53125 -0.921875 L 1.53125 -7.109375 L 1.28125 -7.109375 C 0.925781 -7.109375 0.664062 -7.191406 0.5 -7.359375 C 0.34375 -7.535156 0.265625 -7.765625 0.265625 -8.046875 C 0.265625 -8.316406 0.34375 -8.539062 0.5 -8.71875 C 0.664062 -8.90625 0.925781 -9 1.28125 -9 Z M 2.140625 -9 "/></g></g></g><g fill="#004aad" fill-opacity="1"><g transform="translate(99.346976, 16.775439)"><g><path d="M 5.703125 -1.703125 C 6.054688 -1.703125 6.359375 -1.734375 6.609375 -1.796875 C 6.867188 -1.859375 7.097656 -1.925781 7.296875 -2 C 7.492188 -2.070312 7.671875 -2.132812 7.828125 -2.1875 C 7.992188 -2.25 8.148438 -2.28125 8.296875 -2.28125 C 8.515625 -2.28125 8.695312 -2.210938 8.84375 -2.078125 C 9 -1.941406 9.078125 -1.753906 9.078125 -1.515625 C 9.078125 -1.179688 8.945312 -0.898438 8.6875 -0.671875 C 8.4375 -0.453125 8.128906 -0.28125 7.765625 -0.15625 C 7.410156 -0.03125 7.039062 0.0546875 6.65625 0.109375 C 6.269531 0.160156 5.953125 0.1875 5.703125 0.1875 C 5.003906 0.1875 4.359375 0.09375 3.765625 -0.09375 C 3.179688 -0.289062 2.675781 -0.582031 2.25 -0.96875 C 1.832031 -1.363281 1.503906 -1.851562 1.265625 -2.4375 C 1.023438 -3.03125 0.90625 -3.71875 0.90625 -4.5 C 0.90625 -5.207031 0.992188 -5.84375 1.171875 -6.40625 C 1.347656 -6.976562 1.617188 -7.472656 1.984375 -7.890625 C 2.347656 -8.304688 2.800781 -8.625 3.34375 -8.84375 C 3.882812 -9.070312 4.515625 -9.1875 5.234375 -9.1875 C 5.921875 -9.1875 6.519531 -9.078125 7.03125 -8.859375 C 7.539062 -8.648438 7.960938 -8.359375 8.296875 -7.984375 C 8.628906 -7.617188 8.878906 -7.1875 9.046875 -6.6875 C 9.222656 -6.195312 9.3125 -5.671875 9.3125 -5.109375 C 9.3125 -4.640625 9.1875 -4.28125 8.9375 -4.03125 C 8.6875 -3.789062 8.265625 -3.671875 7.671875 -3.671875 L 3.109375 -3.671875 C 3.242188 -2.972656 3.53125 -2.46875 3.96875 -2.15625 C 4.40625 -1.851562 4.984375 -1.703125 5.703125 -1.703125 Z M 5.234375 -7.296875 C 4.660156 -7.296875 4.203125 -7.140625 3.859375 -6.828125 C 3.523438 -6.523438 3.296875 -6.101562 3.171875 -5.5625 L 7.125 -5.5625 C 7.082031 -6.132812 6.894531 -6.566406 6.5625 -6.859375 C 6.238281 -7.148438 5.796875 -7.296875 5.234375 -7.296875 Z M 5.234375 -7.296875 "/></g></g></g><g fill="#004aad" fill-opacity="1"><g transform="translate(109.54635, 16.775439)"><g><path d="M 3.328125 -2.5625 C 3.328125 -2.289062 3.378906 -2.109375 3.484375 -2.015625 C 3.585938 -1.921875 3.695312 -1.875 3.8125 -1.875 C 3.90625 -1.875 3.984375 -1.882812 4.046875 -1.90625 C 4.117188 -1.925781 4.207031 -1.9375 4.3125 -1.9375 C 4.488281 -1.9375 4.625 -1.851562 4.71875 -1.6875 C 4.820312 -1.53125 4.875 -1.351562 4.875 -1.15625 C 4.875 -0.707031 4.734375 -0.367188 4.453125 -0.140625 C 4.171875 0.078125 3.773438 0.1875 3.265625 0.1875 C 2.972656 0.1875 2.695312 0.140625 2.4375 0.046875 C 2.175781 -0.046875 1.953125 -0.191406 1.765625 -0.390625 C 1.585938 -0.585938 1.441406 -0.84375 1.328125 -1.15625 C 1.222656 -1.476562 1.171875 -1.859375 1.171875 -2.296875 L 1.171875 -12.21875 C 1.171875 -12.59375 1.269531 -12.867188 1.46875 -13.046875 C 1.675781 -13.222656 1.9375 -13.3125 2.25 -13.3125 C 2.5625 -13.3125 2.816406 -13.222656 3.015625 -13.046875 C 3.222656 -12.867188 3.328125 -12.59375 3.328125 -12.21875 Z M 3.328125 -2.5625 "/></g></g></g><g fill="#545454" fill-opacity="1"><g transform="translate(46.114031, 42.232585)"><g><path d="M 0.359375 -6.296875 L 1.921875 -6.296875 C 2.421875 -6.296875 2.789062 -6.164062 3.03125 -5.90625 C 3.28125 -5.644531 3.40625 -5.257812 3.40625 -4.75 L 3.40625 -1.5625 C 3.40625 -1.050781 3.28125 -0.660156 3.03125 -0.390625 C 2.789062 -0.128906 2.421875 0 1.921875 0 L 0.359375 0 Z M 1.34375 -5.40625 L 1.34375 -0.90625 L 1.90625 -0.90625 C 2.0625 -0.90625 2.179688 -0.945312 2.265625 -1.03125 C 2.359375 -1.125 2.40625 -1.285156 2.40625 -1.515625 L 2.40625 -4.78125 C 2.40625 -5.007812 2.359375 -5.171875 2.265625 -5.265625 C 2.179688 -5.359375 2.0625 -5.40625 1.90625 -5.40625 Z M 1.34375 -5.40625 "/></g></g></g><g fill="#545454" fill-opacity="1"><g transform="translate(50.551062, 42.232585)"><g><path d="M 1.34375 -3.640625 L 2.703125 -3.640625 L 2.703125 -2.75 L 1.34375 -2.75 L 1.34375 -0.90625 L 3.0625 -0.90625 L 3.0625 0 L 0.359375 0 L 0.359375 -6.296875 L 3.0625 -6.296875 L 3.0625 -5.40625 L 1.34375 -5.40625 Z M 1.34375 -3.640625 "/></g></g></g><g fill="#545454" fill-opacity="1"><g transform="translate(54.628085, 42.232585)"><g><path d="M 0.234375 -4.78125 C 0.234375 -5.289062 0.351562 -5.679688 0.59375 -5.953125 C 0.84375 -6.234375 1.207031 -6.375 1.6875 -6.375 C 2.175781 -6.375 2.539062 -6.234375 2.78125 -5.953125 C 3.03125 -5.679688 3.15625 -5.289062 3.15625 -4.78125 L 3.15625 -4.546875 L 2.21875 -4.546875 L 2.21875 -4.84375 C 2.21875 -5.070312 2.171875 -5.234375 2.078125 -5.328125 C 1.992188 -5.421875 1.875 -5.46875 1.71875 -5.46875 C 1.5625 -5.46875 1.4375 -5.421875 1.34375 -5.328125 C 1.257812 -5.234375 1.21875 -5.070312 1.21875 -4.84375 C 1.21875 -4.632812 1.265625 -4.445312 1.359375 -4.28125 C 1.460938 -4.113281 1.582031 -3.957031 1.71875 -3.8125 C 1.863281 -3.664062 2.019531 -3.519531 2.1875 -3.375 C 2.351562 -3.226562 2.507812 -3.066406 2.65625 -2.890625 C 2.800781 -2.710938 2.921875 -2.515625 3.015625 -2.296875 C 3.109375 -2.078125 3.15625 -1.816406 3.15625 -1.515625 C 3.15625 -1.003906 3.03125 -0.609375 2.78125 -0.328125 C 2.53125 -0.0546875 2.164062 0.078125 1.6875 0.078125 C 1.195312 0.078125 0.828125 -0.0546875 0.578125 -0.328125 C 0.328125 -0.609375 0.203125 -1.003906 0.203125 -1.515625 L 0.203125 -1.9375 L 1.140625 -1.9375 L 1.140625 -1.453125 C 1.140625 -1.222656 1.1875 -1.0625 1.28125 -0.96875 C 1.375 -0.882812 1.5 -0.84375 1.65625 -0.84375 C 1.8125 -0.84375 1.9375 -0.882812 2.03125 -0.96875 C 2.125 -1.0625 2.171875 -1.222656 2.171875 -1.453125 C 2.171875 -1.660156 2.117188 -1.847656 2.015625 -2.015625 C 1.921875 -2.179688 1.800781 -2.335938 1.65625 -2.484375 C 1.519531 -2.628906 1.367188 -2.773438 1.203125 -2.921875 C 1.035156 -3.078125 0.878906 -3.238281 0.734375 -3.40625 C 0.585938 -3.582031 0.46875 -3.78125 0.375 -4 C 0.28125 -4.226562 0.234375 -4.488281 0.234375 -4.78125 Z M 0.234375 -4.78125 "/></g></g></g><g fill="#545454" fill-opacity="1"><g transform="translate(58.759112, 42.232585)"><g><path d="M 3.5625 0 L 2.5625 0 L 2.390625 -1.140625 L 1.171875 -1.140625 L 1.015625 0 L 0.09375 0 L 1.109375 -6.296875 L 2.5625 -6.296875 Z M 1.3125 -2 L 2.265625 -2 L 1.78125 -5.1875 Z M 1.3125 -2 "/></g></g></g><g fill="#545454" fill-opacity="1"><g transform="translate(63.187137, 42.232585)"><g><path d="M 2.4375 0 C 2.414062 -0.0390625 2.398438 -0.078125 2.390625 -0.109375 C 2.378906 -0.148438 2.367188 -0.195312 2.359375 -0.25 C 2.347656 -0.300781 2.34375 -0.367188 2.34375 -0.453125 C 2.34375 -0.535156 2.34375 -0.644531 2.34375 -0.78125 L 2.34375 -1.765625 C 2.34375 -2.054688 2.289062 -2.257812 2.1875 -2.375 C 2.082031 -2.5 1.914062 -2.5625 1.6875 -2.5625 L 1.34375 -2.5625 L 1.34375 0 L 0.359375 0 L 0.359375 -6.296875 L 1.859375 -6.296875 C 2.367188 -6.296875 2.738281 -6.175781 2.96875 -5.9375 C 3.207031 -5.695312 3.328125 -5.332031 3.328125 -4.84375 L 3.328125 -4.359375 C 3.328125 -3.710938 3.109375 -3.285156 2.671875 -3.078125 C 2.921875 -2.972656 3.09375 -2.804688 3.1875 -2.578125 C 3.28125 -2.347656 3.328125 -2.066406 3.328125 -1.734375 L 3.328125 -0.765625 C 3.328125 -0.609375 3.332031 -0.472656 3.34375 -0.359375 C 3.351562 -0.242188 3.382812 -0.125 3.4375 0 Z M 1.34375 -5.40625 L 1.34375 -3.46875 L 1.734375 -3.46875 C 1.921875 -3.46875 2.066406 -3.515625 2.171875 -3.609375 C 2.273438 -3.703125 2.328125 -3.875 2.328125 -4.125 L 2.328125 -4.75 C 2.328125 -4.976562 2.285156 -5.144531 2.203125 -5.25 C 2.128906 -5.351562 2.003906 -5.40625 1.828125 -5.40625 Z M 1.34375 -5.40625 "/></g></g></g><g fill="#545454" fill-opacity="1"><g transform="translate(67.570164, 42.232585)"><g><path d="M 2.4375 0 C 2.414062 -0.0390625 2.398438 -0.078125 2.390625 -0.109375 C 2.378906 -0.148438 2.367188 -0.195312 2.359375 -0.25 C 2.347656 -0.300781 2.34375 -0.367188 2.34375 -0.453125 C 2.34375 -0.535156 2.34375 -0.644531 2.34375 -0.78125 L 2.34375 -1.765625 C 2.34375 -2.054688 2.289062 -2.257812 2.1875 -2.375 C 2.082031 -2.5 1.914062 -2.5625 1.6875 -2.5625 L 1.34375 -2.5625 L 1.34375 0 L 0.359375 0 L 0.359375 -6.296875 L 1.859375 -6.296875 C 2.367188 -6.296875 2.738281 -6.175781 2.96875 -5.9375 C 3.207031 -5.695312 3.328125 -5.332031 3.328125 -4.84375 L 3.328125 -4.359375 C 3.328125 -3.710938 3.109375 -3.285156 2.671875 -3.078125 C 2.921875 -2.972656 3.09375 -2.804688 3.1875 -2.578125 C 3.28125 -2.347656 3.328125 -2.066406 3.328125 -1.734375 L 3.328125 -0.765625 C 3.328125 -0.609375 3.332031 -0.472656 3.34375 -0.359375 C 3.351562 -0.242188 3.382812 -0.125 3.4375 0 Z M 1.34375 -5.40625 L 1.34375 -3.46875 L 1.734375 -3.46875 C 1.921875 -3.46875 2.066406 -3.515625 2.171875 -3.609375 C 2.273438 -3.703125 2.328125 -3.875 2.328125 -4.125 L 2.328125 -4.75 C 2.328125 -4.976562 2.285156 -5.144531 2.203125 -5.25 C 2.128906 -5.351562 2.003906 -5.40625 1.828125 -5.40625 Z M 1.34375 -5.40625 "/></g></g></g><g fill="#545454" fill-opacity="1"><g transform="translate(71.953189, 42.232585)"><g><path d="M 1.265625 -1.453125 C 1.265625 -1.222656 1.3125 -1.0625 1.40625 -0.96875 C 1.5 -0.875 1.625 -0.828125 1.78125 -0.828125 C 1.9375 -0.828125 2.0625 -0.875 2.15625 -0.96875 C 2.25 -1.0625 2.296875 -1.222656 2.296875 -1.453125 L 2.296875 -4.84375 C 2.296875 -5.070312 2.25 -5.234375 2.15625 -5.328125 C 2.0625 -5.421875 1.9375 -5.46875 1.78125 -5.46875 C 1.625 -5.46875 1.5 -5.421875 1.40625 -5.328125 C 1.3125 -5.234375 1.265625 -5.070312 1.265625 -4.84375 Z M 0.28125 -4.78125 C 0.28125 -5.289062 0.40625 -5.679688 0.65625 -5.953125 C 0.914062 -6.234375 1.289062 -6.375 1.78125 -6.375 C 2.269531 -6.375 2.640625 -6.234375 2.890625 -5.953125 C 3.148438 -5.679688 3.28125 -5.289062 3.28125 -4.78125 L 3.28125 -1.515625 C 3.28125 -1.003906 3.148438 -0.609375 2.890625 -0.328125 C 2.640625 -0.0546875 2.269531 0.078125 1.78125 0.078125 C 1.289062 0.078125 0.914062 -0.0546875 0.65625 -0.328125 C 0.40625 -0.609375 0.28125 -1.003906 0.28125 -1.515625 Z M 0.28125 -4.78125 "/></g></g></g><g fill="#545454" fill-opacity="1"><g transform="translate(76.282211, 42.232585)"><g><path d="M 0.359375 -6.296875 L 1.34375 -6.296875 L 1.34375 -0.90625 L 2.984375 -0.90625 L 2.984375 0 L 0.359375 0 Z M 0.359375 -6.296875 "/></g></g></g><g fill="#545454" fill-opacity="1"><g transform="translate(80.116231, 42.232585)"><g><path d="M 0.359375 -6.296875 L 1.34375 -6.296875 L 1.34375 -0.90625 L 2.984375 -0.90625 L 2.984375 0 L 0.359375 0 Z M 0.359375 -6.296875 "/></g></g></g><g fill="#545454" fill-opacity="1"><g transform="translate(83.95025, 42.232585)"><g><path d="M 3.5625 0 L 2.5625 0 L 2.390625 -1.140625 L 1.171875 -1.140625 L 1.015625 0 L 0.09375 0 L 1.109375 -6.296875 L 2.5625 -6.296875 Z M 1.3125 -2 L 2.265625 -2 L 1.78125 -5.1875 Z M 1.3125 -2 "/></g></g></g><g fill="#545454" fill-opacity="1"><g transform="translate(88.378275, 42.232585)"><g><path d="M 0.359375 -6.296875 L 1.921875 -6.296875 C 2.421875 -6.296875 2.789062 -6.164062 3.03125 -5.90625 C 3.28125 -5.644531 3.40625 -5.257812 3.40625 -4.75 L 3.40625 -1.5625 C 3.40625 -1.050781 3.28125 -0.660156 3.03125 -0.390625 C 2.789062 -0.128906 2.421875 0 1.921875 0 L 0.359375 0 Z M 1.34375 -5.40625 L 1.34375 -0.90625 L 1.90625 -0.90625 C 2.0625 -0.90625 2.179688 -0.945312 2.265625 -1.03125 C 2.359375 -1.125 2.40625 -1.285156 2.40625 -1.515625 L 2.40625 -4.78125 C 2.40625 -5.007812 2.359375 -5.171875 2.265625 -5.265625 C 2.179688 -5.359375 2.0625 -5.40625 1.90625 -5.40625 Z M 1.34375 -5.40625 "/></g></g></g><g fill="#545454" fill-opacity="1"><g transform="translate(92.815306, 42.232585)"><g><path d="M 1.265625 -1.453125 C 1.265625 -1.222656 1.3125 -1.0625 1.40625 -0.96875 C 1.5 -0.875 1.625 -0.828125 1.78125 -0.828125 C 1.9375 -0.828125 2.0625 -0.875 2.15625 -0.96875 C 2.25 -1.0625 2.296875 -1.222656 2.296875 -1.453125 L 2.296875 -4.84375 C 2.296875 -5.070312 2.25 -5.234375 2.15625 -5.328125 C 2.0625 -5.421875 1.9375 -5.46875 1.78125 -5.46875 C 1.625 -5.46875 1.5 -5.421875 1.40625 -5.328125 C 1.3125 -5.234375 1.265625 -5.070312 1.265625 -4.84375 Z M 0.28125 -4.78125 C 0.28125 -5.289062 0.40625 -5.679688 0.65625 -5.953125 C 0.914062 -6.234375 1.289062 -6.375 1.78125 -6.375 C 2.269531 -6.375 2.640625 -6.234375 2.890625 -5.953125 C 3.148438 -5.679688 3.28125 -5.289062 3.28125 -4.78125 L 3.28125 -1.515625 C 3.28125 -1.003906 3.148438 -0.609375 2.890625 -0.328125 C 2.640625 -0.0546875 2.269531 0.078125 1.78125 0.078125 C 1.289062 0.078125 0.914062 -0.0546875 0.65625 -0.328125 C 0.40625 -0.609375 0.28125 -1.003906 0.28125 -1.515625 Z M 0.28125 -4.78125 "/></g></g></g><g fill="#545454" fill-opacity="1"><g transform="translate(97.144326, 42.232585)"><g><path d="M 2.4375 0 C 2.414062 -0.0390625 2.398438 -0.078125 2.390625 -0.109375 C 2.378906 -0.148438 2.367188 -0.195312 2.359375 -0.25 C 2.347656 -0.300781 2.34375 -0.367188 2.34375 -0.453125 C 2.34375 -0.535156 2.34375 -0.644531 2.34375 -0.78125 L 2.34375 -1.765625 C 2.34375 -2.054688 2.289062 -2.257812 2.1875 -2.375 C 2.082031 -2.5 1.914062 -2.5625 1.6875 -2.5625 L 1.34375 -2.5625 L 1.34375 0 L 0.359375 0 L 0.359375 -6.296875 L 1.859375 -6.296875 C 2.367188 -6.296875 2.738281 -6.175781 2.96875 -5.9375 C 3.207031 -5.695312 3.328125 -5.332031 3.328125 -4.84375 L 3.328125 -4.359375 C 3.328125 -3.710938 3.109375 -3.285156 2.671875 -3.078125 C 2.921875 -2.972656 3.09375 -2.804688 3.1875 -2.578125 C 3.28125 -2.347656 3.328125 -2.066406 3.328125 -1.734375 L 3.328125 -0.765625 C 3.328125 -0.609375 3.332031 -0.472656 3.34375 -0.359375 C 3.351562 -0.242188 3.382812 -0.125 3.4375 0 Z M 1.34375 -5.40625 L 1.34375 -3.46875 L 1.734375 -3.46875 C 1.921875 -3.46875 2.066406 -3.515625 2.171875 -3.609375 C 2.273438 -3.703125 2.328125 -3.875 2.328125 -4.125 L 2.328125 -4.75 C 2.328125 -4.976562 2.285156 -5.144531 2.203125 -5.25 C 2.128906 -5.351562 2.003906 -5.40625 1.828125 -5.40625 Z M 1.34375 -5.40625 "/></g></g></g><g fill="#004aad" fill-opacity="1"><g transform="translate(45.364031, 31.799873)"><g><path d="M 11.0625 -7.53125 L 8.5 -0.75 C 8.363281 -0.414062 8.210938 -0.175781 8.046875 -0.03125 C 7.878906 0.113281 7.632812 0.1875 7.3125 0.1875 C 6.988281 0.1875 6.738281 0.113281 6.5625 -0.03125 C 6.394531 -0.175781 6.25 -0.414062 6.125 -0.75 L 3.53125 -7.53125 L 3.203125 -0.953125 C 3.179688 -0.578125 3.070312 -0.289062 2.875 -0.09375 C 2.675781 0.09375 2.40625 0.1875 2.0625 0.1875 C 1.71875 0.1875 1.457031 0.09375 1.28125 -0.09375 C 1.101562 -0.289062 1.023438 -0.578125 1.046875 -0.953125 L 1.578125 -11.265625 C 1.609375 -11.785156 1.734375 -12.164062 1.953125 -12.40625 C 2.179688 -12.65625 2.484375 -12.78125 2.859375 -12.78125 C 3.503906 -12.78125 3.957031 -12.4375 4.21875 -11.75 L 7.3125 -3.640625 L 10.40625 -11.75 C 10.65625 -12.4375 11.101562 -12.78125 11.75 -12.78125 C 12.125 -12.78125 12.425781 -12.65625 12.65625 -12.40625 C 12.882812 -12.164062 13.007812 -11.785156 13.03125 -11.265625 L 13.578125 -0.953125 C 13.597656 -0.578125 13.515625 -0.289062 13.328125 -0.09375 C 13.148438 0.09375 12.890625 0.1875 12.546875 0.1875 C 12.210938 0.1875 11.945312 0.09375 11.75 -0.09375 C 11.550781 -0.289062 11.4375 -0.578125 11.40625 -0.953125 Z M 11.0625 -7.53125 "/></g></g></g><g fill="#004aad" fill-opacity="1"><g transform="translate(59.970547, 31.799873)"><g><path d="M 5.234375 0.1875 C 4.515625 0.1875 3.878906 0.078125 3.328125 -0.140625 C 2.785156 -0.367188 2.332031 -0.691406 1.96875 -1.109375 C 1.613281 -1.523438 1.347656 -2.019531 1.171875 -2.59375 C 0.992188 -3.164062 0.90625 -3.800781 0.90625 -4.5 C 0.90625 -5.207031 0.992188 -5.84375 1.171875 -6.40625 C 1.347656 -6.976562 1.613281 -7.472656 1.96875 -7.890625 C 2.332031 -8.304688 2.785156 -8.625 3.328125 -8.84375 C 3.878906 -9.070312 4.515625 -9.1875 5.234375 -9.1875 C 5.953125 -9.1875 6.582031 -9.070312 7.125 -8.84375 C 7.675781 -8.625 8.128906 -8.304688 8.484375 -7.890625 C 8.847656 -7.472656 9.117188 -6.976562 9.296875 -6.40625 C 9.484375 -5.84375 9.578125 -5.207031 9.578125 -4.5 C 9.578125 -3.800781 9.484375 -3.164062 9.296875 -2.59375 C 9.117188 -2.019531 8.847656 -1.523438 8.484375 -1.109375 C 8.128906 -0.691406 7.675781 -0.367188 7.125 -0.140625 C 6.582031 0.078125 5.953125 0.1875 5.234375 0.1875 Z M 5.234375 -7.296875 C 4.492188 -7.296875 3.945312 -7.039062 3.59375 -6.53125 C 3.238281 -6.03125 3.0625 -5.351562 3.0625 -4.5 C 3.0625 -3.644531 3.238281 -2.960938 3.59375 -2.453125 C 3.945312 -1.953125 4.492188 -1.703125 5.234375 -1.703125 C 5.984375 -1.703125 6.535156 -1.953125 6.890625 -2.453125 C 7.242188 -2.960938 7.421875 -3.644531 7.421875 -4.5 C 7.421875 -5.351562 7.242188 -6.03125 6.890625 -6.53125 C 6.535156 -7.039062 5.984375 -7.296875 5.234375 -7.296875 Z M 5.234375 -7.296875 "/></g></g></g><g fill="#004aad" fill-opacity="1"><g transform="translate(70.439751, 31.799873)"><g><path d="M 1.171875 -8.078125 C 1.171875 -8.453125 1.269531 -8.726562 1.46875 -8.90625 C 1.675781 -9.09375 1.9375 -9.1875 2.25 -9.1875 C 2.5625 -9.1875 2.816406 -9.09375 3.015625 -8.90625 C 3.222656 -8.726562 3.328125 -8.453125 3.328125 -8.078125 C 3.765625 -8.816406 4.351562 -9.1875 5.09375 -9.1875 C 5.40625 -9.1875 5.664062 -9.09375 5.875 -8.90625 C 6.082031 -8.726562 6.1875 -8.457031 6.1875 -8.09375 C 6.1875 -7.726562 6.101562 -7.457031 5.9375 -7.28125 C 5.78125 -7.101562 5.59375 -7.015625 5.375 -7.015625 C 5.28125 -7.015625 5.175781 -7.03125 5.0625 -7.0625 C 4.945312 -7.09375 4.804688 -7.109375 4.640625 -7.109375 C 4.140625 -7.109375 3.796875 -6.894531 3.609375 -6.46875 C 3.421875 -6.039062 3.328125 -5.453125 3.328125 -4.703125 L 3.328125 -0.921875 C 3.328125 -0.546875 3.222656 -0.265625 3.015625 -0.078125 C 2.816406 0.0976562 2.5625 0.1875 2.25 0.1875 C 1.9375 0.1875 1.675781 0.0976562 1.46875 -0.078125 C 1.269531 -0.265625 1.171875 -0.546875 1.171875 -0.921875 Z M 1.171875 -8.078125 "/></g></g></g><g fill="#004aad" fill-opacity="1"><g transform="translate(76.987499, 31.799873)"><g><path d="M 5.703125 -1.703125 C 6.054688 -1.703125 6.359375 -1.734375 6.609375 -1.796875 C 6.867188 -1.859375 7.097656 -1.925781 7.296875 -2 C 7.492188 -2.070312 7.671875 -2.132812 7.828125 -2.1875 C 7.992188 -2.25 8.148438 -2.28125 8.296875 -2.28125 C 8.515625 -2.28125 8.695312 -2.210938 8.84375 -2.078125 C 9 -1.941406 9.078125 -1.753906 9.078125 -1.515625 C 9.078125 -1.179688 8.945312 -0.898438 8.6875 -0.671875 C 8.4375 -0.453125 8.128906 -0.28125 7.765625 -0.15625 C 7.410156 -0.03125 7.039062 0.0546875 6.65625 0.109375 C 6.269531 0.160156 5.953125 0.1875 5.703125 0.1875 C 5.003906 0.1875 4.359375 0.09375 3.765625 -0.09375 C 3.179688 -0.289062 2.675781 -0.582031 2.25 -0.96875 C 1.832031 -1.363281 1.503906 -1.851562 1.265625 -2.4375 C 1.023438 -3.03125 0.90625 -3.71875 0.90625 -4.5 C 0.90625 -5.207031 0.992188 -5.84375 1.171875 -6.40625 C 1.347656 -6.976562 1.617188 -7.472656 1.984375 -7.890625 C 2.347656 -8.304688 2.800781 -8.625 3.34375 -8.84375 C 3.882812 -9.070312 4.515625 -9.1875 5.234375 -9.1875 C 5.921875 -9.1875 6.519531 -9.078125 7.03125 -8.859375 C 7.539062 -8.648438 7.960938 -8.359375 8.296875 -7.984375 C 8.628906 -7.617188 8.878906 -7.1875 9.046875 -6.6875 C 9.222656 -6.195312 9.3125 -5.671875 9.3125 -5.109375 C 9.3125 -4.640625 9.1875 -4.28125 8.9375 -4.03125 C 8.6875 -3.789062 8.265625 -3.671875 7.671875 -3.671875 L 3.109375 -3.671875 C 3.242188 -2.972656 3.53125 -2.46875 3.96875 -2.15625 C 4.40625 -1.851562 4.984375 -1.703125 5.703125 -1.703125 Z M 5.234375 -7.296875 C 4.660156 -7.296875 4.203125 -7.140625 3.859375 -6.828125 C 3.523438 -6.523438 3.296875 -6.101562 3.171875 -5.5625 L 7.125 -5.5625 C 7.082031 -6.132812 6.894531 -6.566406 6.5625 -6.859375 C 6.238281 -7.148438 5.796875 -7.296875 5.234375 -7.296875 Z M 5.234375 -7.296875 "/></g></g></g><g fill="#004aad" fill-opacity="1"><g transform="translate(87.186873, 31.799873)"><g><path d="M 3.328125 -0.921875 C 3.328125 -0.546875 3.222656 -0.265625 3.015625 -0.078125 C 2.816406 0.0976562 2.5625 0.1875 2.25 0.1875 C 1.9375 0.1875 1.675781 0.0976562 1.46875 -0.078125 C 1.269531 -0.265625 1.171875 -0.546875 1.171875 -0.921875 L 1.171875 -8.078125 C 1.171875 -8.453125 1.269531 -8.726562 1.46875 -8.90625 C 1.675781 -9.09375 1.9375 -9.1875 2.25 -9.1875 C 2.5625 -9.1875 2.816406 -9.09375 3.015625 -8.90625 C 3.222656 -8.71875 3.328125 -8.421875 3.328125 -8.015625 C 3.679688 -8.410156 4.066406 -8.703125 4.484375 -8.890625 C 4.898438 -9.085938 5.390625 -9.1875 5.953125 -9.1875 C 6.859375 -9.1875 7.554688 -8.914062 8.046875 -8.375 C 8.546875 -7.832031 8.796875 -6.984375 8.796875 -5.828125 L 8.796875 -0.921875 C 8.796875 -0.546875 8.691406 -0.265625 8.484375 -0.078125 C 8.285156 0.0976562 8.03125 0.1875 7.71875 0.1875 C 7.40625 0.1875 7.144531 0.0976562 6.9375 -0.078125 C 6.738281 -0.265625 6.640625 -0.546875 6.640625 -0.921875 L 6.640625 -5.78125 C 6.640625 -6.300781 6.503906 -6.679688 6.234375 -6.921875 C 5.972656 -7.171875 5.628906 -7.296875 5.203125 -7.296875 C 4.648438 -7.296875 4.195312 -7.054688 3.84375 -6.578125 C 3.5 -6.109375 3.328125 -5.347656 3.328125 -4.296875 Z M 3.328125 -0.921875 "/></g></g></g><g fill="#004aad" fill-opacity="1"><g transform="translate(97.152399, 31.799873)"><g><path d="M 5.234375 0.1875 C 4.515625 0.1875 3.878906 0.078125 3.328125 -0.140625 C 2.785156 -0.367188 2.332031 -0.691406 1.96875 -1.109375 C 1.613281 -1.523438 1.347656 -2.019531 1.171875 -2.59375 C 0.992188 -3.164062 0.90625 -3.800781 0.90625 -4.5 C 0.90625 -5.207031 0.992188 -5.84375 1.171875 -6.40625 C 1.347656 -6.976562 1.613281 -7.472656 1.96875 -7.890625 C 2.332031 -8.304688 2.785156 -8.625 3.328125 -8.84375 C 3.878906 -9.070312 4.515625 -9.1875 5.234375 -9.1875 C 5.953125 -9.1875 6.582031 -9.070312 7.125 -8.84375 C 7.675781 -8.625 8.128906 -8.304688 8.484375 -7.890625 C 8.847656 -7.472656 9.117188 -6.976562 9.296875 -6.40625 C 9.484375 -5.84375 9.578125 -5.207031 9.578125 -4.5 C 9.578125 -3.800781 9.484375 -3.164062 9.296875 -2.59375 C 9.117188 -2.019531 8.847656 -1.523438 8.484375 -1.109375 C 8.128906 -0.691406 7.675781 -0.367188 7.125 -0.140625 C 6.582031 0.078125 5.953125 0.1875 5.234375 0.1875 Z M 5.234375 -7.296875 C 4.492188 -7.296875 3.945312 -7.039062 3.59375 -6.53125 C 3.238281 -6.03125 3.0625 -5.351562 3.0625 -4.5 C 3.0625 -3.644531 3.238281 -2.960938 3.59375 -2.453125 C 3.945312 -1.953125 4.492188 -1.703125 5.234375 -1.703125 C 5.984375 -1.703125 6.535156 -1.953125 6.890625 -2.453125 C 7.242188 -2.960938 7.421875 -3.644531 7.421875 -4.5 C 7.421875 -5.351562 7.242188 -6.03125 6.890625 -6.53125 C 6.535156 -7.039062 5.984375 -7.296875 5.234375 -7.296875 Z M 5.234375 -7.296875 "/></g></g></g><g fill="#004aad" fill-opacity="1"><g transform="translate(102.441588, 42.149997)"><g><path d="M 2.5625 -3.359375 L 2.203125 0 L 0.84375 0 L 0.140625 -6.296875 L 1.09375 -6.296875 L 1.625 -1.328125 L 2.109375 -6.296875 L 3.0625 -6.296875 L 3.5625 -1.296875 L 4.0625 -6.296875 L 4.9375 -6.296875 L 4.234375 0 L 2.921875 0 Z M 2.5625 -3.359375 "/></g></g></g><g fill="#004aad" fill-opacity="1"><g transform="translate(108.273619, 42.149997)"><g><path d="M 1.34375 -3.640625 L 2.703125 -3.640625 L 2.703125 -2.75 L 1.34375 -2.75 L 1.34375 -0.90625 L 3.0625 -0.90625 L 3.0625 0 L 0.359375 0 L 0.359375 -6.296875 L 3.0625 -6.296875 L 3.0625 -5.40625 L 1.34375 -5.40625 Z M 1.34375 -3.640625 "/></g></g></g><g fill="#004aad" fill-opacity="1"><g transform="translate(112.350642, 42.149997)"><g><path d="M 1.859375 -6.296875 C 2.367188 -6.296875 2.738281 -6.175781 2.96875 -5.9375 C 3.207031 -5.695312 3.328125 -5.332031 3.328125 -4.84375 L 3.328125 -4.625 C 3.328125 -4.300781 3.273438 -4.035156 3.171875 -3.828125 C 3.066406 -3.617188 2.90625 -3.460938 2.6875 -3.359375 C 2.957031 -3.253906 3.144531 -3.085938 3.25 -2.859375 C 3.363281 -2.628906 3.421875 -2.34375 3.421875 -2 L 3.421875 -1.5 C 3.421875 -1.007812 3.289062 -0.632812 3.03125 -0.375 C 2.78125 -0.125 2.410156 0 1.921875 0 L 0.359375 0 L 0.359375 -6.296875 Z M 1.34375 -2.828125 L 1.34375 -0.90625 L 1.921875 -0.90625 C 2.085938 -0.90625 2.210938 -0.945312 2.296875 -1.03125 C 2.390625 -1.125 2.4375 -1.285156 2.4375 -1.515625 L 2.4375 -2.0625 C 2.4375 -2.363281 2.382812 -2.566406 2.28125 -2.671875 C 2.1875 -2.773438 2.023438 -2.828125 1.796875 -2.828125 Z M 1.34375 -5.40625 L 1.34375 -3.734375 L 1.734375 -3.734375 C 1.921875 -3.734375 2.066406 -3.78125 2.171875 -3.875 C 2.273438 -3.96875 2.328125 -4.144531 2.328125 -4.40625 L 2.328125 -4.75 C 2.328125 -4.976562 2.285156 -5.144531 2.203125 -5.25 C 2.128906 -5.351562 2.003906 -5.40625 1.828125 -5.40625 Z M 1.34375 -5.40625 "/></g></g></g></svg>