<svg xmlns="http://www.w3.org/2000/svg" xmlns:xlink="http://www.w3.org/1999/xlink" width="180" zoomAndPan="magnify" viewBox="0 0 135 44.999999" height="60" preserveAspectRatio="xMidYMid meet" version="1.0"><defs><g/><clipPath id="ca61041f80"><path d="M 0.75 7.328125 L 33.75 7.328125 L 33.75 38.828125 L 0.75 38.828125 Z M 0.75 7.328125 " clip-rule="nonzero"/></clipPath></defs><path fill="#004aad" d="M 3.019531 9.597656 L 4.152344 9.597656 L 4.152344 10.730469 L 3.019531 10.730469 Z M 3.019531 9.597656 " fill-opacity="1" fill-rule="nonzero"/><path fill="#004aad" d="M 5.289062 9.597656 L 6.421875 9.597656 L 6.421875 10.730469 L 5.289062 10.730469 Z M 5.289062 9.597656 " fill-opacity="1" fill-rule="nonzero"/><path fill="#004aad" d="M 7.554688 9.597656 L 8.691406 9.597656 L 8.691406 10.730469 L 7.554688 10.730469 Z M 7.554688 9.597656 " fill-opacity="1" fill-rule="nonzero"/><g clip-path="url(#ca61041f80)"><path fill="#004aad" d="M 31.375 7.328125 L 3.019531 7.328125 C 2.71875 7.328125 2.429688 7.386719 2.152344 7.5 C 1.875 7.617188 1.628906 7.78125 1.417969 7.992188 C 1.203125 8.207031 1.039062 8.449219 0.925781 8.730469 C 0.808594 9.007812 0.75 9.296875 0.75 9.597656 L 0.75 32.28125 C 0.75 32.582031 0.808594 32.871094 0.925781 33.148438 C 1.039062 33.425781 1.203125 33.671875 1.417969 33.882812 C 1.628906 34.097656 1.875 34.261719 2.152344 34.375 C 2.429688 34.492188 2.71875 34.546875 3.019531 34.550781 L 13.019531 34.550781 L 12.710938 37.953125 L 10.960938 37.953125 L 10.960938 39.085938 L 23.433594 39.085938 L 23.433594 37.953125 L 21.683594 37.953125 L 21.375 34.550781 L 31.375 34.550781 C 31.675781 34.546875 31.964844 34.492188 32.242188 34.375 C 32.519531 34.261719 32.765625 34.097656 32.976562 33.882812 C 33.191406 33.671875 33.355469 33.425781 33.46875 33.148438 C 33.585938 32.871094 33.644531 32.582031 33.644531 32.28125 L 33.644531 9.597656 C 33.644531 9.296875 33.585938 9.007812 33.46875 8.730469 C 33.355469 8.449219 33.191406 8.207031 32.976562 7.992188 C 32.765625 7.78125 32.519531 7.617188 32.242188 7.5 C 31.964844 7.386719 31.675781 7.328125 31.375 7.328125 Z M 3.019531 8.460938 L 31.375 8.460938 C 31.523438 8.460938 31.667969 8.492188 31.808594 8.546875 C 31.949219 8.605469 32.070312 8.6875 32.175781 8.792969 C 32.28125 8.902344 32.363281 9.023438 32.421875 9.164062 C 32.480469 9.300781 32.507812 9.445312 32.507812 9.597656 L 32.507812 11.863281 L 1.886719 11.863281 L 1.886719 9.597656 C 1.886719 9.445312 1.914062 9.300781 1.972656 9.164062 C 2.03125 9.023438 2.113281 8.902344 2.21875 8.792969 C 2.324219 8.6875 2.445312 8.605469 2.585938 8.546875 C 2.726562 8.492188 2.871094 8.460938 3.019531 8.460938 Z M 32.507812 13 L 32.507812 28.878906 L 1.886719 28.878906 L 1.886719 13 Z M 20.546875 37.953125 L 13.847656 37.953125 L 14.15625 34.550781 L 20.238281 34.550781 Z M 31.375 33.414062 L 3.019531 33.414062 C 2.871094 33.414062 2.726562 33.386719 2.585938 33.328125 C 2.445312 33.269531 2.324219 33.1875 2.21875 33.082031 C 2.113281 32.976562 2.03125 32.851562 1.972656 32.714844 C 1.914062 32.574219 1.886719 32.429688 1.886719 32.28125 L 1.886719 30.011719 L 32.507812 30.011719 L 32.507812 32.28125 C 32.507812 32.429688 32.480469 32.574219 32.421875 32.714844 C 32.363281 32.851562 32.28125 32.976562 32.175781 33.082031 C 32.070312 33.1875 31.949219 33.269531 31.808594 33.328125 C 31.667969 33.386719 31.523438 33.414062 31.375 33.414062 Z M 31.375 33.414062 " fill-opacity="1" fill-rule="nonzero"/></g><path fill="#004aad" d="M 16.628906 31.144531 L 17.765625 31.144531 L 17.765625 32.28125 L 16.628906 32.28125 Z M 16.628906 31.144531 " fill-opacity="1" fill-rule="nonzero"/><path fill="#004aad" d="M 3.585938 19.238281 L 4.722656 19.238281 L 4.722656 20.371094 L 3.585938 20.371094 Z M 3.585938 19.238281 " fill-opacity="1" fill-rule="nonzero"/><path fill="#004aad" d="M 5.855469 19.238281 L 14.363281 19.238281 L 14.363281 20.371094 L 5.855469 20.371094 Z M 5.855469 19.238281 " fill-opacity="1" fill-rule="nonzero"/><path fill="#004aad" d="M 3.585938 21.503906 L 4.722656 21.503906 L 4.722656 22.640625 L 3.585938 22.640625 Z M 3.585938 21.503906 " fill-opacity="1" fill-rule="nonzero"/><path fill="#004aad" d="M 5.855469 21.503906 L 20.601562 21.503906 L 20.601562 22.640625 L 5.855469 22.640625 Z M 5.855469 21.503906 " fill-opacity="1" fill-rule="nonzero"/><path fill="#004aad" d="M 3.585938 23.773438 L 4.722656 23.773438 L 4.722656 24.90625 L 3.585938 24.90625 Z M 3.585938 23.773438 " fill-opacity="1" fill-rule="nonzero"/><path fill="#004aad" d="M 5.855469 23.773438 L 16.628906 23.773438 L 16.628906 24.90625 L 5.855469 24.90625 Z M 5.855469 23.773438 " fill-opacity="1" fill-rule="nonzero"/><path fill="#004aad" d="M 3.585938 26.042969 L 4.722656 26.042969 L 4.722656 27.175781 L 3.585938 27.175781 Z M 3.585938 26.042969 " fill-opacity="1" fill-rule="nonzero"/><path fill="#004aad" d="M 5.855469 26.042969 L 22.300781 26.042969 L 22.300781 27.175781 L 5.855469 27.175781 Z M 5.855469 26.042969 " fill-opacity="1" fill-rule="nonzero"/><path fill="#004aad" d="M 3.753906 16.800781 L 4.886719 17.9375 L 5.6875 17.136719 L 4.957031 16.402344 L 5.6875 15.667969 L 4.886719 14.867188 L 3.753906 16 C 3.640625 16.109375 3.585938 16.246094 3.585938 16.402344 C 3.585938 16.558594 3.640625 16.691406 3.753906 16.800781 Z M 3.753906 16.800781 " fill-opacity="1" fill-rule="nonzero"/><path fill="#004aad" d="M 9.425781 17.136719 L 10.226562 17.9375 L 11.359375 16.800781 C 11.472656 16.691406 11.527344 16.558594 11.527344 16.402344 C 11.527344 16.246094 11.472656 16.109375 11.359375 16 L 10.226562 14.867188 L 9.425781 15.667969 L 10.15625 16.402344 Z M 9.425781 17.136719 " fill-opacity="1" fill-rule="nonzero"/><path fill="#004aad" d="M 6.453125 17.921875 L 7.585938 14.519531 L 8.660156 14.878906 L 7.527344 18.28125 Z M 6.453125 17.921875 " fill-opacity="1" fill-rule="nonzero"/><path fill="#004aad" d="M 21.734375 21.503906 L 25.136719 21.503906 L 25.136719 22.640625 L 21.734375 22.640625 Z M 21.734375 21.503906 " fill-opacity="1" fill-rule="nonzero"/><path fill="#004aad" d="M 23.433594 26.042969 L 24.570312 26.042969 L 24.570312 27.175781 L 23.433594 27.175781 Z M 23.433594 26.042969 " fill-opacity="1" fill-rule="nonzero"/><path fill="#004aad" d="M 25.703125 26.042969 L 26.839844 26.042969 L 26.839844 27.175781 L 25.703125 27.175781 Z M 25.703125 26.042969 " fill-opacity="1" fill-rule="nonzero"/><path fill="#004aad" d="M 15.496094 19.238281 L 16.628906 19.238281 L 16.628906 20.371094 L 15.496094 20.371094 Z M 15.496094 19.238281 " fill-opacity="1" fill-rule="nonzero"/><g fill="#004aad" fill-opacity="1"><g transform="translate(35.731468, 17.940498)"><g><path d="M 6.71875 -10.25 C 7 -10.25 7.207031 -10.175781 7.34375 -10.03125 C 7.476562 -9.882812 7.546875 -9.695312 7.546875 -9.46875 C 7.546875 -9.25 7.476562 -9.066406 7.34375 -8.921875 C 7.207031 -8.785156 7 -8.71875 6.71875 -8.71875 L 2.703125 -8.71875 L 2.703125 -5.90625 L 6.5 -5.90625 C 6.78125 -5.90625 6.984375 -5.828125 7.109375 -5.671875 C 7.242188 -5.523438 7.3125 -5.34375 7.3125 -5.125 C 7.3125 -4.894531 7.242188 -4.707031 7.109375 -4.5625 C 6.984375 -4.425781 6.78125 -4.359375 6.5 -4.359375 L 2.703125 -4.359375 L 2.703125 -1.53125 L 6.859375 -1.53125 C 7.148438 -1.53125 7.359375 -1.457031 7.484375 -1.3125 C 7.617188 -1.164062 7.6875 -0.984375 7.6875 -0.765625 C 7.6875 -0.535156 7.617188 -0.347656 7.484375 -0.203125 C 7.359375 -0.0664062 7.148438 0 6.859375 0 L 2.234375 0 C 1.765625 0 1.429688 -0.09375 1.234375 -0.28125 C 1.046875 -0.476562 0.953125 -0.828125 0.953125 -1.328125 L 0.953125 -8.921875 C 0.953125 -9.421875 1.046875 -9.765625 1.234375 -9.953125 C 1.429688 -10.148438 1.765625 -10.25 2.234375 -10.25 Z M 6.71875 -10.25 "/></g></g></g><g fill="#004aad" fill-opacity="1"><g transform="translate(43.926181, 17.940498)"><g><path d="M 3.765625 -5.703125 L 1.265625 -5.703125 C 0.972656 -5.703125 0.757812 -5.78125 0.625 -5.9375 C 0.488281 -6.09375 0.421875 -6.285156 0.421875 -6.515625 C 0.421875 -6.742188 0.488281 -6.929688 0.625 -7.078125 C 0.757812 -7.234375 0.972656 -7.3125 1.265625 -7.3125 L 5.75 -7.3125 C 6.1875 -7.3125 6.40625 -7.128906 6.40625 -6.765625 C 6.40625 -6.640625 6.378906 -6.519531 6.328125 -6.40625 C 6.273438 -6.300781 6.1875 -6.160156 6.0625 -5.984375 L 3.078125 -1.609375 L 5.859375 -1.609375 C 6.140625 -1.609375 6.347656 -1.53125 6.484375 -1.375 C 6.617188 -1.21875 6.6875 -1.03125 6.6875 -0.8125 C 6.6875 -0.582031 6.617188 -0.390625 6.484375 -0.234375 C 6.347656 -0.078125 6.140625 0 5.859375 0 L 1.09375 0 C 0.65625 0 0.4375 -0.1875 0.4375 -0.5625 C 0.4375 -0.6875 0.460938 -0.800781 0.515625 -0.90625 C 0.566406 -1.007812 0.660156 -1.148438 0.796875 -1.328125 Z M 3.765625 -5.703125 "/></g></g></g><g fill="#004aad" fill-opacity="1"><g transform="translate(50.906323, 17.940498)"><g><path d="M 4.640625 -1.390625 C 4.921875 -1.390625 5.164062 -1.410156 5.375 -1.453125 C 5.582031 -1.503906 5.765625 -1.5625 5.921875 -1.625 C 6.085938 -1.6875 6.238281 -1.738281 6.375 -1.78125 C 6.507812 -1.832031 6.632812 -1.859375 6.75 -1.859375 C 6.925781 -1.859375 7.070312 -1.800781 7.1875 -1.6875 C 7.3125 -1.570312 7.375 -1.421875 7.375 -1.234375 C 7.375 -0.953125 7.269531 -0.722656 7.0625 -0.546875 C 6.863281 -0.367188 6.617188 -0.226562 6.328125 -0.125 C 6.035156 -0.0195312 5.734375 0.046875 5.421875 0.078125 C 5.109375 0.117188 4.847656 0.140625 4.640625 0.140625 C 4.078125 0.140625 3.554688 0.0625 3.078125 -0.09375 C 2.597656 -0.25 2.179688 -0.484375 1.828125 -0.796875 C 1.484375 -1.117188 1.210938 -1.515625 1.015625 -1.984375 C 0.828125 -2.460938 0.734375 -3.019531 0.734375 -3.65625 C 0.734375 -4.238281 0.804688 -4.757812 0.953125 -5.21875 C 1.097656 -5.6875 1.316406 -6.085938 1.609375 -6.421875 C 1.910156 -6.753906 2.28125 -7.007812 2.71875 -7.1875 C 3.15625 -7.375 3.671875 -7.46875 4.265625 -7.46875 C 4.816406 -7.46875 5.300781 -7.378906 5.71875 -7.203125 C 6.132812 -7.035156 6.476562 -6.800781 6.75 -6.5 C 7.019531 -6.195312 7.222656 -5.84375 7.359375 -5.4375 C 7.492188 -5.039062 7.5625 -4.613281 7.5625 -4.15625 C 7.5625 -3.78125 7.460938 -3.488281 7.265625 -3.28125 C 7.066406 -3.082031 6.722656 -2.984375 6.234375 -2.984375 L 2.53125 -2.984375 C 2.632812 -2.421875 2.863281 -2.015625 3.21875 -1.765625 C 3.582031 -1.515625 4.054688 -1.390625 4.640625 -1.390625 Z M 4.265625 -5.921875 C 3.796875 -5.921875 3.421875 -5.796875 3.140625 -5.546875 C 2.867188 -5.304688 2.679688 -4.96875 2.578125 -4.53125 L 5.796875 -4.53125 C 5.753906 -5 5.601562 -5.347656 5.34375 -5.578125 C 5.082031 -5.804688 4.722656 -5.921875 4.265625 -5.921875 Z M 4.265625 -5.921875 "/></g></g></g><g fill="#004aad" fill-opacity="1"><g transform="translate(59.203473, 17.940498)"><g><path d="M 5.6875 -6.640625 C 5.6875 -6.910156 5.765625 -7.113281 5.921875 -7.25 C 6.085938 -7.394531 6.300781 -7.46875 6.5625 -7.46875 C 6.8125 -7.46875 7.019531 -7.394531 7.1875 -7.25 C 7.351562 -7.101562 7.4375 -6.878906 7.4375 -6.578125 L 7.4375 2.1875 C 7.4375 2.488281 7.351562 2.710938 7.1875 2.859375 C 7.019531 3.003906 6.8125 3.078125 6.5625 3.078125 C 6.300781 3.078125 6.085938 3.003906 5.921875 2.859375 C 5.765625 2.710938 5.6875 2.488281 5.6875 2.1875 L 5.6875 -0.875 C 5.582031 -0.757812 5.460938 -0.640625 5.328125 -0.515625 C 5.191406 -0.398438 5.035156 -0.289062 4.859375 -0.1875 C 4.679688 -0.09375 4.484375 -0.015625 4.265625 0.046875 C 4.054688 0.109375 3.828125 0.140625 3.578125 0.140625 C 3.171875 0.140625 2.796875 0.0664062 2.453125 -0.078125 C 2.109375 -0.222656 1.804688 -0.445312 1.546875 -0.75 C 1.296875 -1.050781 1.097656 -1.429688 0.953125 -1.890625 C 0.804688 -2.359375 0.734375 -2.90625 0.734375 -3.53125 C 0.734375 -4.195312 0.804688 -4.773438 0.953125 -5.265625 C 1.109375 -5.753906 1.316406 -6.160156 1.578125 -6.484375 C 1.847656 -6.816406 2.175781 -7.0625 2.5625 -7.21875 C 2.945312 -7.382812 3.367188 -7.46875 3.828125 -7.46875 C 4.160156 -7.46875 4.488281 -7.398438 4.8125 -7.265625 C 5.132812 -7.128906 5.425781 -6.921875 5.6875 -6.640625 Z M 5.6875 -4.5625 C 5.6875 -4.769531 5.640625 -4.957031 5.546875 -5.125 C 5.453125 -5.289062 5.328125 -5.429688 5.171875 -5.546875 C 5.023438 -5.671875 4.859375 -5.765625 4.671875 -5.828125 C 4.484375 -5.890625 4.289062 -5.921875 4.09375 -5.921875 C 3.601562 -5.921875 3.210938 -5.710938 2.921875 -5.296875 C 2.628906 -4.878906 2.484375 -4.289062 2.484375 -3.53125 C 2.484375 -2.800781 2.617188 -2.257812 2.890625 -1.90625 C 3.171875 -1.5625 3.53125 -1.390625 3.96875 -1.390625 C 4.457031 -1.390625 4.863281 -1.613281 5.1875 -2.0625 C 5.519531 -2.507812 5.6875 -3.175781 5.6875 -4.0625 Z M 5.6875 -4.5625 "/></g></g></g><g fill="#004aad" fill-opacity="1"><g transform="translate(67.58842, 17.940498)"><g><path d="M 5.40625 -0.90625 C 5.1875 -0.5625 4.90625 -0.300781 4.5625 -0.125 C 4.226562 0.0507812 3.84375 0.140625 3.40625 0.140625 C 2.644531 0.140625 2.046875 -0.0664062 1.609375 -0.484375 C 1.171875 -0.910156 0.953125 -1.613281 0.953125 -2.59375 L 0.953125 -6.578125 C 0.953125 -6.878906 1.035156 -7.101562 1.203125 -7.25 C 1.367188 -7.394531 1.578125 -7.46875 1.828125 -7.46875 C 2.078125 -7.46875 2.285156 -7.394531 2.453125 -7.25 C 2.617188 -7.101562 2.703125 -6.878906 2.703125 -6.578125 L 2.703125 -2.671875 C 2.703125 -2.222656 2.804688 -1.894531 3.015625 -1.6875 C 3.222656 -1.488281 3.492188 -1.390625 3.828125 -1.390625 C 4.296875 -1.390625 4.675781 -1.59375 4.96875 -2 C 5.257812 -2.40625 5.40625 -2.984375 5.40625 -3.734375 L 5.40625 -6.578125 C 5.40625 -6.878906 5.488281 -7.101562 5.65625 -7.25 C 5.820312 -7.394531 6.03125 -7.46875 6.28125 -7.46875 C 6.53125 -7.46875 6.738281 -7.394531 6.90625 -7.25 C 7.070312 -7.101562 7.15625 -6.878906 7.15625 -6.578125 L 7.15625 -2.609375 C 7.15625 -2.273438 7.160156 -2.003906 7.171875 -1.796875 C 7.191406 -1.585938 7.210938 -1.410156 7.234375 -1.265625 C 7.265625 -1.117188 7.285156 -0.992188 7.296875 -0.890625 C 7.304688 -0.796875 7.3125 -0.691406 7.3125 -0.578125 C 7.3125 -0.378906 7.238281 -0.207031 7.09375 -0.0625 C 6.957031 0.0703125 6.75 0.140625 6.46875 0.140625 C 6.15625 0.140625 5.914062 0.0664062 5.75 -0.078125 C 5.582031 -0.234375 5.46875 -0.507812 5.40625 -0.90625 Z M 5.40625 -0.90625 "/></g></g></g><g fill="#004aad" fill-opacity="1"><g transform="translate(75.695336, 17.940498)"><g><path d="M 1.09375 -9.375 C 1.09375 -9.65625 1.191406 -9.894531 1.390625 -10.09375 C 1.597656 -10.289062 1.84375 -10.390625 2.125 -10.390625 C 2.40625 -10.390625 2.644531 -10.289062 2.84375 -10.09375 C 3.039062 -9.894531 3.140625 -9.65625 3.140625 -9.375 C 3.140625 -9.09375 3.039062 -8.847656 2.84375 -8.640625 C 2.644531 -8.441406 2.40625 -8.34375 2.125 -8.34375 C 1.84375 -8.34375 1.597656 -8.441406 1.390625 -8.640625 C 1.191406 -8.847656 1.09375 -9.09375 1.09375 -9.375 Z M 1.75 -7.3125 C 2 -7.3125 2.207031 -7.296875 2.375 -7.265625 C 2.539062 -7.234375 2.671875 -7.171875 2.765625 -7.078125 C 2.859375 -6.992188 2.921875 -6.875 2.953125 -6.71875 C 2.984375 -6.570312 3 -6.382812 3 -6.15625 L 3 -0.75 C 3 -0.445312 2.914062 -0.222656 2.75 -0.078125 C 2.582031 0.0664062 2.375 0.140625 2.125 0.140625 C 1.875 0.140625 1.664062 0.0664062 1.5 -0.078125 C 1.332031 -0.222656 1.25 -0.445312 1.25 -0.75 L 1.25 -5.78125 L 1.046875 -5.78125 C 0.753906 -5.78125 0.539062 -5.847656 0.40625 -5.984375 C 0.28125 -6.128906 0.21875 -6.316406 0.21875 -6.546875 C 0.21875 -6.765625 0.28125 -6.945312 0.40625 -7.09375 C 0.539062 -7.238281 0.753906 -7.3125 1.046875 -7.3125 Z M 1.75 -7.3125 "/></g></g></g><g fill="#004aad" fill-opacity="1"><g transform="translate(79.646357, 17.940498)"><g><path d="M 4.640625 -1.390625 C 4.921875 -1.390625 5.164062 -1.410156 5.375 -1.453125 C 5.582031 -1.503906 5.765625 -1.5625 5.921875 -1.625 C 6.085938 -1.6875 6.238281 -1.738281 6.375 -1.78125 C 6.507812 -1.832031 6.632812 -1.859375 6.75 -1.859375 C 6.925781 -1.859375 7.070312 -1.800781 7.1875 -1.6875 C 7.3125 -1.570312 7.375 -1.421875 7.375 -1.234375 C 7.375 -0.953125 7.269531 -0.722656 7.0625 -0.546875 C 6.863281 -0.367188 6.617188 -0.226562 6.328125 -0.125 C 6.035156 -0.0195312 5.734375 0.046875 5.421875 0.078125 C 5.109375 0.117188 4.847656 0.140625 4.640625 0.140625 C 4.078125 0.140625 3.554688 0.0625 3.078125 -0.09375 C 2.597656 -0.25 2.179688 -0.484375 1.828125 -0.796875 C 1.484375 -1.117188 1.210938 -1.515625 1.015625 -1.984375 C 0.828125 -2.460938 0.734375 -3.019531 0.734375 -3.65625 C 0.734375 -4.238281 0.804688 -4.757812 0.953125 -5.21875 C 1.097656 -5.6875 1.316406 -6.085938 1.609375 -6.421875 C 1.910156 -6.753906 2.28125 -7.007812 2.71875 -7.1875 C 3.15625 -7.375 3.671875 -7.46875 4.265625 -7.46875 C 4.816406 -7.46875 5.300781 -7.378906 5.71875 -7.203125 C 6.132812 -7.035156 6.476562 -6.800781 6.75 -6.5 C 7.019531 -6.195312 7.222656 -5.84375 7.359375 -5.4375 C 7.492188 -5.039062 7.5625 -4.613281 7.5625 -4.15625 C 7.5625 -3.78125 7.460938 -3.488281 7.265625 -3.28125 C 7.066406 -3.082031 6.722656 -2.984375 6.234375 -2.984375 L 2.53125 -2.984375 C 2.632812 -2.421875 2.863281 -2.015625 3.21875 -1.765625 C 3.582031 -1.515625 4.054688 -1.390625 4.640625 -1.390625 Z M 4.265625 -5.921875 C 3.796875 -5.921875 3.421875 -5.796875 3.140625 -5.546875 C 2.867188 -5.304688 2.679688 -4.96875 2.578125 -4.53125 L 5.796875 -4.53125 C 5.753906 -5 5.601562 -5.347656 5.34375 -5.578125 C 5.082031 -5.804688 4.722656 -5.921875 4.265625 -5.921875 Z M 4.265625 -5.921875 "/></g></g></g><g fill="#004aad" fill-opacity="1"><g transform="translate(87.943507, 17.940498)"><g><path d="M 2.703125 -2.078125 C 2.703125 -1.859375 2.742188 -1.707031 2.828125 -1.625 C 2.910156 -1.550781 3.003906 -1.515625 3.109375 -1.515625 C 3.179688 -1.515625 3.242188 -1.523438 3.296875 -1.546875 C 3.347656 -1.566406 3.421875 -1.578125 3.515625 -1.578125 C 3.648438 -1.578125 3.757812 -1.507812 3.84375 -1.375 C 3.925781 -1.25 3.96875 -1.101562 3.96875 -0.9375 C 3.96875 -0.570312 3.851562 -0.300781 3.625 -0.125 C 3.394531 0.0507812 3.070312 0.140625 2.65625 0.140625 C 2.414062 0.140625 2.191406 0.101562 1.984375 0.03125 C 1.773438 -0.0390625 1.59375 -0.15625 1.4375 -0.3125 C 1.289062 -0.476562 1.171875 -0.6875 1.078125 -0.9375 C 0.992188 -1.195312 0.953125 -1.507812 0.953125 -1.875 L 0.953125 -9.9375 C 0.953125 -10.238281 1.035156 -10.460938 1.203125 -10.609375 C 1.367188 -10.753906 1.578125 -10.828125 1.828125 -10.828125 C 2.078125 -10.828125 2.285156 -10.753906 2.453125 -10.609375 C 2.617188 -10.460938 2.703125 -10.238281 2.703125 -9.9375 Z M 2.703125 -2.078125 "/></g></g></g><g fill="#545454" fill-opacity="1"><g transform="translate(35.731468, 37.803013)"><g><path d="M 1.53125 -3.515625 C 1.90625 -3.515625 2.234375 -3.441406 2.515625 -3.296875 C 2.796875 -3.160156 3.007812 -2.957031 3.15625 -2.6875 C 3.3125 -2.414062 3.390625 -2.101562 3.390625 -1.75 C 3.390625 -1.382812 3.3125 -1.070312 3.15625 -0.8125 C 3.007812 -0.550781 2.796875 -0.347656 2.515625 -0.203125 C 2.234375 -0.0664062 1.90625 0 1.53125 0 L 0.375 0 L 0.375 -3.515625 Z M 1.53125 -0.46875 C 1.9375 -0.46875 2.25 -0.578125 2.46875 -0.796875 C 2.6875 -1.023438 2.796875 -1.34375 2.796875 -1.75 C 2.796875 -2.15625 2.6875 -2.472656 2.46875 -2.703125 C 2.25 -2.929688 1.9375 -3.046875 1.53125 -3.046875 L 0.953125 -3.046875 L 0.953125 -0.46875 Z M 1.53125 -0.46875 "/></g></g></g><g fill="#545454" fill-opacity="1"><g transform="translate(39.77997, 37.803013)"><g><path d="M 0.953125 -3.046875 L 0.953125 -2.015625 L 2.171875 -2.015625 L 2.171875 -1.546875 L 0.953125 -1.546875 L 0.953125 -0.46875 L 2.328125 -0.46875 L 2.328125 0 L 0.375 0 L 0.375 -3.53125 L 2.328125 -3.53125 L 2.328125 -3.046875 Z M 0.953125 -3.046875 "/></g></g></g><g fill="#545454" fill-opacity="1"><g transform="translate(42.891083, 37.803013)"><g><path d="M 1.53125 0.03125 C 1.300781 0.03125 1.09375 -0.0078125 0.90625 -0.09375 C 0.71875 -0.175781 0.566406 -0.289062 0.453125 -0.4375 C 0.347656 -0.59375 0.296875 -0.769531 0.296875 -0.96875 L 0.90625 -0.96875 C 0.925781 -0.820312 0.988281 -0.695312 1.09375 -0.59375 C 1.195312 -0.5 1.34375 -0.453125 1.53125 -0.453125 C 1.738281 -0.453125 1.894531 -0.5 2 -0.59375 C 2.113281 -0.6875 2.171875 -0.8125 2.171875 -0.96875 C 2.171875 -1.082031 2.132812 -1.175781 2.0625 -1.25 C 2 -1.320312 1.914062 -1.378906 1.8125 -1.421875 C 1.707031 -1.460938 1.5625 -1.507812 1.375 -1.5625 C 1.144531 -1.625 0.957031 -1.6875 0.8125 -1.75 C 0.675781 -1.8125 0.554688 -1.90625 0.453125 -2.03125 C 0.347656 -2.164062 0.296875 -2.34375 0.296875 -2.5625 C 0.296875 -2.757812 0.347656 -2.9375 0.453125 -3.09375 C 0.554688 -3.25 0.695312 -3.363281 0.875 -3.4375 C 1.0625 -3.519531 1.273438 -3.5625 1.515625 -3.5625 C 1.859375 -3.5625 2.132812 -3.472656 2.34375 -3.296875 C 2.5625 -3.128906 2.6875 -2.898438 2.71875 -2.609375 L 2.078125 -2.609375 C 2.066406 -2.734375 2.003906 -2.84375 1.890625 -2.9375 C 1.773438 -3.03125 1.628906 -3.078125 1.453125 -3.078125 C 1.285156 -3.078125 1.148438 -3.03125 1.046875 -2.9375 C 0.941406 -2.851562 0.890625 -2.734375 0.890625 -2.578125 C 0.890625 -2.472656 0.921875 -2.382812 0.984375 -2.3125 C 1.054688 -2.25 1.140625 -2.195312 1.234375 -2.15625 C 1.335938 -2.113281 1.476562 -2.066406 1.65625 -2.015625 C 1.882812 -1.953125 2.070312 -1.890625 2.21875 -1.828125 C 2.363281 -1.765625 2.488281 -1.664062 2.59375 -1.53125 C 2.695312 -1.394531 2.75 -1.21875 2.75 -1 C 2.75 -0.820312 2.703125 -0.648438 2.609375 -0.484375 C 2.515625 -0.328125 2.375 -0.203125 2.1875 -0.109375 C 2 -0.015625 1.78125 0.03125 1.53125 0.03125 Z M 1.53125 0.03125 "/></g></g></g><g fill="#545454" fill-opacity="1"><g transform="translate(46.407553, 37.803013)"><g><path d="M 2.5 -0.71875 L 1.03125 -0.71875 L 0.78125 0 L 0.171875 0 L 1.4375 -3.53125 L 2.09375 -3.53125 L 3.359375 0 L 2.75 0 Z M 2.34375 -1.1875 L 1.765625 -2.828125 L 1.1875 -1.1875 Z M 2.34375 -1.1875 "/></g></g></g><g fill="#545454" fill-opacity="1"><g transform="translate(50.395254, 37.803013)"><g><path d="M 2.203125 0 L 1.390625 -1.40625 L 0.953125 -1.40625 L 0.953125 0 L 0.375 0 L 0.375 -3.515625 L 1.59375 -3.515625 C 1.863281 -3.515625 2.09375 -3.46875 2.28125 -3.375 C 2.46875 -3.28125 2.609375 -3.15625 2.703125 -3 C 2.796875 -2.84375 2.84375 -2.664062 2.84375 -2.46875 C 2.84375 -2.238281 2.773438 -2.03125 2.640625 -1.84375 C 2.503906 -1.65625 2.300781 -1.523438 2.03125 -1.453125 L 2.890625 0 Z M 0.953125 -1.875 L 1.59375 -1.875 C 1.8125 -1.875 1.972656 -1.925781 2.078125 -2.03125 C 2.191406 -2.132812 2.25 -2.28125 2.25 -2.46875 C 2.25 -2.644531 2.191406 -2.785156 2.078125 -2.890625 C 1.972656 -2.992188 1.8125 -3.046875 1.59375 -3.046875 L 0.953125 -3.046875 Z M 0.953125 -1.875 "/></g></g></g><g fill="#545454" fill-opacity="1"><g transform="translate(54.053605, 37.803013)"><g><path d="M 2.203125 0 L 1.390625 -1.40625 L 0.953125 -1.40625 L 0.953125 0 L 0.375 0 L 0.375 -3.515625 L 1.59375 -3.515625 C 1.863281 -3.515625 2.09375 -3.46875 2.28125 -3.375 C 2.46875 -3.28125 2.609375 -3.15625 2.703125 -3 C 2.796875 -2.84375 2.84375 -2.664062 2.84375 -2.46875 C 2.84375 -2.238281 2.773438 -2.03125 2.640625 -1.84375 C 2.503906 -1.65625 2.300781 -1.523438 2.03125 -1.453125 L 2.890625 0 Z M 0.953125 -1.875 L 1.59375 -1.875 C 1.8125 -1.875 1.972656 -1.925781 2.078125 -2.03125 C 2.191406 -2.132812 2.25 -2.28125 2.25 -2.46875 C 2.25 -2.644531 2.191406 -2.785156 2.078125 -2.890625 C 1.972656 -2.992188 1.8125 -3.046875 1.59375 -3.046875 L 0.953125 -3.046875 Z M 0.953125 -1.875 "/></g></g></g><g fill="#545454" fill-opacity="1"><g transform="translate(57.711956, 37.803013)"><g><path d="M 1.984375 0.03125 C 1.660156 0.03125 1.359375 -0.0390625 1.078125 -0.1875 C 0.804688 -0.34375 0.585938 -0.554688 0.421875 -0.828125 C 0.265625 -1.109375 0.1875 -1.421875 0.1875 -1.765625 C 0.1875 -2.109375 0.265625 -2.414062 0.421875 -2.6875 C 0.585938 -2.96875 0.804688 -3.179688 1.078125 -3.328125 C 1.359375 -3.484375 1.660156 -3.5625 1.984375 -3.5625 C 2.316406 -3.5625 2.617188 -3.484375 2.890625 -3.328125 C 3.171875 -3.179688 3.390625 -2.96875 3.546875 -2.6875 C 3.703125 -2.414062 3.78125 -2.109375 3.78125 -1.765625 C 3.78125 -1.421875 3.703125 -1.109375 3.546875 -0.828125 C 3.390625 -0.554688 3.171875 -0.34375 2.890625 -0.1875 C 2.617188 -0.0390625 2.316406 0.03125 1.984375 0.03125 Z M 1.984375 -0.46875 C 2.210938 -0.46875 2.414062 -0.519531 2.59375 -0.625 C 2.78125 -0.726562 2.925781 -0.878906 3.03125 -1.078125 C 3.132812 -1.273438 3.1875 -1.503906 3.1875 -1.765625 C 3.1875 -2.023438 3.132812 -2.253906 3.03125 -2.453125 C 2.925781 -2.648438 2.78125 -2.800781 2.59375 -2.90625 C 2.414062 -3.007812 2.210938 -3.0625 1.984375 -3.0625 C 1.753906 -3.0625 1.546875 -3.007812 1.359375 -2.90625 C 1.179688 -2.800781 1.039062 -2.648438 0.9375 -2.453125 C 0.832031 -2.253906 0.78125 -2.023438 0.78125 -1.765625 C 0.78125 -1.503906 0.832031 -1.273438 0.9375 -1.078125 C 1.039062 -0.878906 1.179688 -0.726562 1.359375 -0.625 C 1.546875 -0.519531 1.753906 -0.46875 1.984375 -0.46875 Z M 1.984375 -0.46875 "/></g></g></g><g fill="#545454" fill-opacity="1"><g transform="translate(62.140483, 37.803013)"><g><path d="M 0.953125 -0.46875 L 2.140625 -0.46875 L 2.140625 0 L 0.375 0 L 0.375 -3.515625 L 0.953125 -3.515625 Z M 0.953125 -0.46875 "/></g></g></g><g fill="#545454" fill-opacity="1"><g transform="translate(64.846239, 37.803013)"><g><path d="M 0.953125 -0.46875 L 2.140625 -0.46875 L 2.140625 0 L 0.375 0 L 0.375 -3.515625 L 0.953125 -3.515625 Z M 0.953125 -0.46875 "/></g></g></g><g fill="#545454" fill-opacity="1"><g transform="translate(67.551996, 37.803013)"><g><path d="M 2.5 -0.71875 L 1.03125 -0.71875 L 0.78125 0 L 0.171875 0 L 1.4375 -3.53125 L 2.09375 -3.53125 L 3.359375 0 L 2.75 0 Z M 2.34375 -1.1875 L 1.765625 -2.828125 L 1.1875 -1.1875 Z M 2.34375 -1.1875 "/></g></g></g><g fill="#545454" fill-opacity="1"><g transform="translate(71.539697, 37.803013)"><g><path d="M 1.53125 -3.515625 C 1.90625 -3.515625 2.234375 -3.441406 2.515625 -3.296875 C 2.796875 -3.160156 3.007812 -2.957031 3.15625 -2.6875 C 3.3125 -2.414062 3.390625 -2.101562 3.390625 -1.75 C 3.390625 -1.382812 3.3125 -1.070312 3.15625 -0.8125 C 3.007812 -0.550781 2.796875 -0.347656 2.515625 -0.203125 C 2.234375 -0.0664062 1.90625 0 1.53125 0 L 0.375 0 L 0.375 -3.515625 Z M 1.53125 -0.46875 C 1.9375 -0.46875 2.25 -0.578125 2.46875 -0.796875 C 2.6875 -1.023438 2.796875 -1.34375 2.796875 -1.75 C 2.796875 -2.15625 2.6875 -2.472656 2.46875 -2.703125 C 2.25 -2.929688 1.9375 -3.046875 1.53125 -3.046875 L 0.953125 -3.046875 L 0.953125 -0.46875 Z M 1.53125 -0.46875 "/></g></g></g><g fill="#545454" fill-opacity="1"><g transform="translate(75.5882, 37.803013)"><g><path d="M 1.984375 0.03125 C 1.660156 0.03125 1.359375 -0.0390625 1.078125 -0.1875 C 0.804688 -0.34375 0.585938 -0.554688 0.421875 -0.828125 C 0.265625 -1.109375 0.1875 -1.421875 0.1875 -1.765625 C 0.1875 -2.109375 0.265625 -2.414062 0.421875 -2.6875 C 0.585938 -2.96875 0.804688 -3.179688 1.078125 -3.328125 C 1.359375 -3.484375 1.660156 -3.5625 1.984375 -3.5625 C 2.316406 -3.5625 2.617188 -3.484375 2.890625 -3.328125 C 3.171875 -3.179688 3.390625 -2.96875 3.546875 -2.6875 C 3.703125 -2.414062 3.78125 -2.109375 3.78125 -1.765625 C 3.78125 -1.421875 3.703125 -1.109375 3.546875 -0.828125 C 3.390625 -0.554688 3.171875 -0.34375 2.890625 -0.1875 C 2.617188 -0.0390625 2.316406 0.03125 1.984375 0.03125 Z M 1.984375 -0.46875 C 2.210938 -0.46875 2.414062 -0.519531 2.59375 -0.625 C 2.78125 -0.726562 2.925781 -0.878906 3.03125 -1.078125 C 3.132812 -1.273438 3.1875 -1.503906 3.1875 -1.765625 C 3.1875 -2.023438 3.132812 -2.253906 3.03125 -2.453125 C 2.925781 -2.648438 2.78125 -2.800781 2.59375 -2.90625 C 2.414062 -3.007812 2.210938 -3.0625 1.984375 -3.0625 C 1.753906 -3.0625 1.546875 -3.007812 1.359375 -2.90625 C 1.179688 -2.800781 1.039062 -2.648438 0.9375 -2.453125 C 0.832031 -2.253906 0.78125 -2.023438 0.78125 -1.765625 C 0.78125 -1.503906 0.832031 -1.273438 0.9375 -1.078125 C 1.039062 -0.878906 1.179688 -0.726562 1.359375 -0.625 C 1.546875 -0.519531 1.753906 -0.46875 1.984375 -0.46875 Z M 1.984375 -0.46875 "/></g></g></g><g fill="#545454" fill-opacity="1"><g transform="translate(80.016727, 37.803013)"><g><path d="M 2.203125 0 L 1.390625 -1.40625 L 0.953125 -1.40625 L 0.953125 0 L 0.375 0 L 0.375 -3.515625 L 1.59375 -3.515625 C 1.863281 -3.515625 2.09375 -3.46875 2.28125 -3.375 C 2.46875 -3.28125 2.609375 -3.15625 2.703125 -3 C 2.796875 -2.84375 2.84375 -2.664062 2.84375 -2.46875 C 2.84375 -2.238281 2.773438 -2.03125 2.640625 -1.84375 C 2.503906 -1.65625 2.300781 -1.523438 2.03125 -1.453125 L 2.890625 0 Z M 0.953125 -1.875 L 1.59375 -1.875 C 1.8125 -1.875 1.972656 -1.925781 2.078125 -2.03125 C 2.191406 -2.132812 2.25 -2.28125 2.25 -2.46875 C 2.25 -2.644531 2.191406 -2.785156 2.078125 -2.890625 C 1.972656 -2.992188 1.8125 -3.046875 1.59375 -3.046875 L 0.953125 -3.046875 Z M 0.953125 -1.875 "/></g></g></g><g fill="#545454" fill-opacity="1"><g transform="translate(83.675078, 37.803013)"><g/></g></g><g fill="#004aad" fill-opacity="1"><g transform="translate(85.450735, 37.803013)"><g><path d="M 4.96875 -3.515625 L 3.921875 0 L 3.265625 0 L 2.53125 -2.65625 L 1.734375 0 L 1.09375 0 L 0.09375 -3.515625 L 0.703125 -3.515625 L 1.4375 -0.65625 L 2.234375 -3.515625 L 2.875 -3.515625 L 3.609375 -0.671875 L 4.34375 -3.515625 Z M 4.96875 -3.515625 "/></g></g></g><g fill="#004aad" fill-opacity="1"><g transform="translate(90.968659, 37.803013)"><g><path d="M 0.953125 -3.046875 L 0.953125 -2.015625 L 2.171875 -2.015625 L 2.171875 -1.546875 L 0.953125 -1.546875 L 0.953125 -0.46875 L 2.328125 -0.46875 L 2.328125 0 L 0.375 0 L 0.375 -3.53125 L 2.328125 -3.53125 L 2.328125 -3.046875 Z M 0.953125 -3.046875 "/></g></g></g><g fill="#004aad" fill-opacity="1"><g transform="translate(94.079772, 37.803013)"><g><path d="M 2.265625 -1.8125 C 2.453125 -1.769531 2.609375 -1.664062 2.734375 -1.5 C 2.867188 -1.34375 2.9375 -1.160156 2.9375 -0.953125 C 2.9375 -0.765625 2.890625 -0.597656 2.796875 -0.453125 C 2.703125 -0.316406 2.566406 -0.207031 2.390625 -0.125 C 2.222656 -0.0390625 2.019531 0 1.78125 0 L 0.375 0 L 0.375 -3.515625 L 1.71875 -3.515625 C 1.957031 -3.515625 2.160156 -3.472656 2.328125 -3.390625 C 2.503906 -3.316406 2.632812 -3.207031 2.71875 -3.0625 C 2.8125 -2.925781 2.859375 -2.773438 2.859375 -2.609375 C 2.859375 -2.410156 2.800781 -2.242188 2.6875 -2.109375 C 2.582031 -1.972656 2.441406 -1.875 2.265625 -1.8125 Z M 0.953125 -2.046875 L 1.671875 -2.046875 C 1.859375 -2.046875 2.003906 -2.085938 2.109375 -2.171875 C 2.210938 -2.253906 2.265625 -2.378906 2.265625 -2.546875 C 2.265625 -2.703125 2.210938 -2.820312 2.109375 -2.90625 C 2.003906 -3 1.859375 -3.046875 1.671875 -3.046875 L 0.953125 -3.046875 Z M 1.734375 -0.46875 C 1.929688 -0.46875 2.082031 -0.515625 2.1875 -0.609375 C 2.300781 -0.703125 2.359375 -0.832031 2.359375 -1 C 2.359375 -1.175781 2.300781 -1.3125 2.1875 -1.40625 C 2.070312 -1.507812 1.914062 -1.5625 1.71875 -1.5625 L 0.953125 -1.5625 L 0.953125 -0.46875 Z M 1.734375 -0.46875 "/></g></g></g><g fill="#004aad" fill-opacity="1"><g transform="translate(35.731468, 30.371899)"><g><path d="M 9 -6.125 L 6.90625 -0.609375 C 6.800781 -0.335938 6.679688 -0.144531 6.546875 -0.03125 C 6.410156 0.0820312 6.207031 0.140625 5.9375 0.140625 C 5.675781 0.140625 5.476562 0.0820312 5.34375 -0.03125 C 5.207031 -0.144531 5.085938 -0.335938 4.984375 -0.609375 L 2.875 -6.125 L 2.609375 -0.78125 C 2.585938 -0.476562 2.492188 -0.25 2.328125 -0.09375 C 2.171875 0.0625 1.957031 0.140625 1.6875 0.140625 C 1.40625 0.140625 1.1875 0.0625 1.03125 -0.09375 C 0.882812 -0.25 0.820312 -0.476562 0.84375 -0.78125 L 1.28125 -9.171875 C 1.300781 -9.585938 1.40625 -9.894531 1.59375 -10.09375 C 1.78125 -10.289062 2.023438 -10.390625 2.328125 -10.390625 C 2.859375 -10.390625 3.222656 -10.113281 3.421875 -9.5625 L 5.9375 -2.953125 L 8.46875 -9.5625 C 8.664062 -10.113281 9.03125 -10.390625 9.5625 -10.390625 C 9.863281 -10.390625 10.109375 -10.289062 10.296875 -10.09375 C 10.484375 -9.894531 10.582031 -9.585938 10.59375 -9.171875 L 11.03125 -0.78125 C 11.050781 -0.476562 10.988281 -0.25 10.84375 -0.09375 C 10.695312 0.0625 10.484375 0.140625 10.203125 0.140625 C 9.929688 0.140625 9.710938 0.0625 9.546875 -0.09375 C 9.390625 -0.25 9.300781 -0.476562 9.28125 -0.78125 Z M 9 -6.125 "/></g></g></g><g fill="#004aad" fill-opacity="1"><g transform="translate(47.613803, 30.371899)"><g><path d="M 4.265625 0.140625 C 3.671875 0.140625 3.148438 0.0507812 2.703125 -0.125 C 2.265625 -0.300781 1.898438 -0.554688 1.609375 -0.890625 C 1.316406 -1.234375 1.097656 -1.640625 0.953125 -2.109375 C 0.804688 -2.578125 0.734375 -3.09375 0.734375 -3.65625 C 0.734375 -4.238281 0.804688 -4.757812 0.953125 -5.21875 C 1.097656 -5.6875 1.316406 -6.085938 1.609375 -6.421875 C 1.898438 -6.753906 2.265625 -7.007812 2.703125 -7.1875 C 3.148438 -7.375 3.671875 -7.46875 4.265625 -7.46875 C 4.847656 -7.46875 5.359375 -7.375 5.796875 -7.1875 C 6.242188 -7.007812 6.613281 -6.753906 6.90625 -6.421875 C 7.195312 -6.085938 7.414062 -5.6875 7.5625 -5.21875 C 7.707031 -4.757812 7.78125 -4.238281 7.78125 -3.65625 C 7.78125 -3.09375 7.707031 -2.578125 7.5625 -2.109375 C 7.414062 -1.640625 7.195312 -1.234375 6.90625 -0.890625 C 6.613281 -0.554688 6.242188 -0.300781 5.796875 -0.125 C 5.359375 0.0507812 4.847656 0.140625 4.265625 0.140625 Z M 4.265625 -5.921875 C 3.660156 -5.921875 3.210938 -5.71875 2.921875 -5.3125 C 2.628906 -4.90625 2.484375 -4.351562 2.484375 -3.65625 C 2.484375 -2.96875 2.628906 -2.414062 2.921875 -2 C 3.210938 -1.59375 3.660156 -1.390625 4.265625 -1.390625 C 4.867188 -1.390625 5.3125 -1.59375 5.59375 -2 C 5.882812 -2.414062 6.03125 -2.96875 6.03125 -3.65625 C 6.03125 -4.351562 5.882812 -4.90625 5.59375 -5.3125 C 5.3125 -5.71875 4.867188 -5.921875 4.265625 -5.921875 Z M 4.265625 -5.921875 "/></g></g></g><g fill="#004aad" fill-opacity="1"><g transform="translate(56.13045, 30.371899)"><g><path d="M 0.953125 -6.578125 C 0.953125 -6.878906 1.035156 -7.101562 1.203125 -7.25 C 1.367188 -7.394531 1.578125 -7.46875 1.828125 -7.46875 C 2.078125 -7.46875 2.285156 -7.394531 2.453125 -7.25 C 2.617188 -7.101562 2.703125 -6.878906 2.703125 -6.578125 C 3.054688 -7.171875 3.535156 -7.46875 4.140625 -7.46875 C 4.398438 -7.46875 4.613281 -7.394531 4.78125 -7.25 C 4.945312 -7.101562 5.03125 -6.882812 5.03125 -6.59375 C 5.03125 -6.289062 4.960938 -6.066406 4.828125 -5.921875 C 4.703125 -5.773438 4.550781 -5.703125 4.375 -5.703125 C 4.300781 -5.703125 4.21875 -5.710938 4.125 -5.734375 C 4.03125 -5.765625 3.914062 -5.78125 3.78125 -5.78125 C 3.363281 -5.78125 3.078125 -5.609375 2.921875 -5.265625 C 2.773438 -4.921875 2.703125 -4.441406 2.703125 -3.828125 L 2.703125 -0.75 C 2.703125 -0.445312 2.617188 -0.222656 2.453125 -0.078125 C 2.285156 0.0664062 2.078125 0.140625 1.828125 0.140625 C 1.578125 0.140625 1.367188 0.0664062 1.203125 -0.078125 C 1.035156 -0.222656 0.953125 -0.445312 0.953125 -0.75 Z M 0.953125 -6.578125 "/></g></g></g><g fill="#004aad" fill-opacity="1"><g transform="translate(61.457013, 30.371899)"><g><path d="M 4.640625 -1.390625 C 4.921875 -1.390625 5.164062 -1.410156 5.375 -1.453125 C 5.582031 -1.503906 5.765625 -1.5625 5.921875 -1.625 C 6.085938 -1.6875 6.238281 -1.738281 6.375 -1.78125 C 6.507812 -1.832031 6.632812 -1.859375 6.75 -1.859375 C 6.925781 -1.859375 7.070312 -1.800781 7.1875 -1.6875 C 7.3125 -1.570312 7.375 -1.421875 7.375 -1.234375 C 7.375 -0.953125 7.269531 -0.722656 7.0625 -0.546875 C 6.863281 -0.367188 6.617188 -0.226562 6.328125 -0.125 C 6.035156 -0.0195312 5.734375 0.046875 5.421875 0.078125 C 5.109375 0.117188 4.847656 0.140625 4.640625 0.140625 C 4.078125 0.140625 3.554688 0.0625 3.078125 -0.09375 C 2.597656 -0.25 2.179688 -0.484375 1.828125 -0.796875 C 1.484375 -1.117188 1.210938 -1.515625 1.015625 -1.984375 C 0.828125 -2.460938 0.734375 -3.019531 0.734375 -3.65625 C 0.734375 -4.238281 0.804688 -4.757812 0.953125 -5.21875 C 1.097656 -5.6875 1.316406 -6.085938 1.609375 -6.421875 C 1.910156 -6.753906 2.28125 -7.007812 2.71875 -7.1875 C 3.15625 -7.375 3.671875 -7.46875 4.265625 -7.46875 C 4.816406 -7.46875 5.300781 -7.378906 5.71875 -7.203125 C 6.132812 -7.035156 6.476562 -6.800781 6.75 -6.5 C 7.019531 -6.195312 7.222656 -5.84375 7.359375 -5.4375 C 7.492188 -5.039062 7.5625 -4.613281 7.5625 -4.15625 C 7.5625 -3.78125 7.460938 -3.488281 7.265625 -3.28125 C 7.066406 -3.082031 6.722656 -2.984375 6.234375 -2.984375 L 2.53125 -2.984375 C 2.632812 -2.421875 2.863281 -2.015625 3.21875 -1.765625 C 3.582031 -1.515625 4.054688 -1.390625 4.640625 -1.390625 Z M 4.265625 -5.921875 C 3.796875 -5.921875 3.421875 -5.796875 3.140625 -5.546875 C 2.867188 -5.304688 2.679688 -4.96875 2.578125 -4.53125 L 5.796875 -4.53125 C 5.753906 -5 5.601562 -5.347656 5.34375 -5.578125 C 5.082031 -5.804688 4.722656 -5.921875 4.265625 -5.921875 Z M 4.265625 -5.921875 "/></g></g></g><g fill="#004aad" fill-opacity="1"><g transform="translate(69.754162, 30.371899)"><g><path d="M 2.703125 -0.75 C 2.703125 -0.445312 2.617188 -0.222656 2.453125 -0.078125 C 2.285156 0.0664062 2.078125 0.140625 1.828125 0.140625 C 1.578125 0.140625 1.367188 0.0664062 1.203125 -0.078125 C 1.035156 -0.222656 0.953125 -0.445312 0.953125 -0.75 L 0.953125 -6.578125 C 0.953125 -6.878906 1.035156 -7.101562 1.203125 -7.25 C 1.367188 -7.394531 1.578125 -7.46875 1.828125 -7.46875 C 2.078125 -7.46875 2.285156 -7.390625 2.453125 -7.234375 C 2.617188 -7.085938 2.703125 -6.847656 2.703125 -6.515625 C 2.992188 -6.835938 3.304688 -7.078125 3.640625 -7.234375 C 3.984375 -7.390625 4.382812 -7.46875 4.84375 -7.46875 C 5.570312 -7.46875 6.140625 -7.25 6.546875 -6.8125 C 6.953125 -6.375 7.15625 -5.6875 7.15625 -4.75 L 7.15625 -0.75 C 7.15625 -0.445312 7.070312 -0.222656 6.90625 -0.078125 C 6.738281 0.0664062 6.53125 0.140625 6.28125 0.140625 C 6.03125 0.140625 5.820312 0.0664062 5.65625 -0.078125 C 5.488281 -0.222656 5.40625 -0.445312 5.40625 -0.75 L 5.40625 -4.703125 C 5.40625 -5.128906 5.296875 -5.4375 5.078125 -5.625 C 4.867188 -5.820312 4.585938 -5.921875 4.234375 -5.921875 C 3.785156 -5.921875 3.414062 -5.726562 3.125 -5.34375 C 2.84375 -4.957031 2.703125 -4.34375 2.703125 -3.5 Z M 2.703125 -0.75 "/></g></g></g><g fill="#004aad" fill-opacity="1"><g transform="translate(77.861078, 30.371899)"><g><path d="M 4.265625 0.140625 C 3.671875 0.140625 3.148438 0.0507812 2.703125 -0.125 C 2.265625 -0.300781 1.898438 -0.554688 1.609375 -0.890625 C 1.316406 -1.234375 1.097656 -1.640625 0.953125 -2.109375 C 0.804688 -2.578125 0.734375 -3.09375 0.734375 -3.65625 C 0.734375 -4.238281 0.804688 -4.757812 0.953125 -5.21875 C 1.097656 -5.6875 1.316406 -6.085938 1.609375 -6.421875 C 1.898438 -6.753906 2.265625 -7.007812 2.703125 -7.1875 C 3.148438 -7.375 3.671875 -7.46875 4.265625 -7.46875 C 4.847656 -7.46875 5.359375 -7.375 5.796875 -7.1875 C 6.242188 -7.007812 6.613281 -6.753906 6.90625 -6.421875 C 7.195312 -6.085938 7.414062 -5.6875 7.5625 -5.21875 C 7.707031 -4.757812 7.78125 -4.238281 7.78125 -3.65625 C 7.78125 -3.09375 7.707031 -2.578125 7.5625 -2.109375 C 7.414062 -1.640625 7.195312 -1.234375 6.90625 -0.890625 C 6.613281 -0.554688 6.242188 -0.300781 5.796875 -0.125 C 5.359375 0.0507812 4.847656 0.140625 4.265625 0.140625 Z M 4.265625 -5.921875 C 3.660156 -5.921875 3.210938 -5.71875 2.921875 -5.3125 C 2.628906 -4.90625 2.484375 -4.351562 2.484375 -3.65625 C 2.484375 -2.96875 2.628906 -2.414062 2.921875 -2 C 3.210938 -1.59375 3.660156 -1.390625 4.265625 -1.390625 C 4.867188 -1.390625 5.3125 -1.59375 5.59375 -2 C 5.882812 -2.414062 6.03125 -2.96875 6.03125 -3.65625 C 6.03125 -4.351562 5.882812 -4.90625 5.59375 -5.3125 C 5.3125 -5.71875 4.867188 -5.921875 4.265625 -5.921875 Z M 4.265625 -5.921875 "/></g></g></g></svg>