<svg xmlns="http://www.w3.org/2000/svg" xmlns:xlink="http://www.w3.org/1999/xlink" width="200" zoomAndPan="magnify" viewBox="0 0 224.87999 112.499997" height="150" preserveAspectRatio="xMidYMid meet" version="1.0"><defs><g/><clipPath id="c041665880"><path d="M 20.734375 29.824219 L 78.972656 29.824219 L 78.972656 85.824219 L 20.734375 85.824219 Z M 20.734375 29.824219 " clip-rule="nonzero"/></clipPath></defs><path fill="#004aad" d="M 24.746094 33.835938 L 26.75 33.835938 L 26.75 35.84375 L 24.746094 35.84375 Z M 24.746094 33.835938 " fill-opacity="1" fill-rule="nonzero"/><path fill="#004aad" d="M 28.757812 33.835938 L 30.761719 33.835938 L 30.761719 35.84375 L 28.757812 35.84375 Z M 28.757812 33.835938 " fill-opacity="1" fill-rule="nonzero"/><path fill="#004aad" d="M 32.769531 33.835938 L 34.773438 33.835938 L 34.773438 35.84375 L 32.769531 35.84375 Z M 32.769531 33.835938 " fill-opacity="1" fill-rule="nonzero"/><g clip-path="url(#c041665880)"><path fill="#004aad" d="M 74.890625 29.824219 L 24.746094 29.824219 C 24.480469 29.824219 24.222656 29.851562 23.964844 29.902344 C 23.703125 29.953125 23.453125 30.03125 23.210938 30.128906 C 22.96875 30.230469 22.738281 30.355469 22.515625 30.5 C 22.296875 30.648438 22.097656 30.8125 21.910156 31 C 21.722656 31.1875 21.558594 31.390625 21.410156 31.609375 C 21.265625 31.828125 21.140625 32.058594 21.039062 32.300781 C 20.9375 32.542969 20.863281 32.796875 20.8125 33.054688 C 20.761719 33.3125 20.734375 33.574219 20.734375 33.835938 L 20.734375 73.953125 C 20.734375 74.214844 20.761719 74.476562 20.8125 74.734375 C 20.863281 74.992188 20.9375 75.246094 21.039062 75.488281 C 21.140625 75.730469 21.265625 75.960938 21.410156 76.179688 C 21.558594 76.398438 21.722656 76.601562 21.910156 76.789062 C 22.097656 76.976562 22.296875 77.140625 22.515625 77.289062 C 22.738281 77.433594 22.96875 77.558594 23.210938 77.660156 C 23.453125 77.757812 23.703125 77.835938 23.964844 77.886719 C 24.222656 77.9375 24.480469 77.964844 24.746094 77.964844 L 42.429688 77.964844 L 41.882812 83.984375 L 38.785156 83.984375 L 38.785156 85.988281 L 60.851562 85.988281 L 60.851562 83.984375 L 57.753906 83.984375 L 57.207031 77.964844 L 74.890625 77.964844 C 75.15625 77.964844 75.417969 77.9375 75.675781 77.886719 C 75.933594 77.835938 76.183594 77.757812 76.425781 77.660156 C 76.667969 77.558594 76.902344 77.433594 77.121094 77.289062 C 77.339844 77.140625 77.542969 76.976562 77.726562 76.789062 C 77.914062 76.601562 78.078125 76.398438 78.226562 76.179688 C 78.371094 75.960938 78.496094 75.730469 78.597656 75.488281 C 78.699219 75.246094 78.773438 74.992188 78.824219 74.734375 C 78.878906 74.476562 78.902344 74.214844 78.902344 73.953125 L 78.902344 33.835938 C 78.902344 33.574219 78.878906 33.3125 78.824219 33.054688 C 78.773438 32.796875 78.699219 32.542969 78.597656 32.300781 C 78.496094 32.058594 78.371094 31.828125 78.226562 31.609375 C 78.078125 31.390625 77.914062 31.1875 77.726562 31 C 77.542969 30.8125 77.339844 30.648438 77.121094 30.5 C 76.902344 30.355469 76.667969 30.230469 76.425781 30.128906 C 76.183594 30.03125 75.933594 29.953125 75.675781 29.902344 C 75.417969 29.851562 75.15625 29.824219 74.890625 29.824219 Z M 24.746094 31.832031 L 74.890625 31.832031 C 75.15625 31.832031 75.414062 31.882812 75.660156 31.984375 C 75.90625 32.085938 76.121094 32.230469 76.308594 32.417969 C 76.496094 32.605469 76.644531 32.824219 76.746094 33.070312 C 76.847656 33.3125 76.898438 33.570312 76.898438 33.835938 L 76.898438 37.847656 L 22.738281 37.847656 L 22.738281 33.835938 C 22.738281 33.570312 22.789062 33.3125 22.894531 33.070312 C 22.996094 32.824219 23.140625 32.605469 23.328125 32.417969 C 23.515625 32.230469 23.734375 32.085938 23.976562 31.984375 C 24.222656 31.882812 24.480469 31.832031 24.746094 31.832031 Z M 76.898438 39.855469 L 76.898438 67.9375 L 22.738281 67.9375 L 22.738281 39.855469 Z M 55.742188 83.984375 L 43.894531 83.984375 L 44.445312 77.964844 L 55.195312 77.964844 Z M 74.890625 75.960938 L 24.746094 75.960938 C 24.480469 75.960938 24.222656 75.90625 23.976562 75.804688 C 23.734375 75.703125 23.515625 75.558594 23.328125 75.371094 C 23.140625 75.183594 22.996094 74.964844 22.894531 74.71875 C 22.789062 74.476562 22.738281 74.21875 22.738281 73.953125 L 22.738281 69.941406 L 76.898438 69.941406 L 76.898438 73.953125 C 76.898438 74.21875 76.847656 74.476562 76.746094 74.71875 C 76.644531 74.964844 76.496094 75.183594 76.308594 75.371094 C 76.121094 75.558594 75.90625 75.703125 75.660156 75.804688 C 75.414062 75.90625 75.15625 75.960938 74.890625 75.960938 Z M 74.890625 75.960938 " fill-opacity="1" fill-rule="nonzero"/></g><path fill="#004aad" d="M 48.816406 71.949219 L 50.820312 71.949219 L 50.820312 73.953125 L 48.816406 73.953125 Z M 48.816406 71.949219 " fill-opacity="1" fill-rule="nonzero"/><path fill="#004aad" d="M 25.75 50.886719 L 27.753906 50.886719 L 27.753906 52.890625 L 25.75 52.890625 Z M 25.75 50.886719 " fill-opacity="1" fill-rule="nonzero"/><path fill="#004aad" d="M 29.761719 50.886719 L 44.804688 50.886719 L 44.804688 52.890625 L 29.761719 52.890625 Z M 29.761719 50.886719 " fill-opacity="1" fill-rule="nonzero"/><path fill="#004aad" d="M 25.75 54.898438 L 27.753906 54.898438 L 27.753906 56.902344 L 25.75 56.902344 Z M 25.75 54.898438 " fill-opacity="1" fill-rule="nonzero"/><path fill="#004aad" d="M 29.761719 54.898438 L 55.835938 54.898438 L 55.835938 56.902344 L 29.761719 56.902344 Z M 29.761719 54.898438 " fill-opacity="1" fill-rule="nonzero"/><path fill="#004aad" d="M 25.75 58.910156 L 27.753906 58.910156 L 27.753906 60.914062 L 25.75 60.914062 Z M 25.75 58.910156 " fill-opacity="1" fill-rule="nonzero"/><path fill="#004aad" d="M 29.761719 58.910156 L 48.816406 58.910156 L 48.816406 60.914062 L 29.761719 60.914062 Z M 29.761719 58.910156 " fill-opacity="1" fill-rule="nonzero"/><path fill="#004aad" d="M 25.75 62.921875 L 27.753906 62.921875 L 27.753906 64.925781 L 25.75 64.925781 Z M 25.75 62.921875 " fill-opacity="1" fill-rule="nonzero"/><path fill="#004aad" d="M 29.761719 62.921875 L 58.84375 62.921875 L 58.84375 64.925781 L 29.761719 64.925781 Z M 29.761719 62.921875 " fill-opacity="1" fill-rule="nonzero"/><path fill="#004aad" d="M 26.042969 46.582031 L 28.046875 48.585938 L 29.464844 47.167969 L 28.167969 45.871094 L 29.464844 44.574219 L 28.046875 43.15625 L 26.042969 45.160156 C 25.949219 45.257812 25.875 45.363281 25.824219 45.488281 C 25.773438 45.609375 25.75 45.738281 25.75 45.871094 C 25.75 46.003906 25.773438 46.132812 25.824219 46.253906 C 25.875 46.378906 25.949219 46.488281 26.042969 46.582031 Z M 26.042969 46.582031 " fill-opacity="1" fill-rule="nonzero"/><path fill="#004aad" d="M 36.070312 47.167969 L 37.488281 48.585938 L 39.496094 46.582031 C 39.589844 46.488281 39.664062 46.378906 39.714844 46.253906 C 39.765625 46.132812 39.789062 46.003906 39.789062 45.871094 C 39.789062 45.738281 39.765625 45.609375 39.714844 45.488281 C 39.664062 45.363281 39.589844 45.257812 39.496094 45.160156 L 37.488281 43.15625 L 36.070312 44.574219 L 37.367188 45.871094 Z M 36.070312 47.167969 " fill-opacity="1" fill-rule="nonzero"/><path fill="#004aad" d="M 30.8125 48.5625 L 32.820312 42.546875 L 34.722656 43.179688 L 32.71875 49.195312 Z M 30.8125 48.5625 " fill-opacity="1" fill-rule="nonzero"/><path fill="#004aad" d="M 57.84375 54.898438 L 63.859375 54.898438 L 63.859375 56.902344 L 57.84375 56.902344 Z M 57.84375 54.898438 " fill-opacity="1" fill-rule="nonzero"/><path fill="#004aad" d="M 60.851562 62.921875 L 62.855469 62.921875 L 62.855469 64.925781 L 60.851562 64.925781 Z M 60.851562 62.921875 " fill-opacity="1" fill-rule="nonzero"/><path fill="#004aad" d="M 64.863281 62.921875 L 66.867188 62.921875 L 66.867188 64.925781 L 64.863281 64.925781 Z M 64.863281 62.921875 " fill-opacity="1" fill-rule="nonzero"/><path fill="#004aad" d="M 46.808594 50.886719 L 48.816406 50.886719 L 48.816406 52.890625 L 46.808594 52.890625 Z M 46.808594 50.886719 " fill-opacity="1" fill-rule="nonzero"/><g fill="#004aad" fill-opacity="1"><g transform="translate(84.615558, 47.311904)"><g><path d="M 11.875 -18.109375 C 12.375 -18.109375 12.738281 -17.976562 12.96875 -17.71875 C 13.207031 -17.46875 13.328125 -17.140625 13.328125 -16.734375 C 13.328125 -16.335938 13.207031 -16.015625 12.96875 -15.765625 C 12.738281 -15.515625 12.375 -15.390625 11.875 -15.390625 L 4.78125 -15.390625 L 4.78125 -10.421875 L 11.484375 -10.421875 C 11.984375 -10.421875 12.347656 -10.289062 12.578125 -10.03125 C 12.816406 -9.78125 12.9375 -9.457031 12.9375 -9.0625 C 12.9375 -8.664062 12.816406 -8.335938 12.578125 -8.078125 C 12.347656 -7.828125 11.984375 -7.703125 11.484375 -7.703125 L 4.78125 -7.703125 L 4.78125 -2.71875 L 12.140625 -2.71875 C 12.640625 -2.71875 13.003906 -2.585938 13.234375 -2.328125 C 13.460938 -2.066406 13.578125 -1.738281 13.578125 -1.34375 C 13.578125 -0.945312 13.460938 -0.625 13.234375 -0.375 C 13.003906 -0.125 12.640625 0 12.140625 0 L 3.953125 0 C 3.128906 0 2.546875 -0.164062 2.203125 -0.5 C 1.859375 -0.84375 1.6875 -1.460938 1.6875 -2.359375 L 1.6875 -15.765625 C 1.6875 -16.660156 1.859375 -17.273438 2.203125 -17.609375 C 2.546875 -17.941406 3.128906 -18.109375 3.953125 -18.109375 Z M 11.875 -18.109375 "/></g></g></g><g fill="#004aad" fill-opacity="1"><g transform="translate(99.106789, 47.311904)"><g><path d="M 6.65625 -10.09375 L 2.21875 -10.09375 C 1.71875 -10.09375 1.347656 -10.226562 1.109375 -10.5 C 0.867188 -10.78125 0.75 -11.117188 0.75 -11.515625 C 0.75 -11.910156 0.867188 -12.242188 1.109375 -12.515625 C 1.347656 -12.796875 1.71875 -12.9375 2.21875 -12.9375 L 10.171875 -12.9375 C 10.941406 -12.9375 11.328125 -12.609375 11.328125 -11.953125 C 11.328125 -11.734375 11.28125 -11.523438 11.1875 -11.328125 C 11.09375 -11.140625 10.9375 -10.890625 10.71875 -10.578125 L 5.4375 -2.84375 L 10.34375 -2.84375 C 10.84375 -2.84375 11.210938 -2.703125 11.453125 -2.421875 C 11.703125 -2.148438 11.828125 -1.816406 11.828125 -1.421875 C 11.828125 -1.023438 11.703125 -0.6875 11.453125 -0.40625 C 11.210938 -0.132812 10.84375 0 10.34375 0 L 1.9375 0 C 1.164062 0 0.78125 -0.328125 0.78125 -0.984375 C 0.78125 -1.203125 0.828125 -1.40625 0.921875 -1.59375 C 1.015625 -1.789062 1.171875 -2.046875 1.390625 -2.359375 Z M 6.65625 -10.09375 "/></g></g></g><g fill="#004aad" fill-opacity="1"><g transform="translate(111.450217, 47.311904)"><g><path d="M 8.203125 -2.453125 C 8.703125 -2.453125 9.132812 -2.492188 9.5 -2.578125 C 9.875 -2.671875 10.203125 -2.769531 10.484375 -2.875 C 10.773438 -2.976562 11.035156 -3.070312 11.265625 -3.15625 C 11.503906 -3.238281 11.722656 -3.28125 11.921875 -3.28125 C 12.234375 -3.28125 12.5 -3.179688 12.71875 -2.984375 C 12.9375 -2.785156 13.046875 -2.515625 13.046875 -2.171875 C 13.046875 -1.691406 12.863281 -1.289062 12.5 -0.96875 C 12.132812 -0.644531 11.691406 -0.394531 11.171875 -0.21875 C 10.660156 -0.0390625 10.128906 0.0820312 9.578125 0.15625 C 9.023438 0.226562 8.566406 0.265625 8.203125 0.265625 C 7.203125 0.265625 6.28125 0.128906 5.4375 -0.140625 C 4.59375 -0.421875 3.863281 -0.84375 3.25 -1.40625 C 2.632812 -1.96875 2.15625 -2.671875 1.8125 -3.515625 C 1.46875 -4.359375 1.296875 -5.34375 1.296875 -6.46875 C 1.296875 -7.488281 1.421875 -8.40625 1.671875 -9.21875 C 1.929688 -10.039062 2.320312 -10.75 2.84375 -11.34375 C 3.375 -11.9375 4.03125 -12.394531 4.8125 -12.71875 C 5.59375 -13.039062 6.5 -13.203125 7.53125 -13.203125 C 8.507812 -13.203125 9.363281 -13.050781 10.09375 -12.75 C 10.832031 -12.445312 11.441406 -12.023438 11.921875 -11.484375 C 12.410156 -10.953125 12.773438 -10.332031 13.015625 -9.625 C 13.253906 -8.914062 13.375 -8.15625 13.375 -7.34375 C 13.375 -6.675781 13.195312 -6.164062 12.84375 -5.8125 C 12.488281 -5.457031 11.878906 -5.28125 11.015625 -5.28125 L 4.46875 -5.28125 C 4.664062 -4.28125 5.078125 -3.554688 5.703125 -3.109375 C 6.335938 -2.671875 7.171875 -2.453125 8.203125 -2.453125 Z M 7.53125 -10.484375 C 6.695312 -10.484375 6.039062 -10.257812 5.5625 -9.8125 C 5.082031 -9.375 4.742188 -8.769531 4.546875 -8 L 10.25 -8 C 10.175781 -8.820312 9.90625 -9.441406 9.4375 -9.859375 C 8.976562 -10.273438 8.34375 -10.484375 7.53125 -10.484375 Z M 7.53125 -10.484375 "/></g></g></g><g fill="#004aad" fill-opacity="1"><g transform="translate(126.122592, 47.311904)"><g><path d="M 10.046875 -11.75 C 10.046875 -12.21875 10.191406 -12.578125 10.484375 -12.828125 C 10.773438 -13.078125 11.144531 -13.203125 11.59375 -13.203125 C 12.039062 -13.203125 12.410156 -13.070312 12.703125 -12.8125 C 12.992188 -12.550781 13.140625 -12.15625 13.140625 -11.625 L 13.140625 3.859375 C 13.140625 4.390625 12.992188 4.785156 12.703125 5.046875 C 12.410156 5.304688 12.039062 5.4375 11.59375 5.4375 C 11.144531 5.4375 10.773438 5.304688 10.484375 5.046875 C 10.191406 4.785156 10.046875 4.390625 10.046875 3.859375 L 10.046875 -1.546875 C 9.867188 -1.335938 9.660156 -1.125 9.421875 -0.90625 C 9.179688 -0.695312 8.90625 -0.503906 8.59375 -0.328125 C 8.28125 -0.160156 7.929688 -0.0195312 7.546875 0.09375 C 7.171875 0.207031 6.757812 0.265625 6.3125 0.265625 C 5.601562 0.265625 4.941406 0.132812 4.328125 -0.125 C 3.722656 -0.382812 3.191406 -0.78125 2.734375 -1.3125 C 2.285156 -1.851562 1.929688 -2.53125 1.671875 -3.34375 C 1.421875 -4.164062 1.296875 -5.128906 1.296875 -6.234375 C 1.296875 -7.410156 1.425781 -8.429688 1.6875 -9.296875 C 1.957031 -10.171875 2.328125 -10.894531 2.796875 -11.46875 C 3.273438 -12.050781 3.847656 -12.484375 4.515625 -12.765625 C 5.191406 -13.054688 5.9375 -13.203125 6.75 -13.203125 C 7.351562 -13.203125 7.9375 -13.078125 8.5 -12.828125 C 9.070312 -12.585938 9.585938 -12.226562 10.046875 -11.75 Z M 10.046875 -8.078125 C 10.046875 -8.429688 9.960938 -8.753906 9.796875 -9.046875 C 9.628906 -9.347656 9.410156 -9.601562 9.140625 -9.8125 C 8.878906 -10.03125 8.582031 -10.195312 8.25 -10.3125 C 7.925781 -10.425781 7.59375 -10.484375 7.25 -10.484375 C 6.363281 -10.484375 5.664062 -10.109375 5.15625 -9.359375 C 4.65625 -8.617188 4.40625 -7.578125 4.40625 -6.234375 C 4.40625 -4.941406 4.644531 -3.988281 5.125 -3.375 C 5.601562 -2.757812 6.234375 -2.453125 7.015625 -2.453125 C 7.878906 -2.453125 8.597656 -2.847656 9.171875 -3.640625 C 9.753906 -4.441406 10.046875 -5.625 10.046875 -7.1875 Z M 10.046875 -8.078125 "/></g></g></g><g fill="#004aad" fill-opacity="1"><g transform="translate(140.950226, 47.311904)"><g><path d="M 9.546875 -1.609375 C 9.171875 -1.003906 8.679688 -0.539062 8.078125 -0.21875 C 7.472656 0.101562 6.789062 0.265625 6.03125 0.265625 C 4.6875 0.265625 3.625 -0.109375 2.84375 -0.859375 C 2.070312 -1.617188 1.6875 -2.859375 1.6875 -4.578125 L 1.6875 -11.625 C 1.6875 -12.15625 1.832031 -12.550781 2.125 -12.8125 C 2.414062 -13.070312 2.785156 -13.203125 3.234375 -13.203125 C 3.679688 -13.203125 4.050781 -13.070312 4.34375 -12.8125 C 4.632812 -12.550781 4.78125 -12.15625 4.78125 -11.625 L 4.78125 -4.703125 C 4.78125 -3.929688 4.960938 -3.363281 5.328125 -3 C 5.691406 -2.632812 6.175781 -2.453125 6.78125 -2.453125 C 7.601562 -2.453125 8.269531 -2.8125 8.78125 -3.53125 C 9.289062 -4.25 9.546875 -5.269531 9.546875 -6.59375 L 9.546875 -11.625 C 9.546875 -12.15625 9.691406 -12.550781 9.984375 -12.8125 C 10.273438 -13.070312 10.644531 -13.203125 11.09375 -13.203125 C 11.539062 -13.203125 11.910156 -13.070312 12.203125 -12.8125 C 12.503906 -12.550781 12.65625 -12.15625 12.65625 -11.625 L 12.65625 -4.609375 C 12.65625 -4.015625 12.664062 -3.53125 12.6875 -3.15625 C 12.71875 -2.789062 12.753906 -2.484375 12.796875 -2.234375 C 12.835938 -1.984375 12.867188 -1.765625 12.890625 -1.578125 C 12.921875 -1.398438 12.9375 -1.210938 12.9375 -1.015625 C 12.9375 -0.660156 12.8125 -0.359375 12.5625 -0.109375 C 12.3125 0.140625 11.9375 0.265625 11.4375 0.265625 C 10.882812 0.265625 10.460938 0.128906 10.171875 -0.140625 C 9.878906 -0.410156 9.671875 -0.898438 9.546875 -1.609375 Z M 9.546875 -1.609375 "/></g></g></g><g fill="#004aad" fill-opacity="1"><g transform="translate(155.286198, 47.311904)"><g><path d="M 1.9375 -16.5625 C 1.9375 -17.0625 2.113281 -17.488281 2.46875 -17.84375 C 2.820312 -18.195312 3.25 -18.375 3.75 -18.375 C 4.25 -18.375 4.675781 -18.195312 5.03125 -17.84375 C 5.382812 -17.488281 5.5625 -17.0625 5.5625 -16.5625 C 5.5625 -16.0625 5.382812 -15.632812 5.03125 -15.28125 C 4.675781 -14.925781 4.25 -14.75 3.75 -14.75 C 3.25 -14.75 2.820312 -14.925781 2.46875 -15.28125 C 2.113281 -15.632812 1.9375 -16.0625 1.9375 -16.5625 Z M 3.078125 -12.9375 C 3.523438 -12.9375 3.894531 -12.90625 4.1875 -12.84375 C 4.476562 -12.78125 4.707031 -12.671875 4.875 -12.515625 C 5.039062 -12.367188 5.148438 -12.160156 5.203125 -11.890625 C 5.265625 -11.617188 5.296875 -11.28125 5.296875 -10.875 L 5.296875 -1.3125 C 5.296875 -0.78125 5.148438 -0.382812 4.859375 -0.125 C 4.566406 0.132812 4.195312 0.265625 3.75 0.265625 C 3.300781 0.265625 2.929688 0.132812 2.640625 -0.125 C 2.347656 -0.382812 2.203125 -0.78125 2.203125 -1.3125 L 2.203125 -10.21875 L 1.84375 -10.21875 C 1.34375 -10.21875 0.972656 -10.34375 0.734375 -10.59375 C 0.503906 -10.84375 0.390625 -11.164062 0.390625 -11.5625 C 0.390625 -11.957031 0.503906 -12.285156 0.734375 -12.546875 C 0.972656 -12.804688 1.34375 -12.9375 1.84375 -12.9375 Z M 3.078125 -12.9375 "/></g></g></g><g fill="#004aad" fill-opacity="1"><g transform="translate(162.27304, 47.311904)"><g><path d="M 8.203125 -2.453125 C 8.703125 -2.453125 9.132812 -2.492188 9.5 -2.578125 C 9.875 -2.671875 10.203125 -2.769531 10.484375 -2.875 C 10.773438 -2.976562 11.035156 -3.070312 11.265625 -3.15625 C 11.503906 -3.238281 11.722656 -3.28125 11.921875 -3.28125 C 12.234375 -3.28125 12.5 -3.179688 12.71875 -2.984375 C 12.9375 -2.785156 13.046875 -2.515625 13.046875 -2.171875 C 13.046875 -1.691406 12.863281 -1.289062 12.5 -0.96875 C 12.132812 -0.644531 11.691406 -0.394531 11.171875 -0.21875 C 10.660156 -0.0390625 10.128906 0.0820312 9.578125 0.15625 C 9.023438 0.226562 8.566406 0.265625 8.203125 0.265625 C 7.203125 0.265625 6.28125 0.128906 5.4375 -0.140625 C 4.59375 -0.421875 3.863281 -0.84375 3.25 -1.40625 C 2.632812 -1.96875 2.15625 -2.671875 1.8125 -3.515625 C 1.46875 -4.359375 1.296875 -5.34375 1.296875 -6.46875 C 1.296875 -7.488281 1.421875 -8.40625 1.671875 -9.21875 C 1.929688 -10.039062 2.320312 -10.75 2.84375 -11.34375 C 3.375 -11.9375 4.03125 -12.394531 4.8125 -12.71875 C 5.59375 -13.039062 6.5 -13.203125 7.53125 -13.203125 C 8.507812 -13.203125 9.363281 -13.050781 10.09375 -12.75 C 10.832031 -12.445312 11.441406 -12.023438 11.921875 -11.484375 C 12.410156 -10.953125 12.773438 -10.332031 13.015625 -9.625 C 13.253906 -8.914062 13.375 -8.15625 13.375 -7.34375 C 13.375 -6.675781 13.195312 -6.164062 12.84375 -5.8125 C 12.488281 -5.457031 11.878906 -5.28125 11.015625 -5.28125 L 4.46875 -5.28125 C 4.664062 -4.28125 5.078125 -3.554688 5.703125 -3.109375 C 6.335938 -2.671875 7.171875 -2.453125 8.203125 -2.453125 Z M 7.53125 -10.484375 C 6.695312 -10.484375 6.039062 -10.257812 5.5625 -9.8125 C 5.082031 -9.375 4.742188 -8.769531 4.546875 -8 L 10.25 -8 C 10.175781 -8.820312 9.90625 -9.441406 9.4375 -9.859375 C 8.976562 -10.273438 8.34375 -10.484375 7.53125 -10.484375 Z M 7.53125 -10.484375 "/></g></g></g><g fill="#004aad" fill-opacity="1"><g transform="translate(176.945415, 47.311904)"><g><path d="M 4.78125 -3.671875 C 4.78125 -3.296875 4.851562 -3.035156 5 -2.890625 C 5.15625 -2.753906 5.316406 -2.6875 5.484375 -2.6875 C 5.617188 -2.6875 5.734375 -2.703125 5.828125 -2.734375 C 5.929688 -2.773438 6.054688 -2.796875 6.203125 -2.796875 C 6.453125 -2.796875 6.648438 -2.675781 6.796875 -2.4375 C 6.941406 -2.207031 7.015625 -1.945312 7.015625 -1.65625 C 7.015625 -1.019531 6.8125 -0.539062 6.40625 -0.21875 C 6 0.101562 5.425781 0.265625 4.6875 0.265625 C 4.269531 0.265625 3.875 0.195312 3.5 0.0625 C 3.132812 -0.0625 2.816406 -0.265625 2.546875 -0.546875 C 2.273438 -0.835938 2.0625 -1.210938 1.90625 -1.671875 C 1.757812 -2.128906 1.6875 -2.675781 1.6875 -3.3125 L 1.6875 -17.5625 C 1.6875 -18.101562 1.832031 -18.5 2.125 -18.75 C 2.414062 -19.007812 2.785156 -19.140625 3.234375 -19.140625 C 3.679688 -19.140625 4.050781 -19.007812 4.34375 -18.75 C 4.632812 -18.5 4.78125 -18.101562 4.78125 -17.5625 Z M 4.78125 -3.671875 "/></g></g></g><g fill="#545454" fill-opacity="1"><g transform="translate(84.615558, 83.158224)"><g><path d="M 2.703125 -6.21875 C 3.367188 -6.21875 3.945312 -6.09375 4.4375 -5.84375 C 4.9375 -5.59375 5.320312 -5.226562 5.59375 -4.75 C 5.863281 -4.269531 6 -3.71875 6 -3.09375 C 6 -2.457031 5.863281 -1.90625 5.59375 -1.4375 C 5.320312 -0.976562 4.9375 -0.625 4.4375 -0.375 C 3.945312 -0.125 3.367188 0 2.703125 0 L 0.671875 0 L 0.671875 -6.21875 Z M 2.703125 -0.828125 C 3.429688 -0.828125 3.988281 -1.023438 4.375 -1.421875 C 4.757812 -1.816406 4.953125 -2.375 4.953125 -3.09375 C 4.953125 -3.8125 4.757812 -4.375 4.375 -4.78125 C 3.988281 -5.1875 3.429688 -5.390625 2.703125 -5.390625 L 1.6875 -5.390625 L 1.6875 -0.828125 Z M 2.703125 -0.828125 "/></g></g></g><g fill="#545454" fill-opacity="1"><g transform="translate(91.774781, 83.158224)"><g><path d="M 1.6875 -5.40625 L 1.6875 -3.578125 L 3.84375 -3.578125 L 3.84375 -2.734375 L 1.6875 -2.734375 L 1.6875 -0.828125 L 4.109375 -0.828125 L 4.109375 0 L 0.671875 0 L 0.671875 -6.234375 L 4.109375 -6.234375 L 4.109375 -5.40625 Z M 1.6875 -5.40625 "/></g></g></g><g fill="#545454" fill-opacity="1"><g transform="translate(97.276359, 83.158224)"><g><path d="M 2.71875 0.0625 C 2.300781 0.0625 1.925781 -0.0078125 1.59375 -0.15625 C 1.257812 -0.300781 0.992188 -0.507812 0.796875 -0.78125 C 0.609375 -1.050781 0.515625 -1.363281 0.515625 -1.71875 L 1.609375 -1.71875 C 1.628906 -1.445312 1.734375 -1.222656 1.921875 -1.046875 C 2.117188 -0.878906 2.382812 -0.796875 2.71875 -0.796875 C 3.070312 -0.796875 3.347656 -0.878906 3.546875 -1.046875 C 3.742188 -1.222656 3.84375 -1.441406 3.84375 -1.703125 C 3.84375 -1.910156 3.78125 -2.082031 3.65625 -2.21875 C 3.53125 -2.351562 3.375 -2.453125 3.1875 -2.515625 C 3.007812 -2.585938 2.757812 -2.664062 2.4375 -2.75 C 2.03125 -2.863281 1.703125 -2.972656 1.453125 -3.078125 C 1.203125 -3.191406 0.984375 -3.363281 0.796875 -3.59375 C 0.617188 -3.832031 0.53125 -4.144531 0.53125 -4.53125 C 0.53125 -4.882812 0.617188 -5.195312 0.796875 -5.46875 C 0.984375 -5.738281 1.238281 -5.941406 1.5625 -6.078125 C 1.882812 -6.222656 2.253906 -6.296875 2.671875 -6.296875 C 3.273438 -6.296875 3.769531 -6.144531 4.15625 -5.84375 C 4.539062 -5.550781 4.753906 -5.140625 4.796875 -4.609375 L 3.671875 -4.609375 C 3.648438 -4.835938 3.539062 -5.03125 3.34375 -5.1875 C 3.144531 -5.351562 2.882812 -5.4375 2.5625 -5.4375 C 2.269531 -5.4375 2.03125 -5.359375 1.84375 -5.203125 C 1.664062 -5.054688 1.578125 -4.84375 1.578125 -4.5625 C 1.578125 -4.375 1.632812 -4.21875 1.75 -4.09375 C 1.863281 -3.96875 2.007812 -3.867188 2.1875 -3.796875 C 2.375 -3.734375 2.617188 -3.660156 2.921875 -3.578125 C 3.335938 -3.460938 3.675781 -3.347656 3.9375 -3.234375 C 4.195312 -3.117188 4.414062 -2.941406 4.59375 -2.703125 C 4.78125 -2.472656 4.875 -2.160156 4.875 -1.765625 C 4.875 -1.453125 4.785156 -1.15625 4.609375 -0.875 C 4.441406 -0.59375 4.195312 -0.363281 3.875 -0.1875 C 3.550781 -0.0195312 3.164062 0.0625 2.71875 0.0625 Z M 2.71875 0.0625 "/></g></g></g><g fill="#545454" fill-opacity="1"><g transform="translate(103.494757, 83.158224)"><g><path d="M 4.421875 -1.265625 L 1.8125 -1.265625 L 1.375 0 L 0.296875 0 L 2.53125 -6.234375 L 3.71875 -6.234375 L 5.9375 0 L 4.875 0 Z M 4.140625 -2.109375 L 3.125 -5 L 2.109375 -2.109375 Z M 4.140625 -2.109375 "/></g></g></g><g fill="#545454" fill-opacity="1"><g transform="translate(110.54646, 83.158224)"><g><path d="M 3.90625 0 L 2.46875 -2.484375 L 1.6875 -2.484375 L 1.6875 0 L 0.671875 0 L 0.671875 -6.21875 L 2.8125 -6.21875 C 3.289062 -6.21875 3.695312 -6.132812 4.03125 -5.96875 C 4.363281 -5.800781 4.609375 -5.578125 4.765625 -5.296875 C 4.929688 -5.015625 5.015625 -4.703125 5.015625 -4.359375 C 5.015625 -3.953125 4.894531 -3.582031 4.65625 -3.25 C 4.425781 -2.914062 4.066406 -2.691406 3.578125 -2.578125 L 5.125 0 Z M 1.6875 -3.296875 L 2.8125 -3.296875 C 3.195312 -3.296875 3.484375 -3.390625 3.671875 -3.578125 C 3.867188 -3.773438 3.96875 -4.035156 3.96875 -4.359375 C 3.96875 -4.679688 3.875 -4.929688 3.6875 -5.109375 C 3.5 -5.296875 3.207031 -5.390625 2.8125 -5.390625 L 1.6875 -5.390625 Z M 1.6875 -3.296875 "/></g></g></g><g fill="#545454" fill-opacity="1"><g transform="translate(117.015754, 83.158224)"><g><path d="M 3.90625 0 L 2.46875 -2.484375 L 1.6875 -2.484375 L 1.6875 0 L 0.671875 0 L 0.671875 -6.21875 L 2.8125 -6.21875 C 3.289062 -6.21875 3.695312 -6.132812 4.03125 -5.96875 C 4.363281 -5.800781 4.609375 -5.578125 4.765625 -5.296875 C 4.929688 -5.015625 5.015625 -4.703125 5.015625 -4.359375 C 5.015625 -3.953125 4.894531 -3.582031 4.65625 -3.25 C 4.425781 -2.914062 4.066406 -2.691406 3.578125 -2.578125 L 5.125 0 Z M 1.6875 -3.296875 L 2.8125 -3.296875 C 3.195312 -3.296875 3.484375 -3.390625 3.671875 -3.578125 C 3.867188 -3.773438 3.96875 -4.035156 3.96875 -4.359375 C 3.96875 -4.679688 3.875 -4.929688 3.6875 -5.109375 C 3.5 -5.296875 3.207031 -5.390625 2.8125 -5.390625 L 1.6875 -5.390625 Z M 1.6875 -3.296875 "/></g></g></g><g fill="#545454" fill-opacity="1"><g transform="translate(123.485048, 83.158224)"><g><path d="M 3.515625 0.0625 C 2.929688 0.0625 2.394531 -0.0703125 1.90625 -0.34375 C 1.425781 -0.613281 1.039062 -0.992188 0.75 -1.484375 C 0.46875 -1.972656 0.328125 -2.519531 0.328125 -3.125 C 0.328125 -3.726562 0.46875 -4.269531 0.75 -4.75 C 1.039062 -5.238281 1.425781 -5.617188 1.90625 -5.890625 C 2.394531 -6.160156 2.929688 -6.296875 3.515625 -6.296875 C 4.097656 -6.296875 4.628906 -6.160156 5.109375 -5.890625 C 5.597656 -5.617188 5.984375 -5.238281 6.265625 -4.75 C 6.546875 -4.269531 6.6875 -3.726562 6.6875 -3.125 C 6.6875 -2.519531 6.546875 -1.972656 6.265625 -1.484375 C 5.984375 -0.992188 5.597656 -0.613281 5.109375 -0.34375 C 4.628906 -0.0703125 4.097656 0.0625 3.515625 0.0625 Z M 3.515625 -0.828125 C 3.921875 -0.828125 4.285156 -0.921875 4.609375 -1.109375 C 4.929688 -1.296875 5.179688 -1.5625 5.359375 -1.90625 C 5.546875 -2.257812 5.640625 -2.664062 5.640625 -3.125 C 5.640625 -3.582031 5.546875 -3.984375 5.359375 -4.328125 C 5.179688 -4.679688 4.929688 -4.945312 4.609375 -5.125 C 4.285156 -5.3125 3.921875 -5.40625 3.515625 -5.40625 C 3.097656 -5.40625 2.726562 -5.3125 2.40625 -5.125 C 2.082031 -4.945312 1.828125 -4.679688 1.640625 -4.328125 C 1.460938 -3.984375 1.375 -3.582031 1.375 -3.125 C 1.375 -2.664062 1.460938 -2.257812 1.640625 -1.90625 C 1.828125 -1.5625 2.082031 -1.296875 2.40625 -1.109375 C 2.726562 -0.921875 3.097656 -0.828125 3.515625 -0.828125 Z M 3.515625 -0.828125 "/></g></g></g><g fill="#545454" fill-opacity="1"><g transform="translate(131.316293, 83.158224)"><g><path d="M 1.6875 -0.828125 L 3.796875 -0.828125 L 3.796875 0 L 0.671875 0 L 0.671875 -6.21875 L 1.6875 -6.21875 Z M 1.6875 -0.828125 "/></g></g></g><g fill="#545454" fill-opacity="1"><g transform="translate(136.101053, 83.158224)"><g><path d="M 1.6875 -0.828125 L 3.796875 -0.828125 L 3.796875 0 L 0.671875 0 L 0.671875 -6.21875 L 1.6875 -6.21875 Z M 1.6875 -0.828125 "/></g></g></g><g fill="#545454" fill-opacity="1"><g transform="translate(140.885814, 83.158224)"><g><path d="M 4.421875 -1.265625 L 1.8125 -1.265625 L 1.375 0 L 0.296875 0 L 2.53125 -6.234375 L 3.71875 -6.234375 L 5.9375 0 L 4.875 0 Z M 4.140625 -2.109375 L 3.125 -5 L 2.109375 -2.109375 Z M 4.140625 -2.109375 "/></g></g></g><g fill="#545454" fill-opacity="1"><g transform="translate(147.937518, 83.158224)"><g><path d="M 2.703125 -6.21875 C 3.367188 -6.21875 3.945312 -6.09375 4.4375 -5.84375 C 4.9375 -5.59375 5.320312 -5.226562 5.59375 -4.75 C 5.863281 -4.269531 6 -3.71875 6 -3.09375 C 6 -2.457031 5.863281 -1.90625 5.59375 -1.4375 C 5.320312 -0.976562 4.9375 -0.625 4.4375 -0.375 C 3.945312 -0.125 3.367188 0 2.703125 0 L 0.671875 0 L 0.671875 -6.21875 Z M 2.703125 -0.828125 C 3.429688 -0.828125 3.988281 -1.023438 4.375 -1.421875 C 4.757812 -1.816406 4.953125 -2.375 4.953125 -3.09375 C 4.953125 -3.8125 4.757812 -4.375 4.375 -4.78125 C 3.988281 -5.1875 3.429688 -5.390625 2.703125 -5.390625 L 1.6875 -5.390625 L 1.6875 -0.828125 Z M 2.703125 -0.828125 "/></g></g></g><g fill="#545454" fill-opacity="1"><g transform="translate(155.096743, 83.158224)"><g><path d="M 3.515625 0.0625 C 2.929688 0.0625 2.394531 -0.0703125 1.90625 -0.34375 C 1.425781 -0.613281 1.039062 -0.992188 0.75 -1.484375 C 0.46875 -1.972656 0.328125 -2.519531 0.328125 -3.125 C 0.328125 -3.726562 0.46875 -4.269531 0.75 -4.75 C 1.039062 -5.238281 1.425781 -5.617188 1.90625 -5.890625 C 2.394531 -6.160156 2.929688 -6.296875 3.515625 -6.296875 C 4.097656 -6.296875 4.628906 -6.160156 5.109375 -5.890625 C 5.597656 -5.617188 5.984375 -5.238281 6.265625 -4.75 C 6.546875 -4.269531 6.6875 -3.726562 6.6875 -3.125 C 6.6875 -2.519531 6.546875 -1.972656 6.265625 -1.484375 C 5.984375 -0.992188 5.597656 -0.613281 5.109375 -0.34375 C 4.628906 -0.0703125 4.097656 0.0625 3.515625 0.0625 Z M 3.515625 -0.828125 C 3.921875 -0.828125 4.285156 -0.921875 4.609375 -1.109375 C 4.929688 -1.296875 5.179688 -1.5625 5.359375 -1.90625 C 5.546875 -2.257812 5.640625 -2.664062 5.640625 -3.125 C 5.640625 -3.582031 5.546875 -3.984375 5.359375 -4.328125 C 5.179688 -4.679688 4.929688 -4.945312 4.609375 -5.125 C 4.285156 -5.3125 3.921875 -5.40625 3.515625 -5.40625 C 3.097656 -5.40625 2.726562 -5.3125 2.40625 -5.125 C 2.082031 -4.945312 1.828125 -4.679688 1.640625 -4.328125 C 1.460938 -3.984375 1.375 -3.582031 1.375 -3.125 C 1.375 -2.664062 1.460938 -2.257812 1.640625 -1.90625 C 1.828125 -1.5625 2.082031 -1.296875 2.40625 -1.109375 C 2.726562 -0.921875 3.097656 -0.828125 3.515625 -0.828125 Z M 3.515625 -0.828125 "/></g></g></g><g fill="#545454" fill-opacity="1"><g transform="translate(162.927987, 83.158224)"><g><path d="M 3.90625 0 L 2.46875 -2.484375 L 1.6875 -2.484375 L 1.6875 0 L 0.671875 0 L 0.671875 -6.21875 L 2.8125 -6.21875 C 3.289062 -6.21875 3.695312 -6.132812 4.03125 -5.96875 C 4.363281 -5.800781 4.609375 -5.578125 4.765625 -5.296875 C 4.929688 -5.015625 5.015625 -4.703125 5.015625 -4.359375 C 5.015625 -3.953125 4.894531 -3.582031 4.65625 -3.25 C 4.425781 -2.914062 4.066406 -2.691406 3.578125 -2.578125 L 5.125 0 Z M 1.6875 -3.296875 L 2.8125 -3.296875 C 3.195312 -3.296875 3.484375 -3.390625 3.671875 -3.578125 C 3.867188 -3.773438 3.96875 -4.035156 3.96875 -4.359375 C 3.96875 -4.679688 3.875 -4.929688 3.6875 -5.109375 C 3.5 -5.296875 3.207031 -5.390625 2.8125 -5.390625 L 1.6875 -5.390625 Z M 1.6875 -3.296875 "/></g></g></g><g fill="#545454" fill-opacity="1"><g transform="translate(169.397281, 83.158224)"><g/></g></g><g fill="#004aad" fill-opacity="1"><g transform="translate(172.537289, 83.158224)"><g><path d="M 8.78125 -6.21875 L 6.9375 0 L 5.78125 0 L 4.46875 -4.703125 L 3.078125 0 L 1.9375 0.015625 L 0.171875 -6.21875 L 1.25 -6.21875 L 2.546875 -1.15625 L 3.9375 -6.21875 L 5.078125 -6.21875 L 6.390625 -1.1875 L 7.6875 -6.21875 Z M 8.78125 -6.21875 "/></g></g></g><g fill="#004aad" fill-opacity="1"><g transform="translate(182.294982, 83.158224)"><g><path d="M 1.6875 -5.40625 L 1.6875 -3.578125 L 3.84375 -3.578125 L 3.84375 -2.734375 L 1.6875 -2.734375 L 1.6875 -0.828125 L 4.109375 -0.828125 L 4.109375 0 L 0.671875 0 L 0.671875 -6.234375 L 4.109375 -6.234375 L 4.109375 -5.40625 Z M 1.6875 -5.40625 "/></g></g></g><g fill="#004aad" fill-opacity="1"><g transform="translate(187.796561, 83.158224)"><g><path d="M 4 -3.203125 C 4.332031 -3.140625 4.613281 -2.960938 4.84375 -2.671875 C 5.082031 -2.378906 5.203125 -2.046875 5.203125 -1.671875 C 5.203125 -1.359375 5.117188 -1.070312 4.953125 -0.8125 C 4.785156 -0.5625 4.546875 -0.363281 4.234375 -0.21875 C 3.929688 -0.0703125 3.570312 0 3.15625 0 L 0.671875 0 L 0.671875 -6.21875 L 3.046875 -6.21875 C 3.472656 -6.21875 3.835938 -6.144531 4.140625 -6 C 4.441406 -5.863281 4.671875 -5.671875 4.828125 -5.421875 C 4.984375 -5.179688 5.0625 -4.914062 5.0625 -4.625 C 5.0625 -4.257812 4.960938 -3.957031 4.765625 -3.71875 C 4.578125 -3.476562 4.320312 -3.304688 4 -3.203125 Z M 1.6875 -3.609375 L 2.953125 -3.609375 C 3.285156 -3.609375 3.546875 -3.679688 3.734375 -3.828125 C 3.921875 -3.984375 4.015625 -4.207031 4.015625 -4.5 C 4.015625 -4.78125 3.921875 -5 3.734375 -5.15625 C 3.546875 -5.3125 3.285156 -5.390625 2.953125 -5.390625 L 1.6875 -5.390625 Z M 3.078125 -0.828125 C 3.421875 -0.828125 3.691406 -0.910156 3.890625 -1.078125 C 4.085938 -1.242188 4.1875 -1.476562 4.1875 -1.78125 C 4.1875 -2.082031 4.078125 -2.320312 3.859375 -2.5 C 3.648438 -2.6875 3.375 -2.78125 3.03125 -2.78125 L 1.6875 -2.78125 L 1.6875 -0.828125 Z M 3.078125 -0.828125 "/></g></g></g><g fill="#004aad" fill-opacity="1"><g transform="translate(84.615558, 70.017317)"><g><path d="M 15.90625 -10.8125 L 12.21875 -1.09375 C 12.019531 -0.601562 11.800781 -0.253906 11.5625 -0.046875 C 11.320312 0.160156 10.96875 0.265625 10.5 0.265625 C 10.039062 0.265625 9.6875 0.160156 9.4375 -0.046875 C 9.195312 -0.253906 8.984375 -0.601562 8.796875 -1.09375 L 5.078125 -10.8125 L 4.609375 -1.375 C 4.566406 -0.832031 4.40625 -0.421875 4.125 -0.140625 C 3.84375 0.128906 3.457031 0.265625 2.96875 0.265625 C 2.46875 0.265625 2.085938 0.128906 1.828125 -0.140625 C 1.578125 -0.421875 1.46875 -0.832031 1.5 -1.375 L 2.28125 -16.203125 C 2.3125 -16.941406 2.488281 -17.488281 2.8125 -17.84375 C 3.144531 -18.195312 3.578125 -18.375 4.109375 -18.375 C 5.046875 -18.375 5.695312 -17.878906 6.0625 -16.890625 L 10.5 -5.234375 L 14.953125 -16.890625 C 15.316406 -17.878906 15.960938 -18.375 16.890625 -18.375 C 17.429688 -18.375 17.863281 -18.195312 18.1875 -17.84375 C 18.519531 -17.488281 18.703125 -16.941406 18.734375 -16.203125 L 19.515625 -1.375 C 19.546875 -0.832031 19.429688 -0.421875 19.171875 -0.140625 C 18.910156 0.128906 18.53125 0.265625 18.03125 0.265625 C 17.550781 0.265625 17.164062 0.128906 16.875 -0.140625 C 16.59375 -0.421875 16.4375 -0.832031 16.40625 -1.375 Z M 15.90625 -10.8125 "/></g></g></g><g fill="#004aad" fill-opacity="1"><g transform="translate(105.627844, 70.017317)"><g><path d="M 7.53125 0.265625 C 6.5 0.265625 5.585938 0.101562 4.796875 -0.21875 C 4.015625 -0.539062 3.363281 -1 2.84375 -1.59375 C 2.320312 -2.1875 1.929688 -2.894531 1.671875 -3.71875 C 1.421875 -4.550781 1.296875 -5.46875 1.296875 -6.46875 C 1.296875 -7.488281 1.421875 -8.40625 1.671875 -9.21875 C 1.929688 -10.039062 2.320312 -10.75 2.84375 -11.34375 C 3.363281 -11.9375 4.015625 -12.394531 4.796875 -12.71875 C 5.585938 -13.039062 6.5 -13.203125 7.53125 -13.203125 C 8.5625 -13.203125 9.46875 -13.039062 10.25 -12.71875 C 11.039062 -12.394531 11.691406 -11.9375 12.203125 -11.34375 C 12.722656 -10.75 13.113281 -10.039062 13.375 -9.21875 C 13.632812 -8.40625 13.765625 -7.488281 13.765625 -6.46875 C 13.765625 -5.46875 13.632812 -4.550781 13.375 -3.71875 C 13.113281 -2.894531 12.722656 -2.1875 12.203125 -1.59375 C 11.691406 -1 11.039062 -0.539062 10.25 -0.21875 C 9.46875 0.101562 8.5625 0.265625 7.53125 0.265625 Z M 7.53125 -10.484375 C 6.457031 -10.484375 5.664062 -10.117188 5.15625 -9.390625 C 4.65625 -8.671875 4.40625 -7.695312 4.40625 -6.46875 C 4.40625 -5.238281 4.65625 -4.257812 5.15625 -3.53125 C 5.664062 -2.8125 6.457031 -2.453125 7.53125 -2.453125 C 8.601562 -2.453125 9.390625 -2.8125 9.890625 -3.53125 C 10.398438 -4.257812 10.65625 -5.238281 10.65625 -6.46875 C 10.65625 -7.695312 10.398438 -8.671875 9.890625 -9.390625 C 9.390625 -10.117188 8.601562 -10.484375 7.53125 -10.484375 Z M 7.53125 -10.484375 "/></g></g></g><g fill="#004aad" fill-opacity="1"><g transform="translate(120.688371, 70.017317)"><g><path d="M 1.6875 -11.625 C 1.6875 -12.15625 1.832031 -12.550781 2.125 -12.8125 C 2.414062 -13.070312 2.785156 -13.203125 3.234375 -13.203125 C 3.679688 -13.203125 4.050781 -13.070312 4.34375 -12.8125 C 4.632812 -12.550781 4.78125 -12.15625 4.78125 -11.625 C 5.40625 -12.675781 6.253906 -13.203125 7.328125 -13.203125 C 7.773438 -13.203125 8.148438 -13.070312 8.453125 -12.8125 C 8.753906 -12.550781 8.90625 -12.160156 8.90625 -11.640625 C 8.90625 -11.109375 8.785156 -10.71875 8.546875 -10.46875 C 8.316406 -10.21875 8.046875 -10.09375 7.734375 -10.09375 C 7.597656 -10.09375 7.445312 -10.113281 7.28125 -10.15625 C 7.113281 -10.195312 6.910156 -10.21875 6.671875 -10.21875 C 5.953125 -10.21875 5.457031 -9.910156 5.1875 -9.296875 C 4.914062 -8.691406 4.78125 -7.84375 4.78125 -6.75 L 4.78125 -1.3125 C 4.78125 -0.78125 4.632812 -0.382812 4.34375 -0.125 C 4.050781 0.132812 3.679688 0.265625 3.234375 0.265625 C 2.785156 0.265625 2.414062 0.132812 2.125 -0.125 C 1.832031 -0.382812 1.6875 -0.78125 1.6875 -1.3125 Z M 1.6875 -11.625 "/></g></g></g><g fill="#004aad" fill-opacity="1"><g transform="translate(130.107669, 70.017317)"><g><path d="M 8.203125 -2.453125 C 8.703125 -2.453125 9.132812 -2.492188 9.5 -2.578125 C 9.875 -2.671875 10.203125 -2.769531 10.484375 -2.875 C 10.773438 -2.976562 11.035156 -3.070312 11.265625 -3.15625 C 11.503906 -3.238281 11.722656 -3.28125 11.921875 -3.28125 C 12.234375 -3.28125 12.5 -3.179688 12.71875 -2.984375 C 12.9375 -2.785156 13.046875 -2.515625 13.046875 -2.171875 C 13.046875 -1.691406 12.863281 -1.289062 12.5 -0.96875 C 12.132812 -0.644531 11.691406 -0.394531 11.171875 -0.21875 C 10.660156 -0.0390625 10.128906 0.0820312 9.578125 0.15625 C 9.023438 0.226562 8.566406 0.265625 8.203125 0.265625 C 7.203125 0.265625 6.28125 0.128906 5.4375 -0.140625 C 4.59375 -0.421875 3.863281 -0.84375 3.25 -1.40625 C 2.632812 -1.96875 2.15625 -2.671875 1.8125 -3.515625 C 1.46875 -4.359375 1.296875 -5.34375 1.296875 -6.46875 C 1.296875 -7.488281 1.421875 -8.40625 1.671875 -9.21875 C 1.929688 -10.039062 2.320312 -10.75 2.84375 -11.34375 C 3.375 -11.9375 4.03125 -12.394531 4.8125 -12.71875 C 5.59375 -13.039062 6.5 -13.203125 7.53125 -13.203125 C 8.507812 -13.203125 9.363281 -13.050781 10.09375 -12.75 C 10.832031 -12.445312 11.441406 -12.023438 11.921875 -11.484375 C 12.410156 -10.953125 12.773438 -10.332031 13.015625 -9.625 C 13.253906 -8.914062 13.375 -8.15625 13.375 -7.34375 C 13.375 -6.675781 13.195312 -6.164062 12.84375 -5.8125 C 12.488281 -5.457031 11.878906 -5.28125 11.015625 -5.28125 L 4.46875 -5.28125 C 4.664062 -4.28125 5.078125 -3.554688 5.703125 -3.109375 C 6.335938 -2.671875 7.171875 -2.453125 8.203125 -2.453125 Z M 7.53125 -10.484375 C 6.695312 -10.484375 6.039062 -10.257812 5.5625 -9.8125 C 5.082031 -9.375 4.742188 -8.769531 4.546875 -8 L 10.25 -8 C 10.175781 -8.820312 9.90625 -9.441406 9.4375 -9.859375 C 8.976562 -10.273438 8.34375 -10.484375 7.53125 -10.484375 Z M 7.53125 -10.484375 "/></g></g></g><g fill="#004aad" fill-opacity="1"><g transform="translate(144.780045, 70.017317)"><g><path d="M 4.78125 -1.3125 C 4.78125 -0.78125 4.632812 -0.382812 4.34375 -0.125 C 4.050781 0.132812 3.679688 0.265625 3.234375 0.265625 C 2.785156 0.265625 2.414062 0.132812 2.125 -0.125 C 1.832031 -0.382812 1.6875 -0.78125 1.6875 -1.3125 L 1.6875 -11.625 C 1.6875 -12.15625 1.832031 -12.550781 2.125 -12.8125 C 2.414062 -13.070312 2.785156 -13.203125 3.234375 -13.203125 C 3.679688 -13.203125 4.050781 -13.066406 4.34375 -12.796875 C 4.632812 -12.523438 4.78125 -12.097656 4.78125 -11.515625 C 5.28125 -12.085938 5.832031 -12.507812 6.4375 -12.78125 C 7.039062 -13.0625 7.75 -13.203125 8.5625 -13.203125 C 9.851562 -13.203125 10.859375 -12.8125 11.578125 -12.03125 C 12.296875 -11.257812 12.65625 -10.046875 12.65625 -8.390625 L 12.65625 -1.3125 C 12.65625 -0.78125 12.503906 -0.382812 12.203125 -0.125 C 11.910156 0.132812 11.539062 0.265625 11.09375 0.265625 C 10.644531 0.265625 10.273438 0.132812 9.984375 -0.125 C 9.691406 -0.382812 9.546875 -0.78125 9.546875 -1.3125 L 9.546875 -8.3125 C 9.546875 -9.0625 9.351562 -9.609375 8.96875 -9.953125 C 8.59375 -10.304688 8.097656 -10.484375 7.484375 -10.484375 C 6.679688 -10.484375 6.03125 -10.140625 5.53125 -9.453125 C 5.03125 -8.773438 4.78125 -7.6875 4.78125 -6.1875 Z M 4.78125 -1.3125 "/></g></g></g><g fill="#004aad" fill-opacity="1"><g transform="translate(159.116017, 70.017317)"><g><path d="M 7.53125 0.265625 C 6.5 0.265625 5.585938 0.101562 4.796875 -0.21875 C 4.015625 -0.539062 3.363281 -1 2.84375 -1.59375 C 2.320312 -2.1875 1.929688 -2.894531 1.671875 -3.71875 C 1.421875 -4.550781 1.296875 -5.46875 1.296875 -6.46875 C 1.296875 -7.488281 1.421875 -8.40625 1.671875 -9.21875 C 1.929688 -10.039062 2.320312 -10.75 2.84375 -11.34375 C 3.363281 -11.9375 4.015625 -12.394531 4.796875 -12.71875 C 5.585938 -13.039062 6.5 -13.203125 7.53125 -13.203125 C 8.5625 -13.203125 9.46875 -13.039062 10.25 -12.71875 C 11.039062 -12.394531 11.691406 -11.9375 12.203125 -11.34375 C 12.722656 -10.75 13.113281 -10.039062 13.375 -9.21875 C 13.632812 -8.40625 13.765625 -7.488281 13.765625 -6.46875 C 13.765625 -5.46875 13.632812 -4.550781 13.375 -3.71875 C 13.113281 -2.894531 12.722656 -2.1875 12.203125 -1.59375 C 11.691406 -1 11.039062 -0.539062 10.25 -0.21875 C 9.46875 0.101562 8.5625 0.265625 7.53125 0.265625 Z M 7.53125 -10.484375 C 6.457031 -10.484375 5.664062 -10.117188 5.15625 -9.390625 C 4.65625 -8.671875 4.40625 -7.695312 4.40625 -6.46875 C 4.40625 -5.238281 4.65625 -4.257812 5.15625 -3.53125 C 5.664062 -2.8125 6.457031 -2.453125 7.53125 -2.453125 C 8.601562 -2.453125 9.390625 -2.8125 9.890625 -3.53125 C 10.398438 -4.257812 10.65625 -5.238281 10.65625 -6.46875 C 10.65625 -7.695312 10.398438 -8.671875 9.890625 -9.390625 C 9.390625 -10.117188 8.601562 -10.484375 7.53125 -10.484375 Z M 7.53125 -10.484375 "/></g></g></g></svg>