<svg xmlns="http://www.w3.org/2000/svg" xmlns:xlink="http://www.w3.org/1999/xlink" width="170" zoomAndPan="magnify" viewBox="0 0 127.5 44.999999" height="60" preserveAspectRatio="xMidYMid meet" version="1.0"><defs><g/><clipPath id="2b0394d6fc"><path d="M 0 0.0859375 L 127 0.0859375 L 127 44.910156 L 0 44.910156 Z M 0 0.0859375 " clip-rule="nonzero"/></clipPath><clipPath id="db7056e98f"><path d="M 0 0.796875 L 44.824219 0.796875 L 44.824219 44.128906 L 0 44.128906 Z M 0 0.796875 " clip-rule="nonzero"/></clipPath></defs><g clip-path="url(#2b0394d6fc)"><path fill="#ffffff" d="M 0 0.0859375 L 127 0.0859375 L 127 44.910156 L 0 44.910156 Z M 0 0.0859375 " fill-opacity="1" fill-rule="nonzero"/><path fill="#ffffff" d="M 0 0.0859375 L 127 0.0859375 L 127 44.910156 L 0 44.910156 Z M 0 0.0859375 " fill-opacity="1" fill-rule="nonzero"/></g><path fill="#004aad" d="M 3.101562 3.898438 L 4.652344 3.898438 L 4.652344 5.449219 L 3.101562 5.449219 Z M 3.101562 3.898438 " fill-opacity="1" fill-rule="nonzero"/><path fill="#004aad" d="M 6.203125 3.898438 L 7.75 3.898438 L 7.75 5.449219 L 6.203125 5.449219 Z M 6.203125 3.898438 " fill-opacity="1" fill-rule="nonzero"/><path fill="#004aad" d="M 9.300781 3.898438 L 10.851562 3.898438 L 10.851562 5.449219 L 9.300781 5.449219 Z M 9.300781 3.898438 " fill-opacity="1" fill-rule="nonzero"/><g clip-path="url(#db7056e98f)"><path fill="#004aad" d="M 41.851562 0.796875 L 3.101562 0.796875 C 2.691406 0.796875 2.296875 0.878906 1.914062 1.035156 C 1.535156 1.191406 1.199219 1.417969 0.910156 1.707031 C 0.621094 1.996094 0.394531 2.332031 0.238281 2.710938 C 0.0820312 3.09375 0 3.488281 0 3.898438 L 0 34.898438 C 0 35.308594 0.0820312 35.703125 0.238281 36.085938 C 0.394531 36.464844 0.621094 36.796875 0.910156 37.089844 C 1.199219 37.378906 1.535156 37.605469 1.914062 37.761719 C 2.296875 37.917969 2.691406 37.996094 3.101562 38 L 16.765625 38 L 16.34375 42.648438 L 13.953125 42.648438 L 13.953125 44.199219 L 31 44.199219 L 31 42.648438 L 28.609375 42.648438 L 28.1875 38 L 41.851562 38 C 42.261719 37.996094 42.65625 37.917969 43.039062 37.761719 C 43.417969 37.605469 43.75 37.378906 44.042969 37.089844 C 44.332031 36.796875 44.558594 36.464844 44.714844 36.085938 C 44.871094 35.703125 44.949219 35.308594 44.953125 34.898438 L 44.953125 3.898438 C 44.949219 3.488281 44.871094 3.09375 44.714844 2.710938 C 44.558594 2.332031 44.332031 1.996094 44.042969 1.707031 C 43.75 1.417969 43.417969 1.191406 43.039062 1.035156 C 42.65625 0.878906 42.261719 0.796875 41.851562 0.796875 Z M 3.101562 2.347656 L 41.851562 2.347656 C 42.058594 2.347656 42.253906 2.386719 42.445312 2.464844 C 42.632812 2.546875 42.800781 2.65625 42.945312 2.804688 C 43.09375 2.949219 43.203125 3.117188 43.28125 3.304688 C 43.363281 3.496094 43.402344 3.691406 43.402344 3.898438 L 43.402344 7 L 1.550781 7 L 1.550781 3.898438 C 1.550781 3.691406 1.589844 3.496094 1.667969 3.304688 C 1.75 3.117188 1.859375 2.949219 2.003906 2.804688 C 2.152344 2.65625 2.320312 2.546875 2.507812 2.464844 C 2.699219 2.386719 2.894531 2.347656 3.101562 2.347656 Z M 43.402344 8.546875 L 43.402344 30.25 L 1.550781 30.25 L 1.550781 8.546875 Z M 27.050781 42.648438 L 17.898438 42.648438 L 18.324219 38 L 26.628906 38 Z M 41.851562 36.449219 L 3.101562 36.449219 C 2.894531 36.449219 2.699219 36.410156 2.507812 36.328125 C 2.320312 36.25 2.152344 36.140625 2.003906 35.992188 C 1.859375 35.847656 1.75 35.679688 1.667969 35.492188 C 1.589844 35.300781 1.550781 35.105469 1.550781 34.898438 L 1.550781 31.796875 L 43.402344 31.796875 L 43.402344 34.898438 C 43.402344 35.105469 43.363281 35.300781 43.28125 35.492188 C 43.203125 35.679688 43.09375 35.847656 42.945312 35.992188 C 42.800781 36.140625 42.632812 36.25 42.445312 36.328125 C 42.253906 36.410156 42.058594 36.449219 41.851562 36.449219 Z M 41.851562 36.449219 " fill-opacity="1" fill-rule="nonzero"/></g><path fill="#004aad" d="M 21.703125 33.347656 L 23.25 33.347656 L 23.25 34.898438 L 21.703125 34.898438 Z M 21.703125 33.347656 " fill-opacity="1" fill-rule="nonzero"/><path fill="#004aad" d="M 3.875 17.074219 L 5.425781 17.074219 L 5.425781 18.625 L 3.875 18.625 Z M 3.875 17.074219 " fill-opacity="1" fill-rule="nonzero"/><path fill="#004aad" d="M 6.976562 17.074219 L 18.601562 17.074219 L 18.601562 18.625 L 6.976562 18.625 Z M 6.976562 17.074219 " fill-opacity="1" fill-rule="nonzero"/><path fill="#004aad" d="M 3.875 20.171875 L 5.425781 20.171875 L 5.425781 21.722656 L 3.875 21.722656 Z M 3.875 20.171875 " fill-opacity="1" fill-rule="nonzero"/><path fill="#004aad" d="M 6.976562 20.171875 L 27.125 20.171875 L 27.125 21.722656 L 6.976562 21.722656 Z M 6.976562 20.171875 " fill-opacity="1" fill-rule="nonzero"/><path fill="#004aad" d="M 3.875 23.273438 L 5.425781 23.273438 L 5.425781 24.824219 L 3.875 24.824219 Z M 3.875 23.273438 " fill-opacity="1" fill-rule="nonzero"/><path fill="#004aad" d="M 6.976562 23.273438 L 21.703125 23.273438 L 21.703125 24.824219 L 6.976562 24.824219 Z M 6.976562 23.273438 " fill-opacity="1" fill-rule="nonzero"/><path fill="#004aad" d="M 3.875 26.375 L 5.425781 26.375 L 5.425781 27.921875 L 3.875 27.921875 Z M 3.875 26.375 " fill-opacity="1" fill-rule="nonzero"/><path fill="#004aad" d="M 6.976562 26.375 L 29.453125 26.375 L 29.453125 27.921875 L 6.976562 27.921875 Z M 6.976562 26.375 " fill-opacity="1" fill-rule="nonzero"/><path fill="#004aad" d="M 4.101562 13.746094 L 5.652344 15.296875 L 6.75 14.199219 L 5.746094 13.199219 L 6.75 12.195312 L 5.652344 11.101562 L 4.101562 12.648438 C 3.953125 12.800781 3.875 12.984375 3.875 13.199219 C 3.875 13.414062 3.953125 13.59375 4.101562 13.746094 Z M 4.101562 13.746094 " fill-opacity="1" fill-rule="nonzero"/><path fill="#004aad" d="M 11.851562 14.199219 L 12.949219 15.296875 L 14.5 13.746094 C 14.652344 13.59375 14.726562 13.414062 14.726562 13.199219 C 14.726562 12.984375 14.652344 12.800781 14.5 12.648438 L 12.949219 11.101562 L 11.851562 12.195312 L 12.855469 13.199219 Z M 11.851562 14.199219 " fill-opacity="1" fill-rule="nonzero"/><path fill="#004aad" d="M 7.789062 15.277344 L 9.339844 10.628906 L 10.8125 11.117188 L 9.261719 15.769531 Z M 7.789062 15.277344 " fill-opacity="1" fill-rule="nonzero"/><path fill="#004aad" d="M 28.675781 20.171875 L 33.328125 20.171875 L 33.328125 21.722656 L 28.675781 21.722656 Z M 28.675781 20.171875 " fill-opacity="1" fill-rule="nonzero"/><path fill="#004aad" d="M 31 26.375 L 32.550781 26.375 L 32.550781 27.921875 L 31 27.921875 Z M 31 26.375 " fill-opacity="1" fill-rule="nonzero"/><path fill="#004aad" d="M 34.101562 26.375 L 35.652344 26.375 L 35.652344 27.921875 L 34.101562 27.921875 Z M 34.101562 26.375 " fill-opacity="1" fill-rule="nonzero"/><path fill="#004aad" d="M 20.152344 17.074219 L 21.703125 17.074219 L 21.703125 18.625 L 20.152344 18.625 Z M 20.152344 17.074219 " fill-opacity="1" fill-rule="nonzero"/><g fill="#004aad" fill-opacity="1"><g transform="translate(47.376666, 14.743589)"><g><path d="M 8 -12.203125 C 8.332031 -12.203125 8.578125 -12.113281 8.734375 -11.9375 C 8.890625 -11.757812 8.96875 -11.535156 8.96875 -11.265625 C 8.96875 -11.003906 8.890625 -10.785156 8.734375 -10.609375 C 8.578125 -10.441406 8.332031 -10.359375 8 -10.359375 L 3.21875 -10.359375 L 3.21875 -7.015625 L 7.734375 -7.015625 C 8.066406 -7.015625 8.3125 -6.925781 8.46875 -6.75 C 8.632812 -6.582031 8.71875 -6.363281 8.71875 -6.09375 C 8.71875 -5.832031 8.632812 -5.613281 8.46875 -5.4375 C 8.3125 -5.269531 8.066406 -5.1875 7.734375 -5.1875 L 3.21875 -5.1875 L 3.21875 -1.828125 L 8.171875 -1.828125 C 8.503906 -1.828125 8.75 -1.738281 8.90625 -1.5625 C 9.0625 -1.394531 9.140625 -1.175781 9.140625 -0.90625 C 9.140625 -0.632812 9.0625 -0.414062 8.90625 -0.25 C 8.75 -0.0820312 8.503906 0 8.171875 0 L 2.671875 0 C 2.109375 0 1.707031 -0.109375 1.46875 -0.328125 C 1.238281 -0.554688 1.125 -0.972656 1.125 -1.578125 L 1.125 -10.609375 C 1.125 -11.210938 1.238281 -11.628906 1.46875 -11.859375 C 1.707031 -12.085938 2.109375 -12.203125 2.671875 -12.203125 Z M 8 -12.203125 "/></g></g></g><g fill="#004aad" fill-opacity="1"><g transform="translate(57.136183, 14.743589)"><g><path d="M 4.484375 -6.796875 L 1.5 -6.796875 C 1.164062 -6.796875 0.914062 -6.890625 0.75 -7.078125 C 0.582031 -7.265625 0.5 -7.488281 0.5 -7.75 C 0.5 -8.019531 0.582031 -8.25 0.75 -8.4375 C 0.914062 -8.625 1.164062 -8.71875 1.5 -8.71875 L 6.84375 -8.71875 C 7.363281 -8.71875 7.625 -8.492188 7.625 -8.046875 C 7.625 -7.898438 7.59375 -7.757812 7.53125 -7.625 C 7.46875 -7.5 7.363281 -7.332031 7.21875 -7.125 L 3.65625 -1.921875 L 6.96875 -1.921875 C 7.300781 -1.921875 7.550781 -1.828125 7.71875 -1.640625 C 7.882812 -1.453125 7.96875 -1.222656 7.96875 -0.953125 C 7.96875 -0.691406 7.882812 -0.46875 7.71875 -0.28125 C 7.550781 -0.09375 7.300781 0 6.96875 0 L 1.3125 0 C 0.78125 0 0.515625 -0.21875 0.515625 -0.65625 C 0.515625 -0.8125 0.546875 -0.953125 0.609375 -1.078125 C 0.679688 -1.203125 0.789062 -1.367188 0.9375 -1.578125 Z M 4.484375 -6.796875 "/></g></g></g><g fill="#004aad" fill-opacity="1"><g transform="translate(65.449198, 14.743589)"><g><path d="M 5.515625 -1.65625 C 5.859375 -1.65625 6.15625 -1.679688 6.40625 -1.734375 C 6.65625 -1.796875 6.875 -1.859375 7.0625 -1.921875 C 7.257812 -1.992188 7.4375 -2.0625 7.59375 -2.125 C 7.75 -2.1875 7.894531 -2.21875 8.03125 -2.21875 C 8.238281 -2.21875 8.414062 -2.148438 8.5625 -2.015625 C 8.707031 -1.878906 8.78125 -1.695312 8.78125 -1.46875 C 8.78125 -1.132812 8.65625 -0.859375 8.40625 -0.640625 C 8.164062 -0.429688 7.867188 -0.265625 7.515625 -0.140625 C 7.171875 -0.0234375 6.8125 0.0507812 6.4375 0.09375 C 6.070312 0.144531 5.765625 0.171875 5.515625 0.171875 C 4.847656 0.171875 4.226562 0.078125 3.65625 -0.109375 C 3.09375 -0.296875 2.601562 -0.578125 2.1875 -0.953125 C 1.769531 -1.328125 1.445312 -1.796875 1.21875 -2.359375 C 0.988281 -2.929688 0.875 -3.597656 0.875 -4.359375 C 0.875 -5.046875 0.957031 -5.660156 1.125 -6.203125 C 1.300781 -6.753906 1.566406 -7.226562 1.921875 -7.625 C 2.273438 -8.03125 2.710938 -8.34375 3.234375 -8.5625 C 3.765625 -8.78125 4.375 -8.890625 5.0625 -8.890625 C 5.726562 -8.890625 6.304688 -8.785156 6.796875 -8.578125 C 7.296875 -8.378906 7.707031 -8.097656 8.03125 -7.734375 C 8.351562 -7.367188 8.59375 -6.945312 8.75 -6.46875 C 8.914062 -6 9 -5.492188 9 -4.953125 C 9 -4.492188 8.878906 -4.144531 8.640625 -3.90625 C 8.410156 -3.664062 8.003906 -3.546875 7.421875 -3.546875 L 3.015625 -3.546875 C 3.140625 -2.878906 3.414062 -2.394531 3.84375 -2.09375 C 4.269531 -1.800781 4.828125 -1.65625 5.515625 -1.65625 Z M 5.0625 -7.0625 C 4.507812 -7.0625 4.070312 -6.910156 3.75 -6.609375 C 3.425781 -6.316406 3.195312 -5.910156 3.0625 -5.390625 L 6.90625 -5.390625 C 6.851562 -5.941406 6.671875 -6.359375 6.359375 -6.640625 C 6.046875 -6.921875 5.613281 -7.0625 5.0625 -7.0625 Z M 5.0625 -7.0625 "/></g></g></g><g fill="#004aad" fill-opacity="1"><g transform="translate(75.330712, 14.743589)"><g><path d="M 6.765625 -7.90625 C 6.765625 -8.21875 6.863281 -8.457031 7.0625 -8.625 C 7.257812 -8.800781 7.507812 -8.890625 7.8125 -8.890625 C 8.113281 -8.890625 8.359375 -8.800781 8.546875 -8.625 C 8.742188 -8.445312 8.84375 -8.179688 8.84375 -7.828125 L 8.84375 2.59375 C 8.84375 2.957031 8.742188 3.222656 8.546875 3.390625 C 8.359375 3.566406 8.113281 3.65625 7.8125 3.65625 C 7.507812 3.65625 7.257812 3.566406 7.0625 3.390625 C 6.863281 3.222656 6.765625 2.957031 6.765625 2.59375 L 6.765625 -1.046875 C 6.640625 -0.910156 6.492188 -0.769531 6.328125 -0.625 C 6.171875 -0.476562 5.988281 -0.34375 5.78125 -0.21875 C 5.570312 -0.101562 5.335938 -0.0078125 5.078125 0.0625 C 4.828125 0.132812 4.550781 0.171875 4.25 0.171875 C 3.769531 0.171875 3.320312 0.0859375 2.90625 -0.078125 C 2.5 -0.253906 2.144531 -0.519531 1.84375 -0.875 C 1.539062 -1.238281 1.300781 -1.695312 1.125 -2.25 C 0.957031 -2.800781 0.875 -3.453125 0.875 -4.203125 C 0.875 -4.992188 0.960938 -5.679688 1.140625 -6.265625 C 1.316406 -6.847656 1.566406 -7.332031 1.890625 -7.71875 C 2.210938 -8.113281 2.597656 -8.40625 3.046875 -8.59375 C 3.503906 -8.789062 4.003906 -8.890625 4.546875 -8.890625 C 4.953125 -8.890625 5.347656 -8.804688 5.734375 -8.640625 C 6.117188 -8.472656 6.460938 -8.226562 6.765625 -7.90625 Z M 6.765625 -5.4375 C 6.765625 -5.675781 6.707031 -5.894531 6.59375 -6.09375 C 6.476562 -6.289062 6.332031 -6.460938 6.15625 -6.609375 C 5.976562 -6.753906 5.78125 -6.863281 5.5625 -6.9375 C 5.34375 -7.019531 5.113281 -7.0625 4.875 -7.0625 C 4.28125 -7.0625 3.8125 -6.8125 3.46875 -6.3125 C 3.132812 -5.8125 2.96875 -5.109375 2.96875 -4.203125 C 2.96875 -3.328125 3.128906 -2.679688 3.453125 -2.265625 C 3.773438 -1.859375 4.195312 -1.65625 4.71875 -1.65625 C 5.300781 -1.65625 5.785156 -1.921875 6.171875 -2.453125 C 6.566406 -2.992188 6.765625 -3.789062 6.765625 -4.84375 Z M 6.765625 -5.4375 "/></g></g></g><g fill="#004aad" fill-opacity="1"><g transform="translate(85.316792, 14.743589)"><g><path d="M 6.421875 -1.078125 C 6.171875 -0.671875 5.84375 -0.359375 5.4375 -0.140625 C 5.03125 0.0664062 4.570312 0.171875 4.0625 0.171875 C 3.15625 0.171875 2.4375 -0.078125 1.90625 -0.578125 C 1.382812 -1.085938 1.125 -1.921875 1.125 -3.078125 L 1.125 -7.828125 C 1.125 -8.179688 1.222656 -8.445312 1.421875 -8.625 C 1.617188 -8.800781 1.867188 -8.890625 2.171875 -8.890625 C 2.472656 -8.890625 2.722656 -8.800781 2.921875 -8.625 C 3.117188 -8.445312 3.21875 -8.179688 3.21875 -7.828125 L 3.21875 -3.171875 C 3.21875 -2.648438 3.335938 -2.265625 3.578125 -2.015625 C 3.828125 -1.773438 4.15625 -1.65625 4.5625 -1.65625 C 5.125 -1.65625 5.570312 -1.894531 5.90625 -2.375 C 6.25 -2.851562 6.421875 -3.539062 6.421875 -4.4375 L 6.421875 -7.828125 C 6.421875 -8.179688 6.519531 -8.445312 6.71875 -8.625 C 6.914062 -8.800781 7.164062 -8.890625 7.46875 -8.890625 C 7.769531 -8.890625 8.019531 -8.800781 8.21875 -8.625 C 8.414062 -8.445312 8.515625 -8.179688 8.515625 -7.828125 L 8.515625 -3.09375 C 8.515625 -2.707031 8.523438 -2.390625 8.546875 -2.140625 C 8.566406 -1.890625 8.585938 -1.675781 8.609375 -1.5 C 8.640625 -1.332031 8.664062 -1.1875 8.6875 -1.0625 C 8.707031 -0.945312 8.71875 -0.816406 8.71875 -0.671875 C 8.71875 -0.441406 8.628906 -0.242188 8.453125 -0.078125 C 8.285156 0.0859375 8.035156 0.171875 7.703125 0.171875 C 7.328125 0.171875 7.039062 0.0820312 6.84375 -0.09375 C 6.644531 -0.269531 6.503906 -0.597656 6.421875 -1.078125 Z M 6.421875 -1.078125 "/></g></g></g><g fill="#004aad" fill-opacity="1"><g transform="translate(94.971743, 14.743589)"><g><path d="M 1.3125 -11.15625 C 1.3125 -11.488281 1.425781 -11.773438 1.65625 -12.015625 C 1.894531 -12.253906 2.1875 -12.375 2.53125 -12.375 C 2.863281 -12.375 3.148438 -12.253906 3.390625 -12.015625 C 3.628906 -11.773438 3.75 -11.488281 3.75 -11.15625 C 3.75 -10.8125 3.628906 -10.519531 3.390625 -10.28125 C 3.148438 -10.050781 2.863281 -9.9375 2.53125 -9.9375 C 2.1875 -9.9375 1.894531 -10.050781 1.65625 -10.28125 C 1.425781 -10.519531 1.3125 -10.8125 1.3125 -11.15625 Z M 2.078125 -8.71875 C 2.378906 -8.71875 2.628906 -8.695312 2.828125 -8.65625 C 3.023438 -8.613281 3.175781 -8.539062 3.28125 -8.4375 C 3.394531 -8.332031 3.472656 -8.1875 3.515625 -8 C 3.554688 -7.820312 3.578125 -7.59375 3.578125 -7.3125 L 3.578125 -0.890625 C 3.578125 -0.523438 3.476562 -0.253906 3.28125 -0.078125 C 3.082031 0.0859375 2.832031 0.171875 2.53125 0.171875 C 2.226562 0.171875 1.976562 0.0859375 1.78125 -0.078125 C 1.582031 -0.253906 1.484375 -0.523438 1.484375 -0.890625 L 1.484375 -6.875 L 1.234375 -6.875 C 0.898438 -6.875 0.65625 -6.957031 0.5 -7.125 C 0.34375 -7.300781 0.265625 -7.519531 0.265625 -7.78125 C 0.265625 -8.050781 0.34375 -8.273438 0.5 -8.453125 C 0.65625 -8.628906 0.898438 -8.71875 1.234375 -8.71875 Z M 2.078125 -8.71875 "/></g></g></g><g fill="#004aad" fill-opacity="1"><g transform="translate(99.677228, 14.743589)"><g><path d="M 5.515625 -1.65625 C 5.859375 -1.65625 6.15625 -1.679688 6.40625 -1.734375 C 6.65625 -1.796875 6.875 -1.859375 7.0625 -1.921875 C 7.257812 -1.992188 7.4375 -2.0625 7.59375 -2.125 C 7.75 -2.1875 7.894531 -2.21875 8.03125 -2.21875 C 8.238281 -2.21875 8.414062 -2.148438 8.5625 -2.015625 C 8.707031 -1.878906 8.78125 -1.695312 8.78125 -1.46875 C 8.78125 -1.132812 8.65625 -0.859375 8.40625 -0.640625 C 8.164062 -0.429688 7.867188 -0.265625 7.515625 -0.140625 C 7.171875 -0.0234375 6.8125 0.0507812 6.4375 0.09375 C 6.070312 0.144531 5.765625 0.171875 5.515625 0.171875 C 4.847656 0.171875 4.226562 0.078125 3.65625 -0.109375 C 3.09375 -0.296875 2.601562 -0.578125 2.1875 -0.953125 C 1.769531 -1.328125 1.445312 -1.796875 1.21875 -2.359375 C 0.988281 -2.929688 0.875 -3.597656 0.875 -4.359375 C 0.875 -5.046875 0.957031 -5.660156 1.125 -6.203125 C 1.300781 -6.753906 1.566406 -7.226562 1.921875 -7.625 C 2.273438 -8.03125 2.710938 -8.34375 3.234375 -8.5625 C 3.765625 -8.78125 4.375 -8.890625 5.0625 -8.890625 C 5.726562 -8.890625 6.304688 -8.785156 6.796875 -8.578125 C 7.296875 -8.378906 7.707031 -8.097656 8.03125 -7.734375 C 8.351562 -7.367188 8.59375 -6.945312 8.75 -6.46875 C 8.914062 -6 9 -5.492188 9 -4.953125 C 9 -4.492188 8.878906 -4.144531 8.640625 -3.90625 C 8.410156 -3.664062 8.003906 -3.546875 7.421875 -3.546875 L 3.015625 -3.546875 C 3.140625 -2.878906 3.414062 -2.394531 3.84375 -2.09375 C 4.269531 -1.800781 4.828125 -1.65625 5.515625 -1.65625 Z M 5.0625 -7.0625 C 4.507812 -7.0625 4.070312 -6.910156 3.75 -6.609375 C 3.425781 -6.316406 3.195312 -5.910156 3.0625 -5.390625 L 6.90625 -5.390625 C 6.851562 -5.941406 6.671875 -6.359375 6.359375 -6.640625 C 6.046875 -6.921875 5.613281 -7.0625 5.0625 -7.0625 Z M 5.0625 -7.0625 "/></g></g></g><g fill="#004aad" fill-opacity="1"><g transform="translate(109.558742, 14.743589)"><g><path d="M 3.21875 -2.46875 C 3.21875 -2.21875 3.265625 -2.046875 3.359375 -1.953125 C 3.460938 -1.859375 3.570312 -1.8125 3.6875 -1.8125 C 3.78125 -1.8125 3.859375 -1.820312 3.921875 -1.84375 C 3.992188 -1.863281 4.082031 -1.875 4.1875 -1.875 C 4.34375 -1.875 4.46875 -1.796875 4.5625 -1.640625 C 4.664062 -1.484375 4.71875 -1.304688 4.71875 -1.109375 C 4.71875 -0.679688 4.582031 -0.359375 4.3125 -0.140625 C 4.039062 0.0664062 3.65625 0.171875 3.15625 0.171875 C 2.875 0.171875 2.609375 0.125 2.359375 0.03125 C 2.109375 -0.0507812 1.894531 -0.1875 1.71875 -0.375 C 1.539062 -0.5625 1.394531 -0.804688 1.28125 -1.109375 C 1.175781 -1.421875 1.125 -1.796875 1.125 -2.234375 L 1.125 -11.828125 C 1.125 -12.191406 1.222656 -12.457031 1.421875 -12.625 C 1.617188 -12.800781 1.867188 -12.890625 2.171875 -12.890625 C 2.472656 -12.890625 2.722656 -12.800781 2.921875 -12.625 C 3.117188 -12.457031 3.21875 -12.191406 3.21875 -11.828125 Z M 3.21875 -2.46875 "/></g></g></g><g fill="#545454" fill-opacity="1"><g transform="translate(47.812316, 41.747642)"><g><path d="M 1.796875 -4.140625 C 2.242188 -4.140625 2.632812 -4.054688 2.96875 -3.890625 C 3.300781 -3.722656 3.554688 -3.476562 3.734375 -3.15625 C 3.910156 -2.84375 4 -2.476562 4 -2.0625 C 4 -1.632812 3.910156 -1.265625 3.734375 -0.953125 C 3.554688 -0.648438 3.300781 -0.414062 2.96875 -0.25 C 2.632812 -0.0820312 2.242188 0 1.796875 0 L 0.453125 0 L 0.453125 -4.140625 Z M 1.796875 -0.5625 C 2.285156 -0.5625 2.660156 -0.691406 2.921875 -0.953125 C 3.179688 -1.210938 3.3125 -1.582031 3.3125 -2.0625 C 3.3125 -2.539062 3.179688 -2.914062 2.921875 -3.1875 C 2.660156 -3.457031 2.285156 -3.59375 1.796875 -3.59375 L 1.125 -3.59375 L 1.125 -0.5625 Z M 1.796875 -0.5625 "/></g></g></g><g fill="#545454" fill-opacity="1"><g transform="translate(52.587607, 41.747642)"><g><path d="M 1.125 -3.59375 L 1.125 -2.375 L 2.5625 -2.375 L 2.5625 -1.828125 L 1.125 -1.828125 L 1.125 -0.5625 L 2.734375 -0.5625 L 2.734375 0 L 0.453125 0 L 0.453125 -4.15625 L 2.734375 -4.15625 L 2.734375 -3.59375 Z M 1.125 -3.59375 "/></g></g></g><g fill="#545454" fill-opacity="1"><g transform="translate(56.257228, 41.747642)"><g><path d="M 1.8125 0.046875 C 1.53125 0.046875 1.28125 0 1.0625 -0.09375 C 0.84375 -0.195312 0.664062 -0.335938 0.53125 -0.515625 C 0.40625 -0.691406 0.34375 -0.898438 0.34375 -1.140625 L 1.078125 -1.140625 C 1.085938 -0.960938 1.15625 -0.816406 1.28125 -0.703125 C 1.40625 -0.585938 1.582031 -0.53125 1.8125 -0.53125 C 2.050781 -0.53125 2.234375 -0.585938 2.359375 -0.703125 C 2.492188 -0.816406 2.5625 -0.960938 2.5625 -1.140625 C 2.5625 -1.273438 2.519531 -1.382812 2.4375 -1.46875 C 2.351562 -1.5625 2.25 -1.628906 2.125 -1.671875 C 2.007812 -1.722656 1.84375 -1.78125 1.625 -1.84375 C 1.351562 -1.914062 1.132812 -1.988281 0.96875 -2.0625 C 0.800781 -2.132812 0.65625 -2.242188 0.53125 -2.390625 C 0.414062 -2.546875 0.359375 -2.753906 0.359375 -3.015625 C 0.359375 -3.253906 0.414062 -3.460938 0.53125 -3.640625 C 0.65625 -3.828125 0.820312 -3.96875 1.03125 -4.0625 C 1.25 -4.15625 1.5 -4.203125 1.78125 -4.203125 C 2.1875 -4.203125 2.515625 -4.097656 2.765625 -3.890625 C 3.023438 -3.691406 3.171875 -3.421875 3.203125 -3.078125 L 2.453125 -3.078125 C 2.429688 -3.222656 2.351562 -3.347656 2.21875 -3.453125 C 2.09375 -3.566406 1.925781 -3.625 1.71875 -3.625 C 1.519531 -3.625 1.359375 -3.570312 1.234375 -3.46875 C 1.109375 -3.375 1.046875 -3.234375 1.046875 -3.046875 C 1.046875 -2.921875 1.082031 -2.816406 1.15625 -2.734375 C 1.238281 -2.648438 1.335938 -2.582031 1.453125 -2.53125 C 1.578125 -2.488281 1.742188 -2.4375 1.953125 -2.375 C 2.222656 -2.300781 2.445312 -2.226562 2.625 -2.15625 C 2.800781 -2.082031 2.945312 -1.960938 3.0625 -1.796875 C 3.1875 -1.640625 3.25 -1.429688 3.25 -1.171875 C 3.25 -0.960938 3.191406 -0.765625 3.078125 -0.578125 C 2.960938 -0.390625 2.796875 -0.238281 2.578125 -0.125 C 2.359375 -0.0078125 2.101562 0.046875 1.8125 0.046875 Z M 1.8125 0.046875 "/></g></g></g><g fill="#545454" fill-opacity="1"><g transform="translate(60.404976, 41.747642)"><g><path d="M 2.953125 -0.84375 L 1.21875 -0.84375 L 0.90625 0 L 0.203125 0 L 1.6875 -4.15625 L 2.484375 -4.15625 L 3.96875 0 L 3.25 0 Z M 2.75 -1.40625 L 2.078125 -3.328125 L 1.40625 -1.40625 Z M 2.75 -1.40625 "/></g></g></g><g fill="#545454" fill-opacity="1"><g transform="translate(65.10855, 41.747642)"><g><path d="M 2.609375 0 L 1.640625 -1.65625 L 1.125 -1.65625 L 1.125 0 L 0.453125 0 L 0.453125 -4.140625 L 1.875 -4.140625 C 2.195312 -4.140625 2.46875 -4.082031 2.6875 -3.96875 C 2.90625 -3.863281 3.066406 -3.71875 3.171875 -3.53125 C 3.285156 -3.34375 3.34375 -3.132812 3.34375 -2.90625 C 3.34375 -2.632812 3.265625 -2.390625 3.109375 -2.171875 C 2.953125 -1.953125 2.710938 -1.800781 2.390625 -1.71875 L 3.421875 0 Z M 1.125 -2.203125 L 1.875 -2.203125 C 2.132812 -2.203125 2.328125 -2.265625 2.453125 -2.390625 C 2.585938 -2.515625 2.65625 -2.6875 2.65625 -2.90625 C 2.65625 -3.125 2.585938 -3.289062 2.453125 -3.40625 C 2.328125 -3.53125 2.132812 -3.59375 1.875 -3.59375 L 1.125 -3.59375 Z M 1.125 -2.203125 "/></g></g></g><g fill="#545454" fill-opacity="1"><g transform="translate(69.42365, 41.747642)"><g><path d="M 2.609375 0 L 1.640625 -1.65625 L 1.125 -1.65625 L 1.125 0 L 0.453125 0 L 0.453125 -4.140625 L 1.875 -4.140625 C 2.195312 -4.140625 2.46875 -4.082031 2.6875 -3.96875 C 2.90625 -3.863281 3.066406 -3.71875 3.171875 -3.53125 C 3.285156 -3.34375 3.34375 -3.132812 3.34375 -2.90625 C 3.34375 -2.632812 3.265625 -2.390625 3.109375 -2.171875 C 2.953125 -1.953125 2.710938 -1.800781 2.390625 -1.71875 L 3.421875 0 Z M 1.125 -2.203125 L 1.875 -2.203125 C 2.132812 -2.203125 2.328125 -2.265625 2.453125 -2.390625 C 2.585938 -2.515625 2.65625 -2.6875 2.65625 -2.90625 C 2.65625 -3.125 2.585938 -3.289062 2.453125 -3.40625 C 2.328125 -3.53125 2.132812 -3.59375 1.875 -3.59375 L 1.125 -3.59375 Z M 1.125 -2.203125 "/></g></g></g><g fill="#545454" fill-opacity="1"><g transform="translate(73.738749, 41.747642)"><g><path d="M 2.34375 0.046875 C 1.957031 0.046875 1.597656 -0.0390625 1.265625 -0.21875 C 0.941406 -0.40625 0.6875 -0.660156 0.5 -0.984375 C 0.3125 -1.304688 0.21875 -1.671875 0.21875 -2.078125 C 0.21875 -2.484375 0.3125 -2.847656 0.5 -3.171875 C 0.6875 -3.492188 0.941406 -3.742188 1.265625 -3.921875 C 1.597656 -4.109375 1.957031 -4.203125 2.34375 -4.203125 C 2.726562 -4.203125 3.082031 -4.109375 3.40625 -3.921875 C 3.726562 -3.742188 3.984375 -3.492188 4.171875 -3.171875 C 4.359375 -2.847656 4.453125 -2.484375 4.453125 -2.078125 C 4.453125 -1.671875 4.359375 -1.304688 4.171875 -0.984375 C 3.984375 -0.660156 3.726562 -0.40625 3.40625 -0.21875 C 3.082031 -0.0390625 2.726562 0.046875 2.34375 0.046875 Z M 2.34375 -0.546875 C 2.613281 -0.546875 2.851562 -0.609375 3.0625 -0.734375 C 3.28125 -0.859375 3.453125 -1.035156 3.578125 -1.265625 C 3.703125 -1.503906 3.765625 -1.773438 3.765625 -2.078125 C 3.765625 -2.390625 3.703125 -2.660156 3.578125 -2.890625 C 3.453125 -3.117188 3.28125 -3.296875 3.0625 -3.421875 C 2.851562 -3.546875 2.613281 -3.609375 2.34375 -3.609375 C 2.0625 -3.609375 1.8125 -3.546875 1.59375 -3.421875 C 1.382812 -3.296875 1.21875 -3.117188 1.09375 -2.890625 C 0.976562 -2.660156 0.921875 -2.390625 0.921875 -2.078125 C 0.921875 -1.773438 0.976562 -1.503906 1.09375 -1.265625 C 1.21875 -1.035156 1.382812 -0.859375 1.59375 -0.734375 C 1.8125 -0.609375 2.0625 -0.546875 2.34375 -0.546875 Z M 2.34375 -0.546875 "/></g></g></g><g fill="#545454" fill-opacity="1"><g transform="translate(78.962286, 41.747642)"><g><path d="M 1.125 -0.546875 L 2.53125 -0.546875 L 2.53125 0 L 0.453125 0 L 0.453125 -4.140625 L 1.125 -4.140625 Z M 1.125 -0.546875 "/></g></g></g><g fill="#545454" fill-opacity="1"><g transform="translate(82.153781, 41.747642)"><g><path d="M 1.125 -0.546875 L 2.53125 -0.546875 L 2.53125 0 L 0.453125 0 L 0.453125 -4.140625 L 1.125 -4.140625 Z M 1.125 -0.546875 "/></g></g></g><g fill="#545454" fill-opacity="1"><g transform="translate(85.345276, 41.747642)"><g><path d="M 2.953125 -0.84375 L 1.21875 -0.84375 L 0.90625 0 L 0.203125 0 L 1.6875 -4.15625 L 2.484375 -4.15625 L 3.96875 0 L 3.25 0 Z M 2.75 -1.40625 L 2.078125 -3.328125 L 1.40625 -1.40625 Z M 2.75 -1.40625 "/></g></g></g><g fill="#545454" fill-opacity="1"><g transform="translate(90.04885, 41.747642)"><g><path d="M 1.796875 -4.140625 C 2.242188 -4.140625 2.632812 -4.054688 2.96875 -3.890625 C 3.300781 -3.722656 3.554688 -3.476562 3.734375 -3.15625 C 3.910156 -2.84375 4 -2.476562 4 -2.0625 C 4 -1.632812 3.910156 -1.265625 3.734375 -0.953125 C 3.554688 -0.648438 3.300781 -0.414062 2.96875 -0.25 C 2.632812 -0.0820312 2.242188 0 1.796875 0 L 0.453125 0 L 0.453125 -4.140625 Z M 1.796875 -0.5625 C 2.285156 -0.5625 2.660156 -0.691406 2.921875 -0.953125 C 3.179688 -1.210938 3.3125 -1.582031 3.3125 -2.0625 C 3.3125 -2.539062 3.179688 -2.914062 2.921875 -3.1875 C 2.660156 -3.457031 2.285156 -3.59375 1.796875 -3.59375 L 1.125 -3.59375 L 1.125 -0.5625 Z M 1.796875 -0.5625 "/></g></g></g><g fill="#545454" fill-opacity="1"><g transform="translate(94.824142, 41.747642)"><g><path d="M 2.34375 0.046875 C 1.957031 0.046875 1.597656 -0.0390625 1.265625 -0.21875 C 0.941406 -0.40625 0.6875 -0.660156 0.5 -0.984375 C 0.3125 -1.304688 0.21875 -1.671875 0.21875 -2.078125 C 0.21875 -2.484375 0.3125 -2.847656 0.5 -3.171875 C 0.6875 -3.492188 0.941406 -3.742188 1.265625 -3.921875 C 1.597656 -4.109375 1.957031 -4.203125 2.34375 -4.203125 C 2.726562 -4.203125 3.082031 -4.109375 3.40625 -3.921875 C 3.726562 -3.742188 3.984375 -3.492188 4.171875 -3.171875 C 4.359375 -2.847656 4.453125 -2.484375 4.453125 -2.078125 C 4.453125 -1.671875 4.359375 -1.304688 4.171875 -0.984375 C 3.984375 -0.660156 3.726562 -0.40625 3.40625 -0.21875 C 3.082031 -0.0390625 2.726562 0.046875 2.34375 0.046875 Z M 2.34375 -0.546875 C 2.613281 -0.546875 2.851562 -0.609375 3.0625 -0.734375 C 3.28125 -0.859375 3.453125 -1.035156 3.578125 -1.265625 C 3.703125 -1.503906 3.765625 -1.773438 3.765625 -2.078125 C 3.765625 -2.390625 3.703125 -2.660156 3.578125 -2.890625 C 3.453125 -3.117188 3.28125 -3.296875 3.0625 -3.421875 C 2.851562 -3.546875 2.613281 -3.609375 2.34375 -3.609375 C 2.0625 -3.609375 1.8125 -3.546875 1.59375 -3.421875 C 1.382812 -3.296875 1.21875 -3.117188 1.09375 -2.890625 C 0.976562 -2.660156 0.921875 -2.390625 0.921875 -2.078125 C 0.921875 -1.773438 0.976562 -1.503906 1.09375 -1.265625 C 1.21875 -1.035156 1.382812 -0.859375 1.59375 -0.734375 C 1.8125 -0.609375 2.0625 -0.546875 2.34375 -0.546875 Z M 2.34375 -0.546875 "/></g></g></g><g fill="#545454" fill-opacity="1"><g transform="translate(100.04768, 41.747642)"><g><path d="M 2.609375 0 L 1.640625 -1.65625 L 1.125 -1.65625 L 1.125 0 L 0.453125 0 L 0.453125 -4.140625 L 1.875 -4.140625 C 2.195312 -4.140625 2.46875 -4.082031 2.6875 -3.96875 C 2.90625 -3.863281 3.066406 -3.71875 3.171875 -3.53125 C 3.285156 -3.34375 3.34375 -3.132812 3.34375 -2.90625 C 3.34375 -2.632812 3.265625 -2.390625 3.109375 -2.171875 C 2.953125 -1.953125 2.710938 -1.800781 2.390625 -1.71875 L 3.421875 0 Z M 1.125 -2.203125 L 1.875 -2.203125 C 2.132812 -2.203125 2.328125 -2.265625 2.453125 -2.390625 C 2.585938 -2.515625 2.65625 -2.6875 2.65625 -2.90625 C 2.65625 -3.125 2.585938 -3.289062 2.453125 -3.40625 C 2.328125 -3.53125 2.132812 -3.59375 1.875 -3.59375 L 1.125 -3.59375 Z M 1.125 -2.203125 "/></g></g></g><g fill="#545454" fill-opacity="1"><g transform="translate(104.362779, 41.747642)"><g/></g></g><g fill="#004aad" fill-opacity="1"><g transform="translate(106.457203, 41.747642)"><g><path d="M 5.84375 -4.140625 L 4.625 0 L 3.84375 0 L 2.984375 -3.140625 L 2.046875 0 L 1.296875 0 L 0.109375 -4.140625 L 0.828125 -4.140625 L 1.6875 -0.765625 L 2.625 -4.140625 L 3.390625 -4.140625 L 4.25 -0.78125 L 5.125 -4.140625 Z M 5.84375 -4.140625 "/></g></g></g><g fill="#004aad" fill-opacity="1"><g transform="translate(112.965706, 41.747642)"><g><path d="M 1.125 -3.59375 L 1.125 -2.375 L 2.5625 -2.375 L 2.5625 -1.828125 L 1.125 -1.828125 L 1.125 -0.5625 L 2.734375 -0.5625 L 2.734375 0 L 0.453125 0 L 0.453125 -4.15625 L 2.734375 -4.15625 L 2.734375 -3.59375 Z M 1.125 -3.59375 "/></g></g></g><g fill="#004aad" fill-opacity="1"><g transform="translate(116.635327, 41.747642)"><g><path d="M 2.671875 -2.125 C 2.890625 -2.09375 3.078125 -1.976562 3.234375 -1.78125 C 3.390625 -1.582031 3.46875 -1.359375 3.46875 -1.109375 C 3.46875 -0.898438 3.410156 -0.710938 3.296875 -0.546875 C 3.191406 -0.378906 3.035156 -0.242188 2.828125 -0.140625 C 2.617188 -0.046875 2.378906 0 2.109375 0 L 0.453125 0 L 0.453125 -4.140625 L 2.03125 -4.140625 C 2.3125 -4.140625 2.550781 -4.09375 2.75 -4 C 2.957031 -3.90625 3.113281 -3.773438 3.21875 -3.609375 C 3.320312 -3.453125 3.375 -3.273438 3.375 -3.078125 C 3.375 -2.835938 3.304688 -2.640625 3.171875 -2.484375 C 3.046875 -2.328125 2.878906 -2.207031 2.671875 -2.125 Z M 1.125 -2.40625 L 1.96875 -2.40625 C 2.1875 -2.40625 2.359375 -2.453125 2.484375 -2.546875 C 2.617188 -2.648438 2.6875 -2.800781 2.6875 -3 C 2.6875 -3.1875 2.617188 -3.332031 2.484375 -3.4375 C 2.359375 -3.539062 2.1875 -3.59375 1.96875 -3.59375 L 1.125 -3.59375 Z M 2.046875 -0.5625 C 2.273438 -0.5625 2.453125 -0.613281 2.578125 -0.71875 C 2.710938 -0.832031 2.78125 -0.988281 2.78125 -1.1875 C 2.78125 -1.394531 2.710938 -1.554688 2.578125 -1.671875 C 2.441406 -1.785156 2.253906 -1.84375 2.015625 -1.84375 L 1.125 -1.84375 L 1.125 -0.5625 Z M 2.046875 -0.5625 "/></g></g></g><g fill="#004aad" fill-opacity="1"><g transform="translate(47.376666, 31.659476)"><g><path d="M 10.71875 -7.28125 L 8.21875 -0.734375 C 8.09375 -0.410156 7.945312 -0.175781 7.78125 -0.03125 C 7.625 0.101562 7.390625 0.171875 7.078125 0.171875 C 6.765625 0.171875 6.523438 0.101562 6.359375 -0.03125 C 6.191406 -0.175781 6.046875 -0.410156 5.921875 -0.734375 L 3.421875 -7.28125 L 3.09375 -0.921875 C 3.070312 -0.566406 2.960938 -0.296875 2.765625 -0.109375 C 2.578125 0.078125 2.320312 0.171875 2 0.171875 C 1.664062 0.171875 1.410156 0.078125 1.234375 -0.109375 C 1.054688 -0.296875 0.984375 -0.566406 1.015625 -0.921875 L 1.53125 -10.90625 C 1.550781 -11.40625 1.671875 -11.773438 1.890625 -12.015625 C 2.117188 -12.253906 2.410156 -12.375 2.765625 -12.375 C 3.390625 -12.375 3.828125 -12.039062 4.078125 -11.375 L 7.078125 -3.515625 L 10.0625 -11.375 C 10.3125 -12.039062 10.75 -12.375 11.375 -12.375 C 11.738281 -12.375 12.03125 -12.253906 12.25 -12.015625 C 12.46875 -11.773438 12.585938 -11.40625 12.609375 -10.90625 L 13.140625 -0.921875 C 13.160156 -0.566406 13.082031 -0.296875 12.90625 -0.109375 C 12.726562 0.078125 12.472656 0.171875 12.140625 0.171875 C 11.816406 0.171875 11.554688 0.078125 11.359375 -0.109375 C 11.171875 -0.296875 11.066406 -0.566406 11.046875 -0.921875 Z M 10.71875 -7.28125 "/></g></g></g><g fill="#004aad" fill-opacity="1"><g transform="translate(61.527957, 31.659476)"><g><path d="M 5.0625 0.171875 C 4.375 0.171875 3.765625 0.0664062 3.234375 -0.140625 C 2.703125 -0.359375 2.257812 -0.664062 1.90625 -1.0625 C 1.5625 -1.46875 1.300781 -1.945312 1.125 -2.5 C 0.957031 -3.0625 0.875 -3.679688 0.875 -4.359375 C 0.875 -5.046875 0.957031 -5.660156 1.125 -6.203125 C 1.300781 -6.753906 1.5625 -7.226562 1.90625 -7.625 C 2.257812 -8.03125 2.703125 -8.34375 3.234375 -8.5625 C 3.765625 -8.78125 4.375 -8.890625 5.0625 -8.890625 C 5.757812 -8.890625 6.375 -8.78125 6.90625 -8.5625 C 7.4375 -8.34375 7.875 -8.03125 8.21875 -7.625 C 8.570312 -7.226562 8.832031 -6.753906 9 -6.203125 C 9.175781 -5.660156 9.265625 -5.046875 9.265625 -4.359375 C 9.265625 -3.679688 9.175781 -3.0625 9 -2.5 C 8.832031 -1.945312 8.570312 -1.46875 8.21875 -1.0625 C 7.875 -0.664062 7.4375 -0.359375 6.90625 -0.140625 C 6.375 0.0664062 5.757812 0.171875 5.0625 0.171875 Z M 5.0625 -7.0625 C 4.34375 -7.0625 3.8125 -6.816406 3.46875 -6.328125 C 3.132812 -5.835938 2.96875 -5.179688 2.96875 -4.359375 C 2.96875 -3.535156 3.132812 -2.878906 3.46875 -2.390625 C 3.8125 -1.898438 4.34375 -1.65625 5.0625 -1.65625 C 5.789062 -1.65625 6.320312 -1.898438 6.65625 -2.390625 C 7 -2.878906 7.171875 -3.535156 7.171875 -4.359375 C 7.171875 -5.179688 7 -5.835938 6.65625 -6.328125 C 6.320312 -6.816406 5.789062 -7.0625 5.0625 -7.0625 Z M 5.0625 -7.0625 "/></g></g></g><g fill="#004aad" fill-opacity="1"><g transform="translate(71.670881, 31.659476)"><g><path d="M 1.125 -7.828125 C 1.125 -8.179688 1.222656 -8.445312 1.421875 -8.625 C 1.617188 -8.800781 1.867188 -8.890625 2.171875 -8.890625 C 2.472656 -8.890625 2.722656 -8.800781 2.921875 -8.625 C 3.117188 -8.445312 3.21875 -8.179688 3.21875 -7.828125 C 3.632812 -8.535156 4.207031 -8.890625 4.9375 -8.890625 C 5.238281 -8.890625 5.488281 -8.800781 5.6875 -8.625 C 5.894531 -8.445312 6 -8.1875 6 -7.84375 C 6 -7.476562 5.914062 -7.210938 5.75 -7.046875 C 5.59375 -6.878906 5.410156 -6.796875 5.203125 -6.796875 C 5.109375 -6.796875 5.003906 -6.804688 4.890625 -6.828125 C 4.785156 -6.859375 4.65625 -6.875 4.5 -6.875 C 4.007812 -6.875 3.671875 -6.664062 3.484375 -6.25 C 3.304688 -5.84375 3.21875 -5.273438 3.21875 -4.546875 L 3.21875 -0.890625 C 3.21875 -0.523438 3.117188 -0.253906 2.921875 -0.078125 C 2.722656 0.0859375 2.472656 0.171875 2.171875 0.171875 C 1.867188 0.171875 1.617188 0.0859375 1.421875 -0.078125 C 1.222656 -0.253906 1.125 -0.523438 1.125 -0.890625 Z M 1.125 -7.828125 "/></g></g></g><g fill="#004aad" fill-opacity="1"><g transform="translate(78.014561, 31.659476)"><g><path d="M 5.515625 -1.65625 C 5.859375 -1.65625 6.15625 -1.679688 6.40625 -1.734375 C 6.65625 -1.796875 6.875 -1.859375 7.0625 -1.921875 C 7.257812 -1.992188 7.4375 -2.0625 7.59375 -2.125 C 7.75 -2.1875 7.894531 -2.21875 8.03125 -2.21875 C 8.238281 -2.21875 8.414062 -2.148438 8.5625 -2.015625 C 8.707031 -1.878906 8.78125 -1.695312 8.78125 -1.46875 C 8.78125 -1.132812 8.65625 -0.859375 8.40625 -0.640625 C 8.164062 -0.429688 7.867188 -0.265625 7.515625 -0.140625 C 7.171875 -0.0234375 6.8125 0.0507812 6.4375 0.09375 C 6.070312 0.144531 5.765625 0.171875 5.515625 0.171875 C 4.847656 0.171875 4.226562 0.078125 3.65625 -0.109375 C 3.09375 -0.296875 2.601562 -0.578125 2.1875 -0.953125 C 1.769531 -1.328125 1.445312 -1.796875 1.21875 -2.359375 C 0.988281 -2.929688 0.875 -3.597656 0.875 -4.359375 C 0.875 -5.046875 0.957031 -5.660156 1.125 -6.203125 C 1.300781 -6.753906 1.566406 -7.226562 1.921875 -7.625 C 2.273438 -8.03125 2.710938 -8.34375 3.234375 -8.5625 C 3.765625 -8.78125 4.375 -8.890625 5.0625 -8.890625 C 5.726562 -8.890625 6.304688 -8.785156 6.796875 -8.578125 C 7.296875 -8.378906 7.707031 -8.097656 8.03125 -7.734375 C 8.351562 -7.367188 8.59375 -6.945312 8.75 -6.46875 C 8.914062 -6 9 -5.492188 9 -4.953125 C 9 -4.492188 8.878906 -4.144531 8.640625 -3.90625 C 8.410156 -3.664062 8.003906 -3.546875 7.421875 -3.546875 L 3.015625 -3.546875 C 3.140625 -2.878906 3.414062 -2.394531 3.84375 -2.09375 C 4.269531 -1.800781 4.828125 -1.65625 5.515625 -1.65625 Z M 5.0625 -7.0625 C 4.507812 -7.0625 4.070312 -6.910156 3.75 -6.609375 C 3.425781 -6.316406 3.195312 -5.910156 3.0625 -5.390625 L 6.90625 -5.390625 C 6.851562 -5.941406 6.671875 -6.359375 6.359375 -6.640625 C 6.046875 -6.921875 5.613281 -7.0625 5.0625 -7.0625 Z M 5.0625 -7.0625 "/></g></g></g><g fill="#004aad" fill-opacity="1"><g transform="translate(87.896075, 31.659476)"><g><path d="M 3.21875 -0.890625 C 3.21875 -0.523438 3.117188 -0.253906 2.921875 -0.078125 C 2.722656 0.0859375 2.472656 0.171875 2.171875 0.171875 C 1.867188 0.171875 1.617188 0.0859375 1.421875 -0.078125 C 1.222656 -0.253906 1.125 -0.523438 1.125 -0.890625 L 1.125 -7.828125 C 1.125 -8.179688 1.222656 -8.445312 1.421875 -8.625 C 1.617188 -8.800781 1.867188 -8.890625 2.171875 -8.890625 C 2.472656 -8.890625 2.722656 -8.796875 2.921875 -8.609375 C 3.117188 -8.429688 3.21875 -8.144531 3.21875 -7.75 C 3.5625 -8.132812 3.9375 -8.421875 4.34375 -8.609375 C 4.75 -8.796875 5.222656 -8.890625 5.765625 -8.890625 C 6.640625 -8.890625 7.316406 -8.625 7.796875 -8.09375 C 8.273438 -7.570312 8.515625 -6.753906 8.515625 -5.640625 L 8.515625 -0.890625 C 8.515625 -0.523438 8.414062 -0.253906 8.21875 -0.078125 C 8.019531 0.0859375 7.769531 0.171875 7.46875 0.171875 C 7.164062 0.171875 6.914062 0.0859375 6.71875 -0.078125 C 6.519531 -0.253906 6.421875 -0.523438 6.421875 -0.890625 L 6.421875 -5.59375 C 6.421875 -6.101562 6.289062 -6.472656 6.03125 -6.703125 C 5.78125 -6.941406 5.445312 -7.0625 5.03125 -7.0625 C 4.5 -7.0625 4.0625 -6.828125 3.71875 -6.359375 C 3.382812 -5.898438 3.21875 -5.164062 3.21875 -4.15625 Z M 3.21875 -0.890625 "/></g></g></g><g fill="#004aad" fill-opacity="1"><g transform="translate(97.551026, 31.659476)"><g><path d="M 5.0625 0.171875 C 4.375 0.171875 3.765625 0.0664062 3.234375 -0.140625 C 2.703125 -0.359375 2.257812 -0.664062 1.90625 -1.0625 C 1.5625 -1.46875 1.300781 -1.945312 1.125 -2.5 C 0.957031 -3.0625 0.875 -3.679688 0.875 -4.359375 C 0.875 -5.046875 0.957031 -5.660156 1.125 -6.203125 C 1.300781 -6.753906 1.5625 -7.226562 1.90625 -7.625 C 2.257812 -8.03125 2.703125 -8.34375 3.234375 -8.5625 C 3.765625 -8.78125 4.375 -8.890625 5.0625 -8.890625 C 5.757812 -8.890625 6.375 -8.78125 6.90625 -8.5625 C 7.4375 -8.34375 7.875 -8.03125 8.21875 -7.625 C 8.570312 -7.226562 8.832031 -6.753906 9 -6.203125 C 9.175781 -5.660156 9.265625 -5.046875 9.265625 -4.359375 C 9.265625 -3.679688 9.175781 -3.0625 9 -2.5 C 8.832031 -1.945312 8.570312 -1.46875 8.21875 -1.0625 C 7.875 -0.664062 7.4375 -0.359375 6.90625 -0.140625 C 6.375 0.0664062 5.757812 0.171875 5.0625 0.171875 Z M 5.0625 -7.0625 C 4.34375 -7.0625 3.8125 -6.816406 3.46875 -6.328125 C 3.132812 -5.835938 2.96875 -5.179688 2.96875 -4.359375 C 2.96875 -3.535156 3.132812 -2.878906 3.46875 -2.390625 C 3.8125 -1.898438 4.34375 -1.65625 5.0625 -1.65625 C 5.789062 -1.65625 6.320312 -1.898438 6.65625 -2.390625 C 7 -2.878906 7.171875 -3.535156 7.171875 -4.359375 C 7.171875 -5.179688 7 -5.835938 6.65625 -6.328125 C 6.320312 -6.816406 5.789062 -7.0625 5.0625 -7.0625 Z M 5.0625 -7.0625 "/></g></g></g></svg>