<svg version="1.1" id="Layer_1" xmlns="http://www.w3.org/2000/svg" xmlns:xlink="http://www.w3.org/1999/xlink" x="0px" y="0px" viewBox="0 0 500 500" style="width: 151px;" xml:space="preserve" data-imageid="message-received-46" imageName="Message Received" class="illustrations_image">
<style type="text/css">
	.st0_message-received-46{fill:none;}
	.st1_message-received-46{fill:#D1D3D4;}
	.st2_message-received-46{fill:#FFFFFF;}
	.st3_message-received-46{fill:#231F20;}
	.st4_message-received-46{fill:#68E1FD;}
</style>
<g id="lines_message-received-46">
	<line class="st0_message-received-46" x1="76.8" y1="265" x2="31.3" y2="267.5"/>
	<path class="st1_message-received-46" d="M31.3,268.2c-0.4,0-0.8-0.3-0.8-0.8s0.3-0.8,0.8-0.8l0,0l45.5-2.5c0.4,0,0.8,0.3,0.8,0.7s-0.3,0.8-0.7,0.8&#10;&#9;&#9;L31.3,268.2L31.3,268.2z"/>
	<line class="st0_message-received-46" x1="162.8" y1="372.5" x2="140.4" y2="407.2"/>
	<path class="st1_message-received-46" d="M140.4,408c-0.1,0-0.3,0-0.4-0.1c-0.3-0.2-0.4-0.7-0.2-1l22.3-34.7c0.2-0.3,0.7-0.4,1-0.2&#10;&#9;&#9;c0.3,0.2,0.4,0.7,0.2,1L141,407.7C140.9,407.9,140.7,408,140.4,408z"/>
	<line class="st0_message-received-46" x1="90" y1="332" x2="56.1" y2="351"/>
	<path class="st1_message-received-46" d="M56.1,351.8c-0.4,0-0.7-0.3-0.7-0.8c0-0.3,0.1-0.5,0.4-0.6l33.9-19c0.4-0.2,0.8-0.1,1,0.3&#10;&#9;&#9;c0.2,0.4,0.1,0.8-0.3,1l-33.9,19C56.3,351.7,56.2,351.8,56.1,351.8z"/>
	<line class="st0_message-received-46" x1="307.5" y1="87.2" x2="315.8" y2="64.9"/>
	<path class="st1_message-received-46" d="M307.5,88c-0.1,0-0.2,0-0.3,0c-0.4-0.1-0.6-0.6-0.5-1c0,0,0,0,0,0l8.3-22.3c0.1-0.4,0.6-0.6,1-0.5c0,0,0,0,0,0&#10;&#9;&#9;c0.4,0.1,0.6,0.6,0.5,1c0,0,0,0,0,0l-8.3,22.3C308.1,87.8,307.8,88,307.5,88z"/>
	<line class="st0_message-received-46" x1="432.4" y1="222" x2="467.9" y2="216.2"/>
	<path class="st1_message-received-46" d="M432.4,222.8c-0.4,0-0.7-0.3-0.7-0.8c0-0.4,0.3-0.7,0.6-0.7l35.5-5.8c0.4-0.1,0.8,0.2,0.9,0.7&#10;&#9;&#9;c0.1,0.4-0.2,0.8-0.6,0.9l-35.5,5.8L432.4,222.8z"/>
	<line class="st0_message-received-46" x1="409.2" y1="341.1" x2="431.5" y2="369.2"/>
	<path class="st1_message-received-46" d="M431.5,370c-0.2,0-0.4-0.1-0.6-0.3l-22.3-28.1c-0.3-0.3-0.2-0.8,0.1-1c0,0,0,0,0,0c0.3-0.2,0.7-0.2,1,0.1&#10;&#9;&#9;l22.3,28.1c0.3,0.3,0.2,0.8-0.1,1.1C431.8,369.9,431.6,370,431.5,370L431.5,370z"/>
	<line class="st0_message-received-46" x1="83.9" y1="130.5" x2="68" y2="116.8"/>
	<path class="st1_message-received-46" d="M83.9,131.2c-0.2,0-0.4-0.1-0.5-0.2l-16-13.7c-0.3-0.3-0.4-0.7-0.1-1.1c0,0,0,0,0,0c0.3-0.3,0.7-0.3,1-0.1&#10;&#9;&#9;l16,13.7c0.3,0.3,0.4,0.7,0.1,1.1C84.3,131.1,84.1,131.2,83.9,131.2L83.9,131.2z"/>
</g>
<g id="character_message-received-46">
	<polyline class="st2_message-received-46" points="371.4,444.5 373.1,395.9 336.7,390.4 334.5,445 &#9;"/>
	<path class="st3_message-received-46" d="M334.5,445.8L334.5,445.8c-0.4,0-0.7-0.4-0.7-0.8c0,0,0,0,0,0l2.2-54.6c0-0.4,0.4-0.7,0.8-0.7c0,0,0,0,0.1,0&#10;&#9;&#9;l36.4,5.5c0.4,0.1,0.6,0.4,0.6,0.8l-1.6,48.5c0,0.4-0.3,0.7-0.7,0.7c0,0,0,0-0.1,0c-0.4,0-0.7-0.4-0.7-0.8c0,0,0,0,0,0l1.6-47.8&#10;&#9;&#9;l-34.9-5.3l-2.2,53.7C335.3,445.4,334.9,445.7,334.5,445.8C334.5,445.8,334.5,445.8,334.5,445.8z"/>
	<polyline class="st2_message-received-46" points="193.9,423.5 235.5,374.2 272.8,383.3 225.3,431.8 &#9;"/>
	<path class="st3_message-received-46" d="M225.3,432.5c-0.2,0-0.4-0.1-0.5-0.2c-0.3-0.3-0.3-0.8,0-1.1l46.5-47.6l-35.5-8.7l-41.3,49&#10;&#9;&#9;c-0.3,0.3-0.8,0.3-1.1,0.1c-0.3-0.3-0.3-0.8-0.1-1.1l41.7-49.3c0.2-0.2,0.5-0.3,0.8-0.2l37.2,9.1c0.4,0.1,0.6,0.5,0.5,0.9&#10;&#9;&#9;c0,0.1-0.1,0.2-0.2,0.3l-47.4,48.5C225.7,432.4,225.5,432.5,225.3,432.5z"/>
	<path class="st4_message-received-46 targetColor" d="M355.2,175.1c0,0-56.6,15.5-56,17.7s11.6,43,11.6,43L346,227L355.2,175.1z" style="fill: rgb(0, 85, 215);"/>
	<path class="st4_message-received-46 targetColor" d="M356.4,174.8c0,0-18,4.8-29,11.1c-11.2,6.4-8,74-8,74l81.6,16.4c0,0,15.5-43.9,14.5-63.9&#10;&#9;&#9;S402,163.9,356.4,174.8z" style="fill: rgb(0, 85, 215);"/>
	<path class="st3_message-received-46" d="M315.7,226.9c-0.1,0-0.2,0-0.3,0c-0.4-0.2-0.6-0.6-0.4-1c0,0,0,0,0,0c5.4-13.1,13.4-33.1,13.6-34.5&#10;&#9;&#9;c0-0.4,0.3-0.7,0.7-0.7c0,0,0,0,0,0c0.4,0,0.8,0.4,0.8,0.8c0,1.2-9.6,24.9-13.7,35C316.3,226.7,316,226.9,315.7,226.9z"/>
	<path class="st2_message-received-46" d="M361.3,166.5l-5.8,17.3c0,0-0.1,10.3,11.3,9.4c6.8-0.6,13-4.2,16.9-9.9l4.8-31c-1.7-1.5-2.9-3.6-3.1-5.9&#10;&#9;&#9;c-0.2-1.7-0.2-3.5,0.1-5.2c0.5-2.3,1.4-4.5,2.5-6.6c-5.5-1.1-10.3-3.3-14.1-7.6c-0.9-1.1-1.7-2.2-2.5-3.4c-0.4-0.5-7.6,2.9-8.4,3.2&#10;&#9;&#9;c-3.5,1.8-7,4.3-9.1,7.7c-1.7,2.9-2.3,6.2-2.9,9.4c-0.8,4.5-1.3,9.1-1.3,13.6C350,166.4,361.3,166.5,361.3,166.5z"/>
	<path class="st3_message-received-46" d="M365.4,194c-2.7,0.1-5.4-0.8-7.5-2.6c-2-2-3.1-4.8-3.2-7.6c0-0.1,0-0.2,0-0.2l5.5-16.4&#10;&#9;&#9;c-2.9-0.3-11-1.8-11.1-9.5c0-4.6,0.4-9.2,1.3-13.8c0.5-3.1,1.1-6.6,3-9.7s5.1-5.9,9.4-8c8.5-4.2,9-3.4,9.3-3&#10;&#9;&#9;c0.7,1.1,1.5,2.2,2.4,3.3c3.4,3.8,7.7,6.1,13.7,7.3c0.4,0.1,0.7,0.5,0.6,0.9c0,0.1,0,0.1-0.1,0.2c-1.1,2-1.9,4.1-2.5,6.4&#10;&#9;&#9;c-0.3,1.6-0.4,3.3-0.1,4.9c0.2,2.1,1.2,4.1,2.8,5.5c0.2,0.2,0.3,0.4,0.3,0.7l-4.8,31c0,0.1,0,0.2-0.1,0.3&#10;&#9;&#9;c-3.9,5.9-10.3,9.7-17.4,10.4C366.4,194,365.9,194,365.4,194z M356.3,183.9c0.1,2.4,1,4.7,2.7,6.4c1.8,1.7,4.4,2.4,7.8,2.1&#10;&#9;&#9;c6.5-0.6,12.5-4,16.2-9.4l4.7-30.4c-1.7-1.6-2.8-3.8-3-6.1c-0.3-1.8-0.2-3.6,0.1-5.4c0.5-2,1.2-4,2.2-5.9&#10;&#9;&#9;c-5.8-1.3-10.2-3.8-13.6-7.6c-0.8-1-1.6-2.1-2.3-3.1c-2.6,0.9-5.1,2-7.6,3.2c-2.8,1.4-6.6,3.8-8.8,7.4c-1.7,2.8-2.2,6.1-2.8,9.2&#10;&#9;&#9;c-0.8,4.5-1.3,9-1.3,13.5c0.1,7.9,10.2,8.1,10.7,8.1c0.4,0,0.7,0.3,0.7,0.8c0,0.1,0,0.2,0,0.2L356.3,183.9z"/>
	<path class="st2_message-received-46" d="M382.5,149.5c0.5-1.3,1.5-2.3,2.6-3c1.1-0.6,2.4-1,3.6-1.1c0.7-0.2,1.4-0.2,2.1,0c0.5,0.2,0.9,0.4,1.3,0.7&#10;&#9;&#9;c0.9,0.7,1.6,1.6,1.9,2.7c0.1,0.9,0,1.9-0.3,2.8c-0.3,1-0.7,1.9-1.2,2.8c-2.2,3.6-7,4.7-10.5,2.4c0,0-0.1,0-0.1-0.1"/>
	<path class="st3_message-received-46" d="M386,158.7c-1.6,0-3.2-0.5-4.6-1.4c-0.3-0.2-0.4-0.7-0.2-1s0.7-0.4,1-0.2c3.2,2.1,7.5,1.2,9.6-2&#10;&#9;&#9;c0,0,0-0.1,0.1-0.1c0.5-0.8,0.9-1.7,1.1-2.6c0.3-0.8,0.4-1.6,0.3-2.4c-0.3-0.9-0.8-1.8-1.6-2.3c-0.3-0.3-0.6-0.4-1-0.6&#10;&#9;&#9;c-0.6-0.1-1.2-0.1-1.7,0.1c-1.2,0.2-2.3,0.5-3.4,1.1c-1,0.6-1.9,1.5-2.3,2.6c-0.2,0.4-0.6,0.6-1,0.4c0,0,0,0,0,0&#10;&#9;&#9;c-0.4-0.2-0.6-0.6-0.4-1c0,0,0,0,0,0c0.6-1.4,1.7-2.6,3-3.4c1.2-0.6,2.5-1.1,3.9-1.2c0.8-0.2,1.6-0.2,2.4,0&#10;&#9;&#9;c0.6,0.2,1.1,0.5,1.5,0.8c1.1,0.8,1.9,1.9,2.2,3.2c0.1,1,0,2.1-0.3,3.1c-0.3,1.1-0.7,2.1-1.3,3C391.6,157.2,388.9,158.7,386,158.7&#10;&#9;&#9;L386,158.7z"/>
	<path class="st3_message-received-46" d="M358.4,175.7c4.2,0.4,8.4-0.7,11.9-3c5.6-3.9,5.9-8.9,5.9-8.9c-4.7,2.1-9.7,3-14.8,2.8L358.4,175.7z"/>
	<path class="st3_message-received-46" d="M360.1,176.5c-0.6,0-1.2,0-1.8-0.1c-0.2,0-0.4-0.2-0.5-0.3c-0.1-0.2-0.1-0.4-0.1-0.6l2.9-9.1&#10;&#9;&#9;c0.1-0.3,0.4-0.5,0.8-0.5c5,0.2,9.9-0.7,14.4-2.7c0.2-0.1,0.5-0.1,0.8,0c0.2,0.1,0.4,0.4,0.3,0.7c0,0.2-0.4,5.4-6.2,9.4&#10;&#9;&#9;C367.6,175.4,363.9,176.5,360.1,176.5z M359.4,175c3.7,0.2,7.4-0.9,10.5-2.9c2.5-1.6,4.4-4.1,5.3-7c-4.2,1.6-8.7,2.4-13.3,2.3&#10;&#9;&#9;L359.4,175z"/>
	<path class="st2_message-received-46" d="M369,136.9c0,0-7.4,7.4-6.3,9.2s5.1,1.5,5.1,1.5"/>
	<path class="st3_message-received-46" d="M367.2,148.3c-1.3,0-4.1-0.2-5.2-1.9c-1.2-2,3.5-7.2,6.4-10.1c0.3-0.3,0.8-0.3,1.1,0c0.3,0.3,0.3,0.8,0,1&#10;&#9;&#9;c0,0,0,0,0,0c-3.5,3.6-6.5,7.4-6.2,8.3c0.6,1,3,1.2,4.4,1.1c0.4,0,0.8,0.3,0.8,0.7c0,0.4-0.3,0.8-0.7,0.8L367.2,148.3z"/>
	<path class="st3_message-received-46" d="M357.7,151.8l14.3-0.2c0,0-0.6,9.7-9,10.2S357.7,151.8,357.7,151.8z"/>
	<path class="st2_message-received-46" d="M372.4,136.9c0.4-0.8,1.2-1.4,2.1-1.5c1.6-0.3,2.5,1.6,2.5,1.6"/>
	<path class="st3_message-received-46" d="M376.9,137.8c-0.3,0-0.6-0.2-0.7-0.4c0,0-0.6-1.4-1.7-1.2c-0.6,0.1-1.2,0.4-1.5,1c-0.1,0.4-0.6,0.6-1,0.5&#10;&#9;&#9;c0,0,0,0,0,0c-0.4-0.1-0.6-0.5-0.5-0.9c0.5-1.1,1.5-1.9,2.7-2c1.4-0.1,2.8,0.7,3.3,2.1c0.2,0.4,0,0.8-0.4,1c0,0,0,0,0,0&#10;&#9;&#9;C377.1,137.7,377,137.8,376.9,137.8z"/>
	<path class="st2_message-received-46" d="M359.1,135.6c0.4-0.8,1.2-1.4,2.1-1.5c1.6-0.3,2.5,1.6,2.5,1.6"/>
	<path class="st3_message-received-46" d="M363.7,136.5c-0.3,0-0.6-0.2-0.7-0.4c0,0-0.6-1.4-1.7-1.2c-0.6,0.1-1.2,0.4-1.5,1c-0.1,0.4-0.6,0.6-1,0.5&#10;&#9;&#9;c0,0,0,0,0,0c-0.4-0.1-0.6-0.5-0.5-0.9c0.5-1.1,1.5-1.9,2.6-2c1.4-0.1,2.8,0.7,3.3,2.1c0.2,0.4,0,0.8-0.4,1c0,0,0,0,0,0&#10;&#9;&#9;C363.9,136.5,363.8,136.5,363.7,136.5z"/>
	<polygon class="st3_message-received-46" points="399.4,275.3 387.7,431.2 193.4,391.5 322.5,259 &#9;"/>
	<polygon class="st3_message-received-46" points="315.7,160.9 87.5,198.9 187.9,96.9 &#9;"/>
	<path class="st3_message-received-46" d="M87.5,199.7c-0.3,0-0.5-0.2-0.7-0.4c-0.2-0.3-0.1-0.6,0.1-0.9l100.4-102c0.2-0.2,0.6-0.3,0.9-0.1l127.8,64&#10;&#9;&#9;c0.3,0.1,0.5,0.5,0.4,0.8c0,0.3-0.3,0.6-0.6,0.6l-228.2,38L87.5,199.7z M188.1,97.8l-98.4,100l223.7-37.3L188.1,97.8z"/>
	<polygon class="st3_message-received-46" points="336.8,314 121.5,352.7 87.8,200.3 315.9,162.2 &#9;"/>
	<path class="st3_message-received-46" d="M121.5,353.4c-0.4,0-0.7-0.2-0.7-0.6L87.1,200.4c0-0.2,0-0.4,0.1-0.6c0.1-0.2,0.3-0.3,0.5-0.3l228.1-38&#10;&#9;&#9;c0.2,0,0.4,0,0.6,0.1c0.2,0.1,0.3,0.3,0.3,0.5l20.9,151.7c0.1,0.4-0.2,0.8-0.6,0.8l-215.3,38.7L121.5,353.4z M88.7,200.9l33.4,151&#10;&#9;&#9;L336,313.4l-20.7-150.3L88.7,200.9z"/>
	<path class="st4_message-received-46 targetColor" d="M139.6,302.2c0,0-39.7-122.4-58.7-159.6l212.5-57.9l13.2,189.4L139.6,302.2z" style="fill: rgb(0, 85, 215);"/>
	<path class="st2_message-received-46" d="M118.1,164.1c-0.4,0-0.8-0.3-0.8-0.7c0-0.4,0.2-0.7,0.6-0.7l156.3-40.5c0.4-0.1,0.8,0.1,0.9,0.5&#10;&#9;&#9;c0.1,0.4-0.1,0.8-0.5,0.9l-156.3,40.5C118.2,164.1,118.2,164.1,118.1,164.1z"/>
	<path class="st2_message-received-46" d="M124.7,189.7c-0.4,0-0.7-0.2-0.7-0.6c-0.1-0.4,0.2-0.8,0.6-0.9c0,0,0,0,0,0l151.3-33.9&#10;&#9;&#9;c0.4-0.1,0.8,0.2,0.9,0.6c0.1,0.4-0.2,0.8-0.6,0.9l-151.3,33.9L124.7,189.7z"/>
	<path class="st2_message-received-46" d="M137.7,213.7c-0.4,0-0.8-0.3-0.8-0.7c0-0.4,0.3-0.7,0.6-0.8l144.7-28.1c0.4-0.1,0.8,0.2,0.9,0.6&#10;&#9;&#9;c0.1,0.4-0.2,0.7-0.6,0.8l-144.7,28.1L137.7,213.7z"/>
	<path class="st2_message-received-46" d="M144.6,244.3c-0.4,0-0.7-0.3-0.7-0.6c-0.1-0.4,0.2-0.8,0.6-0.9c0,0,0,0,0,0l137.3-22.3&#10;&#9;&#9;c0.4-0.1,0.8,0.2,0.9,0.6s-0.2,0.8-0.6,0.9c0,0,0,0,0,0l-137.3,22.3L144.6,244.3z"/>
	<polygon class="st2_message-received-46" points="216.9,259.2 87.8,200.3 121.5,352.7 336.8,314 315.9,162.2 &#9;"/>
	<path class="st3_message-received-46" d="M121.5,353.4c-0.4,0-0.7-0.2-0.7-0.6L87.1,200.4c-0.1-0.4,0.2-0.8,0.6-0.9c0.1,0,0.3,0,0.4,0l128.6,58.8&#10;&#9;&#9;l98.6-96.6c0.3-0.3,0.8-0.3,1,0c0.1,0.1,0.2,0.3,0.2,0.4l20.9,151.7c0.1,0.4-0.2,0.8-0.6,0.8l-215.2,38.7L121.5,353.4z M88.9,201.6&#10;&#9;&#9;l33.2,150.3L336,313.4l-20.6-149.6l-97.9,95.9c-0.2,0.2-0.6,0.3-0.8,0.1L88.9,201.6z"/>
	<polygon class="st2_message-received-46" points="336.8,314 121.6,352.7 216.9,259.2 &#9;"/>
	<path class="st3_message-received-46" d="M121.6,353.4c-0.4,0-0.7-0.3-0.7-0.8c0-0.2,0.1-0.4,0.2-0.5l95.4-93.5c0.2-0.2,0.6-0.3,0.8-0.1l119.9,54.7&#10;&#9;&#9;c0.4,0.2,0.5,0.6,0.4,1c-0.1,0.2-0.3,0.4-0.5,0.4l-215.3,38.7L121.6,353.4z M217.1,260.1l-93.3,91.4l210.5-37.9L217.1,260.1z"/>
	<polygon class="st2_message-received-46" points="336.8,314 121.6,352.7 216.9,259.2 &#9;"/>
	<path class="st3_message-received-46" d="M121.6,353.4c-0.4,0-0.7-0.3-0.7-0.8c0-0.2,0.1-0.4,0.2-0.5l95.4-93.5c0.2-0.2,0.6-0.3,0.8-0.1l119.9,54.7&#10;&#9;&#9;c0.4,0.2,0.5,0.6,0.4,1c-0.1,0.2-0.3,0.4-0.5,0.4l-215.3,38.7L121.6,353.4z M217.1,260.1l-93.3,91.4l210.5-37.9L217.1,260.1z"/>
	<path class="st2_message-received-46" d="M391.4,200.1c0,0-114.1,57.9-131.5,61.2s-38-2.5-37.2,2.5s10.8,7.4,10.8,7.4s-31.4,5-29.8,8.3&#10;&#9;&#9;s22.3-0.8,22.3-0.8s-25.6,7.4-19.9,10.8s24-4.1,24-4.1s-27.3,14-19.8,14.9s20.7-6.6,20.7-6.6s-20.7,10.8-12.4,11.6&#10;&#9;&#9;s131.5-43,172.8-67.8"/>
	<path class="st3_message-received-46" d="M218.8,305.9h-0.3c-1.6-0.2-2.4-0.7-2.6-1.6c-0.2-1.3,1.6-3.1,4.1-5c-3.4,1.1-6.9,1.9-9.8,1.6&#10;&#9;&#9;c-1.1-0.1-1.8-0.6-1.9-1.3c-0.4-2.2,6.8-6.8,13.4-10.6c-5.7,1.6-12.6,3-15.9,1.1c-0.8-0.3-1.3-1.1-1.2-2c0.3-2.3,6.2-5,11.9-7.1&#10;&#9;&#9;c-6,0.7-12.4,1-13.4-1.2c-0.2-0.4-0.2-0.9,0-1.2c1.5-3,19.2-6.2,27.2-7.6c-3.1-1.2-7.7-3.5-8.3-7.1c-0.1-0.6,0.1-1.3,0.5-1.7&#10;&#9;&#9;c1.4-1.6,6-1.4,12.8-1c7.2,0.4,16.2,0.9,24.5-0.6c17.1-3.2,130.1-60.6,131.3-61.1c0.4-0.2,0.8,0,1,0.3c0.2,0.4,0,0.8-0.3,1&#10;&#9;&#9;c-4.7,2.4-114.4,58-131.7,61.3c-8.5,1.6-17.6,1.1-24.9,0.7c-5.5-0.3-10.6-0.6-11.6,0.5c-0.1,0.1-0.1,0.3-0.1,0.5&#10;&#9;&#9;c0.6,3.7,7.6,6.2,10.2,6.8c0.4,0.1,0.7,0.5,0.6,0.9c-0.1,0.3-0.3,0.5-0.6,0.6c-13.4,2.1-28.2,5.5-29.2,7.3c1,1.5,10.5,0.9,21.5-1.3&#10;&#9;&#9;c0.4-0.1,0.8,0.1,0.9,0.5c0.1,0.4-0.1,0.8-0.5,0.9c-9.5,2.8-19.9,6.9-20.2,8.9c0,0.2,0.3,0.4,0.5,0.5c4.5,2.6,18.4-2.1,23.3-4.2&#10;&#9;&#9;c0.4-0.2,0.8,0,1,0.4c0.2,0.4,0,0.8-0.4,1c-9.8,5-20.4,11.5-20.7,13.3c0.2,0.1,0.4,0.1,0.6,0.1c5.6,0.6,14.7-3.7,18.5-5.6l1.7-0.9&#10;&#9;&#9;c0.4-0.2,0.8,0,1,0.3c0.2,0.4,0.1,0.8-0.3,1c-0.1,0.1-0.8,0.5-1.9,1c-7.4,4-12.4,7.9-12.1,8.8c0,0,0.2,0.3,1.3,0.4&#10;&#9;&#9;c3.6,0.3,34-9.3,73.7-24.2c21.3-8,73.4-28.3,98.7-43.5c0.4-0.2,0.8-0.1,1,0.3c0.2,0.4,0.1,0.8-0.3,1l0,0&#10;&#9;&#9;C351.9,261.9,230.4,305.9,218.8,305.9z"/>
	<path class="st4_message-received-46 targetColor" d="M370.3,249.1c0,0-17.6-41.3-16-41.9s35.3-22.6,38-21s13.2,33.6,9.9,43S370.3,249.1,370.3,249.1z" style="fill: rgb(0, 85, 215);"/>
	<path class="st3_message-received-46" d="M374.7,249.2c-0.3,0-0.6-0.2-0.7-0.5c-0.1-0.4,0.1-0.8,0.5-0.9c0,0,0,0,0,0c0.2-0.1,24.7-8.4,34.4-20.7&#10;&#9;&#9;c0.3-0.3,0.8-0.2,1.1,0.1c0.2,0.2,0.2,0.5,0.1,0.8c-10,12.7-34.1,20.9-35.1,21.2C374.8,249.2,374.8,249.2,374.7,249.2z"/>
	<path class="st3_message-received-46" d="M394.3,159.4c-0.4,0-0.7-0.4-0.7-0.8c0-0.3,0.2-0.6,0.5-0.7c5.6-1.7,10.1-5.8,12.2-11.1&#10;&#9;&#9;c2.2-5.4,2.7-11.3,1.5-17c-0.8-5.5-3.2-10.7-6.9-14.9c-4-4.2-9.6-6.5-14.6-5.9l-1.1,0.1c-0.8,0.1-1.6,0.2-2.4,0.2c-1,0-2-0.2-3-0.4&#10;&#9;&#9;l-0.6-0.1c-17-3.4-33.5,7.6-36.9,24.6c-0.9,4.5-0.8,9.2,0.3,13.7c0.4,1.4,1.2,3.8,3,4c0.4,0,0.7,0.3,0.7,0.8s-0.3,0.7-0.8,0.7&#10;&#9;&#9;c-0.1,0-0.1,0-0.2,0c-2-0.2-3.5-2.1-4.3-5.1c-4.4-17.6,6.4-35.4,24-39.8c4.7-1.2,9.6-1.3,14.4-0.3l0.6,0.1c1.6,0.5,3.3,0.5,4.9,0.2&#10;&#9;&#9;c0.4-0.1,0.8-0.1,1.1-0.2c5.6-0.6,11.6,1.8,15.9,6.4c3.9,4.4,6.4,9.8,7.3,15.6c1.2,6,0.7,12.2-1.6,17.9c-2.6,6-7.5,10.5-13.2,12&#10;&#9;&#9;L394.3,159.4z"/>
	<path class="st3_message-received-46" d="M382.8,108.6c0,0,7.6-5.7,20-2.6s17.1,25.6,5.5,37.8C408.3,143.8,410.1,110.7,382.8,108.6z"/>
	<path class="st3_message-received-46" d="M426.9,179.5L426.9,179.5c-6.5-0.6-12.1-2.7-16.2-6.1c-4.8-4-7.6-9.9-7.3-15.5c0-0.4,0.4-0.7,0.8-0.7&#10;&#9;&#9;c0.4,0,0.7,0.4,0.7,0.8c-0.3,5.1,2.3,10.6,6.8,14.2c3.6,2.8,7.9,4.7,12.4,5.4c-1.2-1.4-2-3.1-2.3-5c-0.2-2.8,0.2-5.6,1.3-8.2&#10;&#9;&#9;c1.8-4.4,3.9-8.6,6.4-12.6c3.7-6.2,7.1-12.1,7.9-19c1.5-13.4-8.1-25.5-21.5-27c-3.1-0.3-6.1-0.1-9.1,0.7c-0.4,0.1-0.8-0.1-0.9-0.5&#10;&#9;&#9;s0.1-0.8,0.5-0.9c13.8-3.8,28,4.4,31.8,18.2c0.9,3.2,1.1,6.4,0.7,9.7c-0.8,7.2-4.5,13.5-8.1,19.6c-2.5,3.9-4.6,8.1-6.3,12.4&#10;&#9;&#9;c-1,2.3-1.4,4.9-1.2,7.4c0.2,2.4,1.7,4.6,3.9,5.6c0.4,0.2,0.6,0.6,0.4,1C427.5,179.3,427.2,179.5,426.9,179.5L426.9,179.5z"/>
	<path class="st3_message-received-46" d="M359.6,213.3c-0.4,0-0.8-0.3-0.8-0.7c0-0.3,0.1-0.5,0.4-0.6l30.2-18.6c0.3-0.2,0.8-0.1,1,0.2&#10;&#9;&#9;c0.2,0.3,0.1,0.8-0.2,1L360,213.2C359.9,213.2,359.7,213.3,359.6,213.3z"/>
	<path class="st2_message-received-46" d="M365,301.3c-0.1,0-0.2,0-0.4-0.1c-0.3-0.2-0.5-0.6-0.3-1l16-29.2c0.2-0.3,0.5-0.5,0.9-0.4&#10;&#9;&#9;c0.3,0.1,0.6,0.4,0.6,0.7v25.9c0,0.4-0.3,0.8-0.8,0.8s-0.8-0.3-0.8-0.8v-23l-14.6,26.6C365.5,301.2,365.3,301.3,365,301.3z"/>
</g>
<g id="stars_message-received-46">
	<path class="st1_message-received-46" d="M321.8,103.9c0,0-3.1,11.8-13,12c0,0,10.4,2.9,12.6,12.7c0,0,2.8-8.9,12.1-11.3&#10;&#9;&#9;C333.5,117.4,325.1,114.5,321.8,103.9z"/>
	<path class="st1_message-received-46" d="M38,193.2c0,0,7.9,11.3,0.9,20c0,0,10.1-6.9,20.2-1.6c0,0-5.7-8.9-1-18.7C58.1,192.9,49.6,198.1,38,193.2z"/>
	<path class="st1_message-received-46" d="M108.7,101.2c0,0,1.7,19.7-13.3,25.4c0,0,17.5-1.2,26.1,12.5c0,0-0.6-15.1,12.2-23.8&#10;&#9;&#9;C133.8,115.3,119.5,115.6,108.7,101.2z"/>
</g>
</svg>